<svg width="18" height="18" viewBox="0 0 18 18" fill="none" xmlns="http://www.w3.org/2000/svg">
<path fill-rule="evenodd" clip-rule="evenodd" d="M8.82525 3.341C9.15476 3.0115 9.68899 3.0115 10.0185 3.341L15.081 8.4035C15.4105 8.73301 15.4105 9.26724 15.081 9.59674L10.0185 14.6592C9.68899 14.9887 9.15476 14.9887 8.82525 14.6592C8.49575 14.3297 8.49575 13.7955 8.82525 13.466L13.2911 9.00012L8.82525 4.53424C8.49575 4.20474 8.49575 3.67051 8.82525 3.341Z" fill="#FAFAFA"/>
<path fill-rule="evenodd" clip-rule="evenodd" d="M2.67188 9.00012C2.67188 8.53413 3.04963 8.15637 3.51562 8.15637H13.7812C14.2472 8.15637 14.625 8.53413 14.625 9.00012C14.625 9.46611 14.2472 9.84387 13.7812 9.84387H3.51562C3.04963 9.84387 2.67188 9.46611 2.67188 9.00012Z" fill="#FAFAFA"/>
</svg>
