<svg width="20" height="20" viewBox="0 0 20 20" fill="none" xmlns="http://www.w3.org/2000/svg">
<path d="M10 17.5001C14.1421 17.5001 17.5 14.1423 17.5 10.0001C17.5 5.85799 14.1421 2.50012 10 2.50012C5.85786 2.50012 2.5 5.85799 2.5 10.0001C2.5 14.1423 5.85786 17.5001 10 17.5001Z" stroke="#71717A" stroke-linecap="round" stroke-linejoin="round"/>
<path d="M10 14.1668V14.1751" stroke="#71717A" stroke-linecap="round" stroke-linejoin="round"/>
<path d="M10.0007 11.2501C9.98531 10.9796 10.0583 10.7114 10.2086 10.486C10.3589 10.2605 10.5784 10.09 10.834 10.0001C11.1472 9.88035 11.4284 9.68949 11.6553 9.44259C11.8822 9.19569 12.0487 8.89948 12.1418 8.57728C12.2348 8.25509 12.2517 7.91571 12.1913 7.58585C12.1308 7.25599 11.9946 6.94467 11.7934 6.67639C11.5922 6.40811 11.3315 6.1902 11.0317 6.03981C10.732 5.88942 10.4014 5.81066 10.0661 5.80973C9.73074 5.8088 9.39975 5.88573 9.09919 6.03445C8.79862 6.18317 8.53668 6.39964 8.33398 6.66679" stroke="#71717A" stroke-linecap="round" stroke-linejoin="round"/>
</svg>
