<svg width="317" height="32" viewBox="0 0 317 32" fill="none" xmlns="http://www.w3.org/2000/svg">
<g clip-path="url(#clip0_562_22407)">
<path d="M72.1597 10.1569C71.9151 10.1698 71.6961 10.1956 71.4708 10.1956C67.3756 10.1956 63.2868 10.1956 59.1916 10.202C58.7795 10.202 58.5155 10.1375 58.2708 9.71806C58.0455 9.33088 57.614 8.9308 57.1955 8.81465C55.3733 8.31132 53.5382 8.29196 51.7546 9.0405C51.2974 9.23409 50.6406 9.47285 50.8402 10.0859C50.9497 10.4343 51.5163 10.7957 51.922 10.8602C53.6476 11.1248 55.3926 11.2668 57.1247 11.4862C59.8226 11.8282 62.5206 12.1766 65.2185 12.5638C65.798 12.6477 66.3582 12.8671 66.912 13.0736C70.0864 14.248 72.1662 16.3517 72.5203 19.8556C72.8873 23.5144 71.7798 26.5666 68.7342 28.7735C66.6222 30.3029 64.2011 31.0772 61.6577 31.4579C56.191 32.2774 50.7372 32.2194 45.3413 30.9223C42.5726 30.2577 40.1322 28.9929 38.5289 26.4892C37.6274 25.0824 37.1574 23.5273 36.9062 21.7721C37.2475 21.7721 37.5244 21.7721 37.7948 21.7721C42.0961 21.7721 46.3909 21.7786 50.6921 21.7656C51.2008 21.7656 51.5678 21.8431 51.9413 22.2948C52.6367 23.1208 53.6798 23.3595 54.7165 23.4886C56.0623 23.6564 57.408 23.5725 58.6185 22.8949C58.9598 22.7078 59.1723 22.2883 59.4427 21.9721C59.1143 21.714 58.8246 21.2881 58.464 21.2171C56.9766 20.9461 55.4699 20.7332 53.9631 20.5977C50.8145 20.3073 47.6401 20.2299 44.5751 19.3523C42.6756 18.8038 40.8727 18.0552 39.5205 16.5388C37.093 13.8157 36.9835 8.9308 39.2629 5.65917C41.053 3.09737 43.6608 1.77452 46.5712 0.948546C50.1899 -0.0710142 53.8859 -0.116185 57.5947 0.103215C60.4086 0.27099 63.1709 0.671071 65.7594 1.88422C69.1978 3.49745 71.1488 6.30446 72.1469 9.87293C72.1791 9.95036 72.1597 10.0278 72.1597 10.1569Z" fill="#A1A1AA"/>
<path d="M88.2165 17.6742C88.2165 22.1331 88.2165 26.5534 88.2165 31.0188C83.7736 31.0188 79.408 31.0188 74.9844 31.0188C74.9844 21.0297 74.9844 11.047 74.9844 0.999827C79.3436 0.999827 83.7285 0.999827 88.1843 0.999827C88.1843 5.34909 88.1843 9.6919 88.1843 14.1121C90.6311 14.1121 93.0007 14.1121 95.4604 14.1121C95.4604 9.74998 95.4604 5.38781 95.4604 0.980469C99.9097 0.980469 104.275 0.980469 108.699 0.980469C108.699 10.976 108.699 20.9587 108.699 31.0059C104.327 31.0059 99.9419 31.0059 95.4861 31.0059C95.4861 26.5663 95.4861 22.146 95.4861 17.6742C93.0457 17.6742 90.6698 17.6742 88.2165 17.6742Z" fill="#A1A1AA"/>
<path d="M38.1941 31.0704C35.4189 31.0704 32.7661 31.0704 30.1196 31.0704C28.5228 31.0704 26.9259 31.051 25.3355 31.0833C24.859 31.0898 24.6723 30.9284 24.537 30.4832C23.906 28.3924 23.217 26.3146 22.5925 24.2239C22.4508 23.7399 22.2383 23.5786 21.7425 23.5786C19.682 23.6044 17.628 23.6044 15.5675 23.5786C15.0524 23.5721 14.8013 23.7141 14.6468 24.2368C14.0222 26.3275 13.3525 28.4118 12.6571 30.4832C12.5798 30.7219 12.245 31.0381 12.0261 31.0446C7.78278 31.0769 3.53305 31.0639 -0.710245 31.0639C-0.781074 31.0639 -0.851903 31.0252 -1 30.9865C-0.903415 30.709 -0.826147 30.4509 -0.723123 30.1928C3.07588 20.6877 6.87489 11.1825 10.661 1.67093C10.8671 1.15469 11.1053 0.922389 11.7041 0.928842C16.411 0.954653 21.1244 0.9482 25.8313 0.935295C26.3271 0.935295 26.5975 1.03854 26.7971 1.54832C30.506 11.1438 34.2342 20.7264 37.9559 30.309C38.0396 30.5155 38.0911 30.7348 38.1941 31.0704ZM18.6647 12.0795C17.7825 14.7639 16.9133 17.4225 16.0311 20.1327C17.8212 20.1327 19.5082 20.1327 21.2854 20.1327C20.4032 17.4096 19.5339 14.751 18.6647 12.0795Z" fill="#A1A1AA"/>
<path d="M261.312 31.2065C259.258 31.2065 257.378 31.2065 255.491 31.2065C255.498 31.1097 255.485 31.0452 255.511 31.0194C257.223 29.2771 257.481 27.1089 257.468 24.7988C257.429 18.2813 257.449 11.7574 257.468 5.23998C257.468 4.60114 257.326 4.07845 256.882 3.63966C256.058 2.81368 255.221 2.00062 254.352 1.14238C255.395 1.14238 256.464 1.10366 257.526 1.16819C257.79 1.1811 258.093 1.47793 258.279 1.72314C262.761 7.33718 267.23 12.9641 271.705 18.5846C273.772 21.1851 275.838 23.7857 277.912 26.3797C278.066 26.5733 278.234 26.7604 278.53 27.1025C278.53 25.8764 278.536 24.8375 278.53 23.7986C278.511 19.6751 278.491 15.5517 278.459 11.4348C278.446 9.63441 278.401 7.8276 278.388 6.02723C278.375 4.38819 277.738 3.03308 276.598 1.89092C276.437 1.72959 276.27 1.56182 276.115 1.39404C276.083 1.36178 276.083 1.3037 276.057 1.20045C277.809 1.20045 279.541 1.20045 281.318 1.20045C281.292 1.27789 281.292 1.39404 281.234 1.45212C279.663 3.03954 279.341 5.02058 279.341 7.14359C279.361 14.7967 279.348 22.4499 279.348 30.1031C279.348 30.3096 279.367 30.516 279.341 30.7225C279.316 30.9097 279.238 31.0904 279.18 31.271C279 31.1613 278.775 31.0904 278.646 30.9355C277.319 29.29 276.012 27.638 274.692 25.9861C269.367 19.2944 264.049 12.6092 258.724 5.91753C258.621 5.78202 258.498 5.66587 258.286 5.42711C258.266 5.81429 258.241 6.0595 258.241 6.30471C258.273 11.4541 258.299 16.61 258.337 21.7594C258.344 23.0694 258.421 24.3858 258.382 25.6957C258.331 27.6316 259.013 29.2126 260.488 30.458C260.733 30.658 260.952 30.8774 261.312 31.2065Z" fill="#A1A1AA"/>
<path d="M237.636 8.48554C237.475 8.1758 237.301 7.86606 237.147 7.54987C235.183 3.55551 231.905 1.63255 227.533 1.40669C223.708 1.21311 220.141 1.8584 217.199 4.54281C215.022 6.53031 213.844 9.0663 213.271 11.912C212.537 15.5902 212.646 19.2425 213.792 22.8239C215.383 27.7798 219.266 30.7094 224.468 30.9675C226.87 31.0836 229.252 30.9675 231.558 30.1802C234.925 29.0316 236.31 27.1151 236.284 23.5595C236.277 22.8368 236.239 22.1141 236.161 21.3978C235.994 19.7975 235.672 19.107 234.507 17.6616C236.316 17.6616 238.067 17.6616 239.819 17.6616C239.825 17.6938 239.864 17.7648 239.851 17.7842C238.589 19.1264 238.376 20.7912 238.37 22.5206C238.364 24.0177 238.37 25.5083 238.331 27.0054C238.325 27.2635 238.164 27.6055 237.964 27.7539C234.107 30.6061 229.806 32.0516 224.99 31.8322C214.662 31.3676 209.369 23.2175 210.193 14.4738C210.927 6.68518 216.709 1.23247 224.687 0.606533C228.757 0.283887 232.684 0.916273 236.516 2.25848C236.928 2.40044 237.121 2.60048 237.179 3.05864C237.378 4.6396 237.642 6.21412 237.868 7.79508C237.9 8.00157 237.874 8.21452 237.874 8.42747C237.797 8.45328 237.713 8.46618 237.636 8.48554Z" fill="#A1A1AA"/>
<path d="M312.745 8.47236C312.417 7.86578 312.114 7.23985 311.766 6.64618C310.176 3.94241 307.877 2.24529 304.767 1.67744C302.146 1.19992 299.539 1.19992 296.976 1.94846C292.649 3.21968 290.009 6.20093 288.773 10.434C287.543 14.6413 287.607 18.8938 289.017 23.0559C290.666 27.9214 294.201 30.4703 299.236 30.922C301.889 31.1608 304.542 31.0124 307.066 30.0251C309.262 29.1604 311.116 27.8246 311.309 25.3016C311.451 23.4818 311.193 21.6105 310.916 19.7908C310.8 19.0422 310.169 18.3776 309.757 17.6484C311.451 17.6484 313.209 17.6484 314.967 17.6484C314.979 17.6871 315.018 17.7581 314.999 17.7775C313.698 19.1003 313.518 20.7781 313.498 22.5074C313.479 23.9529 313.479 25.3919 313.505 26.8373C313.511 27.2955 313.376 27.5794 312.99 27.8569C308.746 30.922 304.052 32.2384 298.818 31.7416C292.018 31.1027 286.583 26.0953 285.495 19.3391C284.858 15.3512 285.283 11.5117 287.363 7.99484C290.028 3.48425 294.175 1.25155 299.255 0.664331C303.441 0.173909 307.504 0.851465 311.483 2.19367C312.05 2.38726 312.281 2.70345 312.352 3.28421C312.533 4.7942 312.777 6.29127 312.983 7.7948C313.016 8.0142 312.99 8.2336 312.99 8.453C312.906 8.4659 312.822 8.47236 312.745 8.47236Z" fill="#A1A1AA"/>
<path d="M138.949 24.3528C139.201 24.882 139.458 25.4047 139.709 25.9338C142.278 31.3801 147.887 31.735 151.795 30.3799C154.004 29.612 155.131 27.8761 155.401 25.5983C155.768 22.4815 154.686 19.9907 151.924 18.4291C150.16 17.4353 148.286 16.6352 146.444 15.7834C144.577 14.9187 142.729 14.054 141.203 12.5892C138.428 9.92413 138.177 3.16147 143.663 1.25786C147.282 0.00599808 150.855 0.43189 154.403 1.61277C154.564 1.6644 154.77 1.85798 154.796 2.0064C155.073 3.76159 155.311 5.51679 155.556 7.27843C155.569 7.36232 155.498 7.45266 155.388 7.78821C155.195 7.33005 155.079 7.07194 154.976 6.81382C154.126 4.69727 152.954 2.79366 150.72 1.98059C147.9 0.954576 145.06 0.8965 142.658 3.01306C140.43 4.97474 140.437 8.67871 142.645 10.7501C143.605 11.6471 144.783 12.3569 145.962 12.957C147.932 13.9507 150.012 14.7315 151.995 15.6995C153.959 16.6545 155.742 17.8806 156.785 19.9003C159.161 24.4884 157.024 29.6765 152.059 31.18C147.938 32.4254 143.869 31.935 139.89 30.4508C139.69 30.3799 139.452 30.1282 139.426 29.9282C139.162 28.1988 138.937 26.4629 138.705 24.7271C138.692 24.6174 138.756 24.5013 138.789 24.3851C138.834 24.3787 138.892 24.3657 138.949 24.3528Z" fill="#A1A1AA"/>
<path d="M208.858 31.2066C206.984 31.2066 205.355 31.2066 203.636 31.2066C204.679 29.3869 204.08 27.6317 203.449 25.8765C202.799 24.0568 202.136 22.25 201.505 20.4238C201.363 20.0108 201.17 19.8624 200.739 19.8624C197.236 19.8753 193.733 19.8624 190.237 19.8882C190.011 19.8882 189.644 20.056 189.58 20.2302C188.711 22.6243 187.822 25.0118 187.075 27.4446C186.611 28.9481 186.882 29.6321 188.047 31.1937C186.541 31.1937 185.079 31.1937 183.508 31.1937C185.839 28.9933 186.341 25.9862 187.365 23.2502C190.063 16.0229 192.664 8.75696 195.304 1.51034C195.439 1.13607 195.504 0.755347 196.102 0.7618C196.695 0.768253 196.817 1.08445 196.972 1.51679C200.114 10.1701 203.256 18.8235 206.405 27.4833C206.894 28.8513 207.403 30.2194 208.858 31.2066ZM201.009 19.0235C199.193 13.9064 197.403 8.85375 195.613 3.80112C195.555 3.81403 195.497 3.82693 195.439 3.83984C193.643 8.88602 191.84 13.9257 190.024 19.0235C193.739 19.0235 197.326 19.0235 201.009 19.0235Z" fill="#A1A1AA"/>
<path d="M173.334 2.03291C173.334 2.32329 173.334 2.63303 173.334 2.93632C173.334 10.6411 173.347 18.3459 173.321 26.0507C173.315 27.8058 173.63 29.4255 174.75 30.8258C174.821 30.9161 174.86 31.0388 174.95 31.213C173.109 31.213 171.344 31.213 169.516 31.213C169.599 31.0581 169.657 30.8968 169.754 30.7677C170.733 29.5739 171.1 28.1866 171.1 26.6701C171.1 18.6814 171.1 10.6927 171.093 2.70401C171.093 2.45235 171.067 2.20068 171.061 2.05872C168.904 2.05872 166.824 1.99419 164.757 2.11034C164.281 2.13615 163.727 2.70401 163.411 3.16217C162.4 4.62053 161.486 6.14341 160.533 7.63404C160.391 7.85344 160.243 8.06638 160.102 8.28578C160.031 8.25997 159.954 8.22771 159.883 8.20189C159.902 7.9954 159.902 7.78891 159.941 7.59532C160.385 5.64009 160.842 3.68485 161.267 1.72317C161.357 1.30373 161.505 1.12305 161.969 1.12305C168.865 1.13595 175.768 1.13595 182.664 1.13595C182.767 1.13595 182.864 1.16176 183.031 1.18112C183.559 3.50417 184.087 5.84013 184.615 8.17608C184.538 8.2148 184.46 8.25352 184.383 8.28578C184.229 8.09219 184.048 7.91151 183.913 7.70502C182.967 6.20794 182.033 4.69151 181.074 3.20089C180.533 2.36201 179.786 1.96838 178.736 2.0071C176.985 2.07808 175.214 2.03291 173.334 2.03291Z" fill="#A1A1AA"/>
<path d="M250.152 31.2123C248.131 31.2123 246.373 31.2123 244.615 31.2123C244.608 31.1413 244.583 31.0768 244.602 31.051C245.845 29.5281 246.122 27.76 246.109 25.8435C246.057 19.3002 246.07 12.7505 246.102 6.20727C246.109 4.52952 245.793 2.98727 244.75 1.64506C244.686 1.56763 244.634 1.47729 244.589 1.38049C244.57 1.34178 244.596 1.2837 244.602 1.19336C246.353 1.19336 248.105 1.19336 249.869 1.19336C249.869 1.2837 249.888 1.34823 249.869 1.37404C248.472 3.05825 248.33 5.04575 248.349 7.13004C248.401 13.028 248.388 18.9324 248.356 24.8304C248.33 27.076 248.324 29.2829 250.152 31.2123Z" fill="#A1A1AA"/>
</g>
<defs>
<clipPath id="clip0_562_22407">
<rect width="316.495" height="32" fill="white" transform="translate(0.0820312)"/>
</clipPath>
</defs>
</svg>
