<svg width="88" height="73" viewBox="0 0 88 73" fill="none" xmlns="http://www.w3.org/2000/svg">
<path d="M72.6255 35.9823C72.6239 50.6085 63.6776 63.837 50.0897 69.3206C45.4253 71.2035 40.5779 72.0899 35.5523 71.9945C19.6298 71.692 5.70327 61.0111 1.36297 45.78C0.211062 41.7377 -0.21665 37.6161 0.102514 33.4249C1.13291 19.8891 9.6839 8.04353 22.2058 2.79126C25.6583 1.34353 29.2452 0.41342 32.9828 0.128727C44.8567 -0.772264 54.9484 3.05331 63.117 11.7041C67.8202 16.6879 70.7365 22.6357 72.0131 29.3729C72.4279 31.5583 72.6255 33.7598 72.6255 35.9823ZM36.2749 67.3423C28.7446 66.519 22.1945 63.5572 16.7962 58.2095C11.3947 52.8601 8.26629 46.372 7.60691 38.7969C6.85355 30.1445 9.26915 22.4044 14.9023 15.7739C20.5274 9.15319 27.7985 5.57188 36.4207 4.64015C32.4207 4.57545 28.568 5.28395 24.8612 6.73977C18.7549 9.14025 13.8217 13.0402 10.1343 18.4624C2.77409 29.2823 2.8956 43.5364 10.5814 54.1202C16.8902 62.805 25.5675 67.0964 36.2749 67.3423ZM50.0346 27.1892C49.8871 27.0808 49.7754 26.9967 49.662 26.9174C48.2735 25.9356 46.7441 25.3565 45.0462 25.1575C41.0364 24.6868 37.3491 26.5826 35.5766 30.206C33.882 33.6708 33.8852 37.2473 35.3563 40.772C36.5665 43.6707 38.8007 45.4452 41.9275 45.9757C44.9474 46.4885 47.6984 45.7557 50.2079 44.0346C50.4477 43.8696 50.532 43.6949 50.5303 43.4054C50.519 40.7137 50.5239 38.0237 50.5239 35.3321C50.5239 35.1946 50.5239 35.0571 50.5239 34.9066C48.165 34.9066 45.8531 34.9066 43.5444 34.9066C43.5444 35.6459 43.5444 36.356 43.5444 37.1146C45.056 37.1146 46.5367 37.1146 48.0451 37.1146C48.0451 38.8422 48.0499 40.518 48.0337 42.1955C48.0321 42.3103 47.8912 42.4704 47.7745 42.5287C47.2383 42.8004 46.7069 43.0948 46.1414 43.2873C42.8234 44.4099 39.5524 43.0884 38.1899 39.9826C36.978 37.2214 36.9165 34.3648 38.0959 31.5777C39.8748 27.3752 44.6655 26.2397 48.2168 29.1092C48.2816 29.161 48.3529 29.2079 48.4388 29.2694C48.9702 28.5722 49.4854 27.9042 50.0346 27.1892ZM38.5658 62.5397C34.4474 61.9914 30.6094 60.6876 27.0905 58.4845C23.5764 56.2829 20.712 53.4279 18.5216 49.9081C16.3248 46.3785 15.0141 42.5384 14.6722 38.4006C14.0744 31.1506 16.0331 24.6447 20.6877 19.035C25.3278 13.4446 31.3627 10.3356 38.5625 9.412C35.6739 9.37318 32.8824 9.86331 30.1752 10.8128C24.589 12.7733 20.0996 16.1897 16.7314 21.0505C10.1116 30.6055 10.5831 43.3731 17.9222 52.5528C21.5723 57.1192 26.2674 60.1473 31.9087 61.697C34.0829 62.2955 36.3008 62.6077 38.5658 62.5397ZM54.4267 43.2825C54.4705 43.3472 54.4802 43.3731 54.498 43.3892C57.108 45.5859 60.0939 46.4739 63.454 45.7881C66.7429 45.1168 68.5493 42.2456 67.877 38.9571C67.5837 37.5239 66.7251 36.4903 65.4954 35.8093C64.3807 35.1897 63.1883 34.7093 62.0186 34.1901C60.9185 33.6999 59.7877 33.268 58.8448 32.49C57.4985 31.3819 57.5179 29.3163 58.8902 28.239C59.765 27.5515 60.7889 27.3704 61.8696 27.469C63.2483 27.5952 64.4569 28.1646 65.5764 28.9475C65.7287 29.0543 65.8842 29.1562 66.0511 29.2694C66.5954 28.5593 67.1155 27.8831 67.6663 27.1633C67.5886 27.118 67.5416 27.0954 67.5011 27.063C67.3893 26.9773 67.2824 26.8851 67.169 26.801C65.4516 25.5134 63.501 24.9488 61.3722 24.9731C60.0971 24.9877 58.8869 25.2772 57.7642 25.9129C54.4219 27.8055 54.2388 32.7731 57.33 34.7853C58.4122 35.4906 59.5787 36.0034 60.7581 36.5064C61.8517 36.9739 62.968 37.4107 63.9984 37.9962C66.1596 39.224 65.6525 41.99 63.8801 42.9719C63.0555 43.428 62.1758 43.5833 61.2474 43.5283C59.6338 43.4329 58.2113 42.8376 56.9363 41.8671C56.6657 41.6617 56.4 41.4497 56.1198 41.2298C55.5397 41.935 54.9857 42.6063 54.4267 43.2825ZM40.7821 14.0609C38.8865 14.0124 37.0396 14.3036 35.2332 14.8277C30.5413 16.188 26.6757 18.7875 23.6914 22.6551C17.7375 30.371 17.6565 41.2589 23.5019 49.054C26.5072 53.0623 30.4441 55.7524 35.264 57.1386C37.0558 57.653 38.8833 57.9507 40.7659 57.9005C34.9561 57.0028 30.0796 54.4179 26.329 49.8854C22.5622 45.3352 20.8967 40.0667 21.3666 34.182C21.7829 28.9734 23.8826 24.4797 27.5263 20.7367C31.1667 17.0001 35.6252 14.8422 40.7821 14.0609ZM43.0373 18.8166C41.3167 18.781 39.6545 19.0689 38.0425 19.606C34.3048 20.8499 31.3157 23.0999 29.0864 26.3497C24.7704 32.6388 25.2565 41.2071 30.2724 47.1194C31.8698 49.0022 33.8059 50.4467 36.0238 51.5386C38.522 52.7696 42.2224 53.3891 43.1102 53.0866C38.893 52.4768 35.3352 50.7217 32.466 47.6807C29.5871 44.6299 28.0123 40.9984 27.8017 36.8008C27.6364 33.5091 28.3363 30.4017 29.9889 27.5499C32.897 22.5257 37.3102 19.6901 43.0373 18.8166Z" fill="#A1A1AA"/>
<path d="M83.4998 43.574C85.0438 43.574 86.5051 43.574 88.0005 43.574C88.0005 44.3682 88.0005 45.1398 88.0005 45.9453C83.8433 45.9453 79.6844 45.9453 75.5013 45.9453C75.5013 45.1657 75.5013 44.4022 75.5013 43.5885C77.1846 43.5885 78.8695 43.5885 80.5836 43.5885C80.5836 38.4737 80.5836 33.4091 80.5836 28.2814C79.0299 28.8912 77.5118 29.4865 75.9598 30.0963C75.7556 29.2018 75.5612 28.3445 75.3555 27.4451C75.9565 27.1976 76.5446 26.9566 77.1344 26.7156C78.4256 26.1882 79.7152 25.6544 81.0129 25.14C81.243 25.0478 81.5054 25.009 81.7566 25.0009C82.3187 24.9815 82.8809 24.9945 83.4998 24.9945C83.4998 31.1946 83.4998 37.3592 83.4998 43.574Z" fill="#A1A1AA"/>
<path d="M67.6094 2.66214C69.5665 2.65405 71.1461 4.20854 71.1575 6.14964C71.1688 8.10691 69.5827 9.70669 67.6289 9.70831C65.6977 9.70993 64.0986 8.11661 64.0938 6.18846C64.0905 4.24737 65.6637 2.67023 67.6094 2.66214ZM67.6256 8.99334C69.2231 8.99334 70.4608 7.76398 70.4608 6.17875C70.4608 4.59515 69.2166 3.35446 67.6289 3.35285C66.0379 3.35123 64.8066 4.58059 64.8001 6.17552C64.7936 7.76398 66.0266 8.99334 67.6256 8.99334Z" fill="black"/>
<path d="M36.2745 67.3423C25.5672 67.0964 16.8882 62.805 10.5827 54.1218C2.89686 43.538 2.77535 29.2856 10.1355 18.464C13.8229 13.0418 18.7562 9.14187 24.8624 6.74138C28.5676 5.28394 32.4219 4.57706 36.422 4.64177C27.7981 5.57349 20.527 9.15481 14.9036 15.7756C9.26878 22.4044 6.85319 30.1445 7.60654 38.7969C8.26593 46.372 11.396 52.8601 16.7959 58.2095C22.1957 63.5572 28.7442 66.519 36.2745 67.3423Z" fill="black"/>
<path d="M50.0352 27.1891C49.486 27.904 48.9724 28.5737 48.4394 29.2677C48.3535 29.2062 48.2822 29.1609 48.2174 29.1075C44.6661 26.2363 39.8754 27.3735 38.0965 31.5759C36.9171 34.3614 36.9787 37.2197 38.1905 39.9809C39.553 43.0866 42.8241 44.4066 46.1421 43.2856C46.7075 43.0947 47.2405 42.7987 47.7751 42.5269C47.8918 42.4671 48.0344 42.3086 48.0344 42.1937C48.0506 40.5179 48.0457 38.8405 48.0457 37.1129C46.5374 37.1129 45.0566 37.1129 43.545 37.1129C43.545 36.3543 43.545 35.6442 43.545 34.9049C45.8537 34.9049 48.1672 34.9049 50.5245 34.9049C50.5245 35.057 50.5245 35.1929 50.5245 35.3303C50.5245 38.022 50.5196 40.712 50.531 43.4037C50.5326 43.6916 50.4483 43.8679 50.2086 44.0329C47.699 45.754 44.9464 46.4884 41.9281 45.974C38.8013 45.4434 36.5688 43.669 35.3569 40.7703C33.8842 37.2456 33.881 33.6691 35.5773 30.2042C37.3497 26.5825 41.0371 24.6851 45.0469 25.1558C46.7447 25.3547 48.2758 25.9355 49.6626 26.9157C49.776 26.9966 49.8862 27.0807 50.0352 27.1891Z" fill="black"/>
<path d="M38.5663 62.5402C36.303 62.6065 34.0835 62.2943 31.9093 61.6974C26.268 60.1478 21.5729 57.1197 17.9228 52.5533C10.5836 43.3735 10.1122 30.6044 16.732 21.0509C20.1002 16.1901 24.5896 12.7738 30.1757 10.8133C32.8829 9.86216 35.676 9.37203 38.5631 9.41247C31.3633 10.3377 25.3283 13.4451 20.6883 19.0354C16.0321 24.6452 14.075 31.1511 14.6728 38.4011C15.0147 42.5388 16.3253 46.379 18.5222 49.9085C20.7126 53.4284 23.577 56.2834 27.091 58.4849C30.6083 60.6881 34.448 61.9918 38.5663 62.5402Z" fill="black"/>
<path d="M54.4258 43.2831C54.9847 42.6053 55.5388 41.9357 56.1204 41.232C56.4007 41.4504 56.6664 41.6623 56.937 41.8693C58.212 42.8399 59.6345 43.4352 61.2481 43.5306C62.1748 43.5856 63.0562 43.4303 63.8808 42.9741C65.6532 41.9923 66.1603 39.2262 63.9991 37.9985C62.9687 37.4129 61.8524 36.9762 60.7588 36.5087C59.5794 36.0056 58.4129 35.4912 57.3307 34.7876C54.2395 32.7753 54.4209 27.8077 57.7648 25.9152C58.8876 25.2795 60.0978 24.9899 61.3729 24.9754C63.5001 24.9511 65.4523 25.5156 67.1696 26.8032C67.283 26.8873 67.39 26.9795 67.5018 27.0653C67.5423 27.096 67.5909 27.1186 67.667 27.1656C67.1162 27.8838 66.5961 28.5615 66.0518 29.2716C65.8849 29.16 65.7294 29.0565 65.5771 28.9497C64.4576 28.1668 63.2506 27.5958 61.8702 27.4713C60.7896 27.3726 59.7657 27.5538 58.8908 28.2412C57.5186 29.3186 57.5008 31.3842 58.8455 32.4922C59.79 33.2687 60.9192 33.7022 62.0193 34.1923C63.1874 34.7116 64.3798 35.1936 65.4961 35.8115C66.7257 36.4941 67.5844 37.5261 67.8776 38.9593C68.55 42.2479 66.7435 45.1207 63.4547 45.7903C60.0962 46.4746 57.1087 45.5882 54.4987 43.3915C54.4776 43.3737 54.4679 43.3478 54.4258 43.2831Z" fill="black"/>
<path d="M40.781 14.0616C35.6242 14.8412 31.1656 16.9991 27.5268 20.7373C23.8815 24.4804 21.7835 28.974 21.3671 34.1826C20.8957 40.0674 22.5628 45.3358 26.3295 49.8861C30.0801 54.4185 34.9567 57.0034 40.7664 57.9011C38.8838 57.9529 37.0563 57.6553 35.2645 57.1393C30.4446 55.753 26.5077 53.0646 23.5024 49.0546C17.657 41.2595 17.738 30.3716 23.692 22.6557C26.6762 18.7881 30.5418 16.1887 35.2337 14.8283C37.0385 14.3058 38.8855 14.0146 40.781 14.0616Z" fill="black"/>
<path d="M43.0364 18.8164C37.3093 19.6915 32.8961 22.5255 29.9847 27.5497C28.3322 30.4015 27.6323 33.5089 27.7976 36.8007C28.0082 40.9999 29.5829 44.6313 32.4619 47.6805C35.3328 50.7231 38.8905 52.4782 43.1061 53.0864C42.2183 53.3889 38.5179 52.7694 36.0197 51.5384C33.8034 50.4465 31.8657 49.002 30.2683 47.1192C25.2524 41.2069 24.768 32.6386 29.0823 26.3495C31.3116 23.0998 34.3007 20.8513 38.0384 19.6058C39.6536 19.0688 41.3159 18.7808 43.0364 18.8164Z" fill="black"/>
<path d="M67.624 8.99303C66.025 8.99303 64.7904 7.76367 64.7969 6.17521C64.8034 4.58028 66.0347 3.35254 67.6256 3.35254C69.2133 3.35416 70.4576 4.59484 70.4576 6.17845C70.4592 7.76367 69.2214 8.99303 67.624 8.99303ZM67.125 6.83357C67.4847 6.69931 67.6969 6.79474 67.8427 7.07782C67.9011 7.19105 67.9821 7.29296 68.0517 7.39972C68.4081 7.93352 68.5912 7.99822 69.2619 7.81544C69.0027 7.43531 68.7468 7.06164 68.4892 6.68475C68.6398 6.56181 68.7678 6.47608 68.8747 6.36932C69.4256 5.81934 69.2733 4.886 68.5572 4.62234C67.833 4.35544 67.0764 4.50749 66.3279 4.49617C66.3279 5.65435 66.3279 6.74945 66.3279 7.85588C66.6001 7.85588 66.848 7.85588 67.125 7.85588C67.125 7.50163 67.125 7.17164 67.125 6.83357Z" fill="#A1A1AA"/>
<path d="M67.1252 6.83426C67.1252 7.17233 67.1252 7.50232 67.1252 7.85657C66.8466 7.85657 66.6003 7.85657 66.3281 7.85657C66.3281 6.74853 66.3281 5.65505 66.3281 4.49686C67.0766 4.50818 67.8348 4.35613 68.5574 4.62303C69.2719 4.8867 69.4258 5.82004 68.875 6.37002C68.768 6.47678 68.64 6.56412 68.4894 6.68544C68.747 7.06234 69.0029 7.436 69.2622 7.81613C68.593 7.99892 68.4084 7.93421 68.0519 7.40041C67.9806 7.29365 67.8996 7.19174 67.8429 7.07851C67.6971 6.79544 67.4833 6.7 67.1252 6.83426ZM67.1528 6.05459C67.4525 6.05459 67.7344 6.08047 68.0098 6.0465C68.2674 6.01577 68.5169 5.85724 68.4634 5.57902C68.4294 5.39947 68.2301 5.16977 68.0568 5.11477C67.7797 5.02743 67.4638 5.06625 67.1528 5.05169C67.1528 5.4205 67.1528 5.72137 67.1528 6.05459Z" fill="black"/>
<path d="M67.1562 6.05368C67.1562 5.72046 67.1562 5.41959 67.1562 5.05078C67.4673 5.06534 67.7832 5.02652 68.0603 5.11387C68.2336 5.16886 68.4329 5.39856 68.4669 5.57811C68.5204 5.85634 68.2709 6.01486 68.0133 6.04559C67.7379 6.07956 67.456 6.05368 67.1562 6.05368Z" fill="#A1A1AA"/>
</svg>
