<svg width="137" height="41" viewBox="0 0 137 41" fill="none" xmlns="http://www.w3.org/2000/svg">
<path d="M4.28 28.039C4.64467 28.0006 4.7193 27.7103 4.87071 27.5139C9.08459 22.0663 13.2985 16.6208 17.4932 11.1583C17.8557 10.6865 18.2225 10.4795 18.8239 10.5072C19.9136 10.5585 21.0054 10.5158 22.0973 10.5264C22.3255 10.5286 22.6304 10.4048 22.7669 10.6268C22.9268 10.8872 22.607 11.043 22.4769 11.2181C19.0499 15.7627 15.6229 20.3052 12.1661 24.8264C11.7609 25.3558 11.7737 25.6589 12.2024 26.1648C15.9599 30.6134 19.6854 35.0876 23.4131 39.5597C23.5559 39.7304 23.8609 39.8841 23.7436 40.1381C23.6263 40.3964 23.315 40.262 23.0932 40.2641C21.8947 40.2748 20.6962 40.2449 19.4999 40.2812C18.9667 40.2982 18.6127 40.1253 18.2758 39.7155C15.4054 36.2232 12.5094 32.7544 9.64545 29.2579C9.236 28.7584 9.03768 28.6965 8.61544 29.2579C7.43402 30.829 6.19928 32.3638 4.95175 33.8858C4.54017 34.3874 4.33758 34.8848 4.36104 35.5444C4.41009 36.8721 4.35677 38.2042 4.3845 39.534C4.39516 40.0592 4.28 40.3068 3.68716 40.2833C2.65075 40.2406 1.61221 40.2598 0.573666 40.2748C0.168485 40.2812 -0.0255752 40.1381 0.0170754 39.7176C0.0298706 39.5853 0.019208 39.4529 0.019208 39.3184C0.0213405 26.5512 0.0298706 13.7839 1.51943e-05 1.01663C-0.00211734 0.190523 0.219666 -0.0549608 1.01936 0.011213C1.83826 0.0795214 2.66994 0.0560404 3.4931 0.0154822C4.07741 -0.0144027 4.2864 0.167042 4.27574 0.777548C4.24162 2.74355 4.26508 4.71382 4.26294 6.68196C4.25228 13.7028 4.23949 20.7236 4.23096 27.7466C4.23096 27.8405 4.26294 27.9366 4.28 28.039Z" fill="#A1A1AA"/>
<path d="M124.966 40.2684C121.559 40.2684 118.151 40.2513 114.743 40.2834C114.065 40.2898 113.956 40.0614 113.892 39.4274C113.698 37.4784 114.28 35.9074 115.46 34.3042C120.109 27.9836 124.61 21.554 129.161 15.1608C129.321 14.9367 129.673 14.7061 129.526 14.4265C129.379 14.149 128.993 14.3069 128.715 14.3069C124.269 14.2984 119.823 14.2835 115.379 14.3176C114.66 14.324 114.447 14.117 114.502 13.4211C114.562 12.6547 114.534 11.8777 114.509 11.1071C114.494 10.6524 114.668 10.5116 115.112 10.5137C121.448 10.5244 127.784 10.5244 134.121 10.5137C134.565 10.5137 134.74 10.6589 134.727 11.1135C134.701 12.0442 134.697 12.9771 134.727 13.9056C134.742 14.3539 134.503 14.6549 134.275 14.9794C129.387 21.8849 124.497 28.7862 119.618 35.696C119.46 35.918 119.102 36.1294 119.264 36.4239C119.392 36.6545 119.755 36.5179 120.01 36.5179C125.041 36.5243 130.074 36.5371 135.104 36.5072C135.8 36.5029 136.062 36.6694 135.994 37.3909C135.93 38.0761 135.94 38.7763 135.992 39.4637C136.039 40.0934 135.832 40.2855 135.192 40.2812C131.782 40.2535 128.374 40.2684 124.966 40.2684Z" fill="#A1A1AA"/>
<path d="M30.2462 14.2426C30.6748 14.1679 30.7303 13.8349 30.8988 13.6171C32.609 11.4163 34.8482 10.2039 37.6312 9.97972C38.3072 9.92422 38.6654 10.0587 38.5844 10.8635C38.5034 11.6789 38.5524 12.5114 38.5737 13.3354C38.5844 13.7431 38.4991 13.98 38.0235 14.0056C35.6543 14.1252 33.8715 15.359 32.3595 17.0624C31.08 18.5033 30.7495 20.2687 30.7431 22.1109C30.7239 27.8552 30.7239 33.5974 30.7516 39.3417C30.7559 40.0568 30.5938 40.345 29.8325 40.283C28.9859 40.2147 28.1286 40.2339 27.2799 40.2788C26.6763 40.3108 26.5057 40.0995 26.5121 39.506C26.5399 36.8996 26.5249 34.2954 26.5249 31.689C26.5249 24.935 26.5377 18.181 26.5079 11.427C26.5036 10.6777 26.7169 10.4408 27.4462 10.507C28.1051 10.5667 28.779 10.5561 29.4401 10.5091C30.0585 10.4643 30.3016 10.6479 30.2633 11.3053C30.2036 12.2745 30.2462 13.2479 30.2462 14.2426Z" fill="#A1A1AA"/>
<path d="M45.5131 25.4452C45.5131 30.071 45.4939 34.6989 45.5323 39.3246C45.5387 40.1123 45.2977 40.3407 44.5449 40.2809C43.7516 40.219 42.9476 40.2468 42.1522 40.2745C41.6596 40.2916 41.4719 40.1016 41.5167 39.6213C41.5402 39.3566 41.521 39.0898 41.521 38.8251C41.521 29.7059 41.5316 20.5846 41.5039 11.4655C41.5018 10.6799 41.7342 10.4451 42.4892 10.5091C43.2291 10.5711 43.9798 10.5604 44.7219 10.5113C45.3617 10.4686 45.5344 10.697 45.5301 11.3288C45.5045 15.8479 45.5152 20.369 45.5152 24.8902C45.5109 25.0738 45.5109 25.2595 45.5131 25.4452Z" fill="#A1A1AA"/>
<path d="M76.6121 15.1605C70.3318 7.75328 59.7246 8.56872 54.4488 14.2127C54.2782 14.3963 54.1417 14.6524 53.8261 14.6738C53.6107 14.4155 53.7194 14.1124 53.7173 13.837C53.7088 9.50155 53.7002 5.16824 53.7258 0.832786C53.7301 0.200933 53.5467 -0.0232042 52.9155 0.0152193C52.1733 0.0600467 51.4206 0.0771238 50.6827 0.01095C49.9065 -0.0573584 49.7039 0.215875 49.706 0.98648C49.7337 9.01699 49.7743 17.0496 49.7039 25.0801C49.6634 29.6867 51.2606 33.5034 54.5596 36.7033C59.0998 41.107 65.941 42.2597 71.6327 39.4804C80.8516 34.9806 83.2592 23.001 76.6121 15.1605ZM64.7851 37.0042C58.7437 36.9914 53.7002 31.6634 53.713 25.3064C53.7258 18.8299 58.6925 13.6918 64.9174 13.7132C71.2083 13.7345 76.3456 18.9879 76.3157 25.3683C76.2859 31.7658 71.0825 37.017 64.7851 37.0042Z" fill="#A1A1AA"/>
<path d="M110.926 15.6319C106.039 9.36674 97.4232 7.93012 90.7419 12.257C89.6458 12.9679 88.7395 13.8943 87.654 14.9104C87.654 14.571 87.654 14.4408 87.654 14.3127C87.6562 9.78939 87.6498 5.26609 87.6732 0.74493C87.6754 0.181386 87.4941 -0.00859702 86.9396 0.014884C86.1421 0.0511729 85.3402 0.06825 84.5448 0.0106147C83.8368 -0.0406166 83.6513 0.196328 83.6534 0.902894C83.679 9.01665 83.7216 17.1325 83.6491 25.2463C83.6086 29.9084 85.3317 33.708 88.6883 36.8715C93.6294 41.5315 100.692 42.1953 106.22 39.1151C114.816 34.3292 116.972 23.3828 110.926 15.6319ZM98.6472 37.0167C92.6505 36.9249 87.6242 31.6182 87.6626 25.3125C87.7009 18.7399 92.6697 13.6638 99.0183 13.715C105.258 13.7641 110.265 19.0537 110.238 25.5324C110.214 31.2937 105.348 37.1192 98.6472 37.0167Z" fill="#A1A1AA"/>
<path d="M45.1777 8.37906H41.7656V6.45788L43.4716 4.32324L45.1777 6.45788V8.37906Z" fill="#A1A1AA"/>
</svg>
