<svg width="162" height="55" viewBox="0 0 162 55" fill="none" xmlns="http://www.w3.org/2000/svg">
<path d="M33.8203 45.8029L38.0171 49.209L42.4579 45.4136L40.7011 43.7592V17.0451L40.2619 17.1424C40.0179 18.4562 37.0411 21.6191 35.0891 22.1057V44.8297C35.0403 44.8297 34.2595 45.3649 33.8203 45.8029Z" fill="#A1A1AA"/>
<path d="M43.4312 31.2537H43.6264L46.2128 33.4434L46.3592 47.2626C46.3592 47.2626 47.0424 54.9995 39.2344 53.2964L39.2832 53.929C39.2832 53.929 40.9424 54.8049 42.9432 54.7076C47.3352 54.4643 51.0928 52.3232 51.4344 48.3818C51.9712 41.5695 51.6784 30.9617 51.6784 30.9617L46.9448 27.5069L40.6496 32.5188V33.4434C40.6496 33.492 43.48 31.205 43.4312 31.2537Z" fill="#A1A1AA"/>
<path d="M29.8154 33.9787C29.8154 34.0274 29.7666 34.0761 29.7666 34.1247C28.9858 36.655 27.0338 39.1366 25.3746 40.5478C22.593 42.9321 19.1282 43.9053 16.1514 43.7593C9.80732 43.4673 5.6593 39.1853 5.6593 32.9569C5.6593 29.2101 7.85531 25.0741 10.4417 22.9817C9.56332 22.8844 9.07531 23.0304 9.07531 23.0304C4.14649 25.2687 0.730469 29.8913 0.730469 35.2925C0.730469 42.8348 7.41611 48.9659 15.6633 48.9659C21.7146 48.9659 26.9362 45.657 29.2786 40.937C30.2546 38.4554 29.8642 34.4167 29.8154 33.9787Z" fill="#A1A1AA"/>
<path d="M25.6207 23.8575H25.0352V41.3262H25.6207V23.8575Z" fill="#A1A1AA"/>
<path d="M15.373 21.4727L15.2267 40.9851L11.957 43.0288L12.4938 43.6127L21.2779 38.0169V27.2145C21.2779 27.2145 21.2291 23.7597 21.5707 23.711" fill="#A1A1AA"/>
<path d="M13.0785 22.0082C15.0793 22.5921 15.6161 23.1273 17.3241 23.4193C20.2033 23.9059 23.9121 23.8572 25.4738 23.9059C31.4274 23.9546 33.8674 18.2127 33.8674 18.2127C31.8666 19.0399 25.0345 19.6239 20.4961 18.6507C17.2265 17.9694 15.8601 17.7261 13.6641 17.2882C0.292802 14.5633 0 25.1224 0 25.1224C1.36641 24.5871 3.95282 19.4292 13.0785 22.0082Z" fill="#A1A1AA"/>
<path d="M24.4492 32.0806L25.2788 31.1074L26.206 32.0806L25.3764 33.1025L24.4492 32.0806Z" fill="#A1A1AA"/>
<path d="M72.1261 41.5209L71.6869 41.0829L66.4164 45.3163L61.9268 42.0561L61.878 40.2071L70.7597 33.2974L67.0996 26.9717C67.0996 26.9717 63.2444 29.2587 61.1948 29.9886C60.17 30.3778 56.3148 31.8863 56.3148 31.8863L56.3636 43.6619L53.4844 45.9489L53.8748 46.4841L56.4612 44.4891L62.7564 49.0631L72.1261 41.5209ZM61.7804 30.4752L63.2444 29.7939L66.6604 35.6331L61.7804 39.4285V30.4752Z" fill="#A1A1AA"/>
<path d="M115.9 33.0541L115.07 33.8813L114.582 33.4434L115.9 32.1296L117.461 30.5238L118.925 29.0154C121.365 30.8158 123.659 32.3729 123.659 32.3729V43.0293L126.928 45.4137C126.928 45.4137 129.173 43.1753 129.271 43.0293C129.271 41.3749 129.271 34.6599 129.271 34.6599L126.977 32.9082L126.05 33.7354L125.611 33.2974L129.905 28.9667L134.346 32.4216L135.761 31.0104L136.201 31.497L134.785 32.9568V44.7324L135.957 45.4623L137.274 44.1485L137.713 44.5864L132.833 49.501L129.32 46.9708V44.0025L124 49.4037L118.388 45.4623L116.924 46.8734L116.436 46.4355L118.242 44.6351L118.193 34.7086L115.9 33.0541Z" fill="#A1A1AA"/>
<path d="M115.9 33.0541L115.07 33.8813L114.582 33.4434L115.9 32.1296L117.461 30.5238L118.925 29.0154C121.365 30.8158 123.659 32.3729 123.659 32.3729V43.0293L126.928 45.4137C126.928 45.4137 129.173 43.1753 129.271 43.0293C129.271 41.3749 129.271 34.6599 129.271 34.6599L126.977 32.9082L126.05 33.7354L125.611 33.2974L129.905 28.9667L134.346 32.4216L135.761 31.0104L136.201 31.497L134.785 32.9568V44.7324L135.957 45.4623L137.274 44.1485L137.713 44.5864L132.833 49.501L129.32 46.9708V44.0025L124 49.4037L118.388 45.4623L116.924 46.8734L116.436 46.4355L118.242 44.6351L118.193 34.7086L115.9 33.0541Z" fill="#A1A1AA"/>
<path d="M147.62 32.1292V34.6595L152.695 28.8204L157.819 32.4698L159.039 31.2047L159.527 31.6426L159.332 31.7886L158.112 33.1997V44.0995L159.771 45.4133L160.894 44.1481L161.333 44.5861L156.99 49.5007L152.988 46.3378V35.2921L149.816 33.1024L147.571 35.6814V45.4133L148.742 46.6784C148.694 46.6784 148.742 46.7757 148.694 46.7757C146.937 47.7003 144.692 49.598 144.692 49.598C144.692 49.598 142.398 47.6516 141.227 46.8244L142.154 45.6079V34.3676L140.007 32.8105L139.226 33.6377L138.738 33.1997L141.081 30.5235L142.74 28.5771L147.62 32.1292Z" fill="#A1A1AA"/>
<path d="M109.018 32.0807C108.335 31.7401 107.603 31.3995 106.676 31.2048C106.92 30.9129 108.14 29.4531 108.482 29.0151L109.214 28.2853C109.214 28.3826 109.214 28.4799 109.214 28.5286C109.262 29.4531 109.994 30.037 110.824 29.891C111.654 29.745 112.337 28.8692 112.288 27.9446C112.239 27.0201 111.507 26.4362 110.678 26.5822C110.629 26.5822 110.629 26.5822 110.629 26.5822C110.629 26.5822 110.629 26.5822 110.58 26.5822C110.531 26.5822 110.482 26.6308 110.482 26.6308C110.434 26.6308 110.385 26.6795 110.336 26.6795C109.262 27.1661 108.286 28.3339 107.506 29.3071C106.822 30.1343 106.188 30.8642 106.09 31.0102C104.382 30.6696 101.991 30.3776 100.185 30.2316C103.406 26.5822 106.188 23.5653 110.141 19.1859L109.75 18.748C109.067 19.5265 108.921 19.6239 107.994 20.5971C106.188 19.5266 104.09 18.6507 101.991 18.2127C99.6975 17.7748 97.2575 17.6288 94.8663 17.9694C93.207 18.2127 90.7182 19.2833 89.059 21.035C87.6926 22.3488 86.9118 23.6626 86.4238 24.9278C85.9358 26.1929 85.7406 27.458 85.9846 28.9178C86.2774 30.1343 86.7166 30.9615 87.351 31.6428C87.6438 32.032 89.1078 33.6378 95.2567 34.8543C94.5735 35.6328 94.0855 36.1681 93.3047 36.9466C93.0119 37.2386 92.5239 37.8712 92.1334 38.0658C92.1334 38.0172 92.1822 37.9685 92.1822 37.9198C92.2798 36.9953 91.6942 36.2168 90.8646 36.2168C90.035 36.2168 89.2542 36.9466 89.1078 37.9198C89.0102 38.8444 89.5958 39.6229 90.4254 39.6229C90.5718 39.6229 90.6694 39.6229 90.8158 39.5743C90.8646 39.5743 90.8646 39.5743 90.9134 39.5743C91.6454 39.2823 92.2798 38.9904 94.0367 36.9953C94.3783 36.606 95.2567 35.6328 95.8911 35.0003C96.8671 35.1949 97.9407 35.3409 99.1607 35.4869C100.332 35.6328 101.357 35.7788 102.186 35.9735C100.82 37.7252 99.6487 39.185 97.9407 41.2287C93.7927 40.6934 88.7174 41.5206 84.667 43.7103C82.2758 45.0241 79.787 46.8732 78.9574 49.7928C78.4206 51.6418 79.1038 53.5395 80.4214 54.4641C82.1294 55.6319 84.3254 54.6587 86.2286 53.7342C89.0102 52.3717 91.1574 50.2794 93.1582 48.0897C93.939 47.2138 95.5007 45.3161 95.5495 45.2674C96.8183 45.608 97.9407 45.9487 99.0143 46.5326C100.478 47.2625 100.869 47.6031 102.333 48.7222C102.382 48.7709 103.602 49.9874 103.602 50.0361L104.236 49.4521C108.091 46.2406 111.8 42.4452 112.434 37.5792C112.727 34.903 110.678 32.8593 109.018 32.0807ZM89.059 28.5286C88.0342 27.896 87.2046 27.1661 87.2534 25.9983C87.2534 24.3438 88.327 22.5921 89.8886 21.8622C93.4511 20.2078 97.0135 21.0837 99.7951 22.2515C101.552 22.9814 102.87 23.9546 104.09 24.8304C101.991 27.3121 101.454 27.896 99.4047 30.2316C94.9639 29.9397 90.1326 29.3558 89.059 28.5286ZM93.9391 46.2406C91.6942 48.9655 90.1814 50.182 87.2046 52.1284C85.5942 53.1989 83.9838 53.7828 82.227 53.7342C81.739 53.7342 81.1534 53.6369 80.7142 53.3449C79.787 52.761 79.543 51.4472 79.9822 50.2307C81.2022 47.3598 85.2526 45.3647 89.5958 44.7808C90.8158 44.6349 92.0358 44.5375 94.7687 45.1214C94.7199 45.3161 94.0855 46.0946 93.9391 46.2406ZM98.6239 41.4233C100.039 39.5256 101.405 37.9198 102.772 36.1681C103.016 36.2168 103.26 36.2654 103.504 36.3627C103.797 36.4601 104.138 36.5574 104.431 36.6547C105.554 37.0926 106.725 37.6279 107.652 38.3578C108.774 39.2823 109.604 40.8394 109.409 42.2992C109.262 43.2724 108.774 44.1483 108.091 44.8295C108.042 44.8781 107.945 44.9755 107.847 45.0728C107.798 45.1214 107.75 45.1701 107.652 45.2188C104.724 43.2237 101.991 42.2019 98.6239 41.4233Z" fill="#A1A1AA"/>
<path d="M60.9005 9.30856L55.5324 10.4764L55.4836 10.3304C55.4836 10.3304 56.2156 10.1358 56.4108 9.89248C56.606 9.64918 56.5572 9.30856 56.5084 8.87062C56.4596 8.43269 56.3132 7.70279 56.118 6.87558C55.9228 5.99971 55.874 5.6591 55.63 4.78323C55.4836 4.15066 55.386 3.90736 55.0932 3.81004C54.8004 3.71272 54.166 3.76138 54.166 3.76138L54.1172 3.6154C54.1172 3.6154 56.362 3.12881 58.2652 2.69087C58.9484 2.54489 59.1924 2.49623 59.2412 2.25293H59.3389L59.5829 3.85869L59.4365 3.90736C59.4365 3.90736 59.2901 3.32344 58.9972 3.22612C58.7532 3.1288 58.3629 3.17746 57.9724 3.22612C57.7284 3.27478 57.3868 3.32344 57.094 3.3721C56.7036 3.46942 56.4108 3.51808 56.4108 3.51808C56.5572 4.39395 56.7524 5.36714 56.9476 6.19435L58.6557 5.80507C58.7533 5.75641 58.9973 5.70776 59.0949 5.56178C59.1925 5.36714 59.1925 5.1725 59.1925 4.88055L59.3389 4.83188L59.8269 6.92424L59.6805 6.97291C59.6805 6.97291 59.4365 6.38899 59.1925 6.24301L57.094 6.72961C57.094 6.72961 57.338 7.84877 57.5332 8.57866C57.7284 9.30856 57.9236 9.55186 58.8997 9.35722C59.5829 9.21124 60.2173 8.91929 60.5589 8.43269C60.7541 8.14073 60.8517 7.65414 60.8517 7.65414H60.9981L60.9005 9.30856Z" fill="#A1A1AA"/>
<path d="M50.3609 4.92928C50.1657 5.12391 50.1169 5.36722 50.3121 5.99979C50.7513 7.65421 51.0929 8.82204 51.6785 10.7198C51.7273 10.9631 51.9225 11.4983 51.9225 11.4983L51.6785 11.5956L45.1393 7.60555C45.1393 7.60555 45.8713 10.0872 46.2129 11.1577C46.5057 12.1309 46.7009 12.3255 46.9449 12.3742C47.3353 12.4228 47.8721 12.3255 47.8721 12.3255L47.9209 12.4715L44.9441 13.3474L44.8953 13.2014C44.8953 13.2014 45.3833 13.0067 45.6761 12.7635C45.8713 12.6175 45.8713 12.2282 45.6761 11.4983C45.2857 9.98986 44.5049 7.21628 44.5049 7.21628C44.5049 7.21628 44.0657 6.92432 43.7241 6.827C43.3825 6.72968 43.1385 6.77834 42.8457 6.827L42.7969 6.68102L45.8225 5.80515L45.8713 5.95113C45.8713 5.95113 45.3833 6.14577 45.3345 6.43772C47.5305 7.84885 50.9465 9.79522 50.9465 9.79522C50.9465 9.79522 50.3121 7.70287 49.8241 6.24309C49.5313 5.36722 49.3849 5.22123 49.0433 5.17257C48.6529 5.17257 48.2137 5.22124 48.2137 5.22124L48.1649 5.07526L51.0929 4.24805L51.1417 4.39403C51.0929 4.49135 50.6049 4.68598 50.3609 4.92928Z" fill="#A1A1AA"/>
<path d="M73.3471 1.08459C73.0543 1.27923 72.8103 1.57118 72.4199 2.73901C71.7367 4.92869 70.9071 8.09155 70.9071 8.09155L70.6143 8.14022C70.6143 8.14022 70.4679 7.75094 70.3215 7.50764C69.4919 5.7559 68.1743 3.17695 68.1743 3.17695C68.1743 3.17695 67.3447 5.85322 66.6127 8.52949L66.3199 8.57815C66.3199 8.57815 66.1735 8.23754 66.0271 7.94558C65.2951 6.29116 64.5631 4.73405 63.8311 3.17695C63.5871 2.6417 63.3431 2.34973 63.0991 2.25241C62.6599 2.05778 62.1719 2.05778 62.1719 2.05778V1.9118L65.5391 1.57118V1.71716C65.2951 1.81448 64.7583 1.86314 64.8071 2.34974C64.8071 2.54438 64.9047 2.78767 65.0511 3.12829C65.3927 3.90684 65.8807 4.97735 66.6615 6.63177C67.1007 5.07467 67.8327 2.54437 67.8327 2.54437C67.5887 2.05778 67.4423 1.96046 67.1983 1.81448C66.8567 1.61984 66.4175 1.6685 66.4175 1.6685V1.52253L69.8335 1.13325V1.27923C69.5895 1.32789 68.8575 1.47387 68.9063 2.05778C68.9063 2.25242 69.0039 2.49572 69.1503 2.83633C69.7359 4.05282 70.2727 5.07467 70.9071 6.2425C70.9071 6.2425 71.4439 4.24746 71.7855 2.83633C71.9319 2.25242 71.9807 1.86314 71.9319 1.61985C71.8831 1.13325 71.3463 1.18191 71.0535 1.18191V1.03593L74.1279 0.695312V0.841292C74.1279 0.792633 73.6399 0.889952 73.3471 1.08459Z" fill="#A1A1AA"/>
<path d="M87.6447 1.32836C87.4007 1.42568 87.1567 1.62032 86.8151 2.10691C86.1319 3.0801 85.0583 4.73452 85.0583 4.73452C85.0095 4.97782 85.0095 5.3671 84.9607 5.70771C84.9607 6.04833 84.9119 6.34029 84.9119 6.58359C84.9119 7.02152 84.9119 7.36214 85.2047 7.55678C85.4487 7.70275 86.0831 7.80007 86.0831 7.80007V7.94605L82.4231 7.70276V7.55678C82.4231 7.55678 83.0575 7.55678 83.3503 7.45946C83.6431 7.36214 83.7407 7.07018 83.7895 6.53492C83.8383 5.90235 83.8871 5.02648 83.8871 5.02648C83.8871 5.02648 82.9599 2.93412 82.2767 1.71763C82.0327 1.2797 81.8375 1.0364 81.6911 0.939079C81.4471 0.7931 81.1055 0.695781 81.1055 0.695781V0.549805L84.1311 0.744444V0.89042C83.9359 0.89042 83.4479 0.939081 83.3991 1.2797C83.3991 1.42568 83.4479 1.62031 83.5943 2.00959C83.7895 2.39886 84.7655 4.34525 84.7655 4.34525C84.7655 4.34525 85.4975 3.27474 86.0343 2.20423C86.1807 1.91227 86.2783 1.66897 86.2783 1.523C86.3271 1.0364 85.7903 0.987741 85.5463 0.987741V0.841761L88.1815 1.0364V1.18238C88.2791 1.23104 87.9375 1.18238 87.6447 1.32836Z" fill="#A1A1AA"/>
<path d="M93.0614 8.87025C91.1582 8.52963 89.5478 6.77789 89.987 4.53956C90.3774 2.4472 92.3782 1.23071 94.5254 1.61999C96.5262 2.00926 98.039 3.71234 97.5998 5.90201C97.2094 8.09169 95.1598 9.25952 93.0614 8.87025ZM94.3302 2.00926C92.7198 1.7173 91.695 3.12843 91.4022 4.73419C91.0118 6.72923 91.8414 8.23767 93.3054 8.52963C94.9158 8.82159 95.9406 7.55644 96.2822 5.75604C96.575 4.0043 95.9406 2.30121 94.3302 2.00926Z" fill="#A1A1AA"/>
<path d="M106.529 11.1575C105.407 10.9142 104.528 10.379 104.04 9.21115C103.699 8.4326 103.65 7.75137 103.552 7.31344C103.211 7.26478 102.381 7.26478 102.381 7.26478C102.381 7.26478 102.186 8.1893 102.088 8.82188C102.04 9.21115 101.893 9.74641 102.332 9.98971C102.576 10.087 102.967 10.233 102.967 10.233L102.918 10.379L99.5508 9.64909L99.5996 9.50311C99.5996 9.50311 100.185 9.60043 100.429 9.45445C100.771 9.30847 100.82 8.9192 100.917 8.57858C101.015 8.1893 101.21 7.36209 101.405 6.53488C101.552 5.85365 101.698 5.02644 101.796 4.39387C101.893 3.71264 101.893 3.46934 101.747 3.2747C101.503 3.0314 101.015 2.88542 101.015 2.88542L101.064 2.73944C101.064 2.73944 102.82 3.08006 103.699 3.2747C105.309 3.61531 106.48 4.44252 106.188 5.65901C105.992 6.6322 105.065 6.92416 104.48 7.07014C104.48 7.07014 104.626 8.09199 105.358 9.35713C105.504 9.64909 105.944 10.233 106.334 10.5736C106.822 10.9629 107.359 11.1089 107.505 11.1575L107.456 11.3035C107.31 11.3035 106.871 11.2549 106.529 11.1575ZM103.162 3.56666L102.479 6.68086L103.552 7.02148C104.089 6.92416 104.772 6.48623 104.968 5.61036C105.26 4.34521 103.943 3.71264 103.162 3.56666Z" fill="#A1A1AA"/>
<path d="M109.461 11.9849L109.51 11.839C109.51 11.839 110.047 11.9363 110.339 11.9363C110.583 11.9363 110.779 11.7903 111.023 11.0604C111.267 10.4278 111.511 9.79526 111.755 8.96805C111.999 8.23816 112.194 7.65425 112.389 6.97301C112.487 6.6324 112.633 6.24312 112.438 5.99982C112.243 5.75653 111.706 5.51323 111.706 5.51323L111.755 5.36725L114.829 6.43776L114.78 6.58374C114.78 6.58374 114.341 6.43776 114.048 6.48642C113.755 6.53508 113.609 6.92435 113.414 7.31363C113.17 7.99486 112.975 8.48145 112.731 9.30866C112.438 10.1845 112.291 10.6711 112.047 11.4983C111.852 12.0823 111.852 12.3256 112.096 12.5689C112.291 12.7635 112.779 13.0068 112.779 13.0068L112.731 13.1528L109.461 11.9849ZM113.56 13.3474L113.609 13.2014C113.609 13.2014 114.097 13.3474 114.292 13.1528C114.292 12.9581 114.195 12.6175 114.097 12.5202C113.56 11.0117 112.926 9.64928 112.926 9.64928C113.755 9.16269 114.487 8.67609 115.268 8.09218C115.707 7.75156 115.903 7.55692 116 7.36228C116.098 7.07033 115.756 6.87569 115.463 6.72972L115.512 6.58374L118.44 7.55693L118.391 7.70291C118.147 7.65425 117.415 7.36229 116 8.14084C115.463 8.43279 114.39 9.11403 113.999 9.40599C114.487 10.7198 114.878 11.7903 115.219 12.5689C115.512 13.2987 115.756 13.6394 116.049 13.8827C116.244 14.0286 116.391 14.126 116.635 14.2233L116.586 14.3693L113.56 13.3474Z" fill="#A1A1AA"/>
</svg>
