<svg width="67" height="72" viewBox="0 0 67 72" fill="none" xmlns="http://www.w3.org/2000/svg">
<path d="M55.9373 38.88C52.5777 38.88 49.6033 40.5252 47.7704 43.0524L38.6097 37.5552C38.869 36.7812 39.013 35.9568 39.013 35.0964C39.013 30.8268 35.5453 27.36 31.271 27.36C28.9412 27.36 26.8563 28.3932 25.4375 30.0204L11.8512 21.9384C11.9485 21.5424 12.0061 21.1284 12.0061 20.7C12.0061 20.2176 11.9341 19.7532 11.8116 19.3068L26.4062 11.1996C27.6233 12.5028 29.3481 13.32 31.271 13.32C33.2443 13.32 35.0124 12.456 36.2331 11.0952L36.2295 11.1096L47.5004 17.7444C47.1331 18.72 46.935 19.7748 46.935 20.88C46.935 25.8516 50.9645 29.88 55.9373 29.88C60.9102 29.88 64.9396 25.8516 64.9396 20.88C64.9396 15.9084 60.9102 11.88 55.9373 11.88C52.9918 11.88 50.3775 13.2948 48.7355 15.48L37.9327 9.3384V9.36L37.479 9.0576C37.7671 8.3124 37.9327 7.506 37.9327 6.66C37.9327 2.9808 34.9512 0 31.271 0C27.5909 0 24.6093 2.9808 24.6093 6.66C24.6093 7.5096 24.775 8.316 25.063 9.0612L25.0558 9.054L10.8394 17.4168C9.88155 16.236 8.42317 15.48 6.78475 15.48C3.90041 15.48 1.56342 17.8164 1.56342 20.7C1.56342 23.5836 3.90041 25.92 6.78475 25.92C8.17471 25.92 9.43503 25.3728 10.3713 24.4872L24.0044 32.454C23.7019 33.282 23.529 34.1676 23.529 35.1C23.529 39.3732 26.9967 42.84 31.271 42.84C33.7305 42.84 35.9162 41.6916 37.335 39.9024L46.4849 45.45C46.078 46.5444 45.8548 47.7252 45.8548 48.96C45.8548 50.1264 46.0564 51.246 46.4201 52.29L38.1812 57.7008C36.5644 55.6668 34.0725 54.36 31.271 54.36C28.4299 54.36 25.9056 55.7028 24.2924 57.7872L13.1224 51.1884C13.3312 50.544 13.4465 49.8528 13.4465 49.14C13.4465 45.4608 10.4649 42.48 6.78475 42.48C3.10461 42.48 0.123047 45.4608 0.123047 49.14C0.123047 52.8192 3.10461 55.8 6.78475 55.8C8.87329 55.8 10.735 54.8388 11.9557 53.3376L22.9709 60.1884C22.6324 61.1244 22.4488 62.1288 22.4488 63.18C22.4488 68.0508 26.399 72 31.271 72C36.1431 72 40.0933 68.0508 40.0933 63.18C40.0933 62.028 39.87 60.93 39.4703 59.922L47.6552 54.7056C49.4773 57.3228 52.5057 59.04 55.9373 59.04C61.5044 59.04 66.0199 54.5256 66.0199 48.96C66.0199 43.3944 61.5044 38.88 55.9373 38.88Z" fill="#A1A1AA"/>
</svg>
