<svg width="130" height="51" viewBox="0 0 130 51" fill="none" xmlns="http://www.w3.org/2000/svg">
<path d="M45.7504 0.999514C46.7402 1.17165 47.7528 1.28641 48.7313 1.50445C50.9841 2.00938 52.9979 3.05368 54.8638 4.4193C55.6375 4.98161 55.6375 4.98161 56.3884 4.35044C56.9118 3.90289 57.4351 3.46681 58.0837 2.91597C58.0837 6.33575 58.0837 9.61783 58.0837 12.9229C57.31 13.1868 57.2645 13.1638 56.9914 12.3261C56.0812 9.45717 54.6021 6.94397 52.247 5.03899C47.3091 1.05689 40.1299 2.10119 36.2046 7.33415C34.5662 9.52602 33.7016 12.0392 33.4057 14.736C32.9165 19.1542 33.5764 23.3773 35.6812 27.3135C37.3993 30.5152 39.8454 32.9252 43.4294 33.8432C47.9576 35.0023 51.9512 33.9465 55.2393 30.5382C56.0812 29.666 56.798 28.6791 57.6058 27.7037C57.9926 27.9447 58.425 28.2086 58.8801 28.4955C58.7891 28.6562 58.7208 28.8053 58.6298 28.9316C56.286 32.535 53.2254 35.2433 48.9589 36.1498C42.1551 37.6073 36.125 36.1498 31.4147 30.7218C28.7978 27.7037 27.6714 24.0429 27.5235 20.0723C27.3415 15.4131 28.411 11.1097 31.3464 7.403C34.3273 3.63894 38.2526 1.59625 42.997 1.09132C43.1904 1.06837 43.3839 1.01099 43.5773 0.976562C44.3054 0.999514 45.0222 0.999514 45.7504 0.999514Z" fill="#A1A1AA"/>
<path d="M130 34.6353C129.931 34.7845 129.875 34.9337 129.806 35.0829C129.454 35.8977 128.669 36.3223 127.77 36.1501C126.962 36.0009 126.347 35.2435 126.336 34.3943C126.325 33.5566 126.916 32.7992 127.736 32.6156C128.577 32.4205 129.431 32.8566 129.783 33.6599C129.852 33.8091 129.92 33.9468 129.988 34.096C130 34.2681 130 34.4517 130 34.6353ZM129.681 34.4058C129.692 33.5796 129.01 32.8795 128.179 32.8566C127.337 32.8451 126.643 33.5107 126.621 34.337C126.598 35.1862 127.315 35.9206 128.145 35.9206C128.953 35.9321 129.67 35.2206 129.681 34.4058Z" fill="#A1A1AA"/>
<path d="M97.4141 3.27139C97.4141 2.77793 97.4141 2.33038 97.4141 1.82544C97.6302 1.81397 97.8237 1.80249 98.0171 1.80249C105.913 1.80249 113.809 1.80249 121.705 1.79102C122.126 1.79102 122.331 1.8943 122.502 2.30743C123.617 4.93538 124.766 7.54038 125.938 10.2142C125.721 10.3749 125.46 10.5815 125.198 10.788C125.153 10.8225 125.107 10.8569 125.062 10.8913C124.959 10.7307 124.868 10.547 124.743 10.3979C123.298 8.83715 121.876 7.27644 120.408 5.73869C119.043 4.30421 117.291 3.60419 115.356 3.51238C112.376 3.37467 109.395 3.35172 106.425 3.28287C106.368 3.28287 106.323 3.30582 106.209 3.32877C106.198 3.52386 106.175 3.7419 106.175 3.94846C106.175 8.1486 106.186 12.3602 106.163 16.5604C106.163 17.0997 106.323 17.2259 106.835 17.2145C108.746 17.1686 110.669 17.203 112.58 17.1456C114.924 17.0768 115.994 16.262 116.733 14.0357C117.006 13.2094 117.211 12.3602 117.45 11.511C117.814 11.511 118.178 11.511 118.542 11.511C118.542 15.998 118.542 20.4621 118.542 24.9492C118.189 24.9492 117.837 24.9492 117.439 24.9492C117.291 24.3524 117.154 23.7557 116.995 23.1704C116.21 20.2211 115.129 19.326 112.102 19.2227C110.157 19.1654 108.2 19.2113 106.209 19.2113C106.198 19.3834 106.163 19.5441 106.163 19.7047C106.175 23.1245 106.186 26.5443 106.22 29.9641C106.232 30.6297 106.323 31.3067 106.425 31.9723C106.607 33.1773 107.358 33.9117 108.53 34.0609C109.781 34.2216 111.044 34.3019 112.307 34.3363C113.934 34.3708 115.561 34.3478 117.188 34.2904C118.736 34.2445 120.044 33.5445 121.034 32.3969C122.57 30.6182 124.015 28.7476 125.494 26.9115C125.676 26.682 125.835 26.441 126.04 26.1656C126.381 26.3492 126.711 26.5213 127.064 26.7049C126.802 27.5083 126.541 28.2771 126.313 29.0575C125.687 31.169 125.073 33.2806 124.481 35.3921C124.379 35.7479 124.231 35.8511 123.89 35.8397C115.231 35.8282 106.573 35.8397 97.9147 35.8282C97.7554 35.8282 97.5961 35.8052 97.4141 35.7938C97.4141 35.3118 97.4141 34.8642 97.4141 34.3708C97.8692 34.3019 98.3129 34.2445 98.7452 34.1757C100.611 33.8658 101.226 33.1658 101.271 31.2608C101.328 28.7821 101.408 26.3148 101.408 23.836C101.419 18.6489 101.396 13.4619 101.362 8.27483C101.362 7.3912 101.271 6.49609 101.169 5.61245C101.043 4.44192 100.509 3.86813 99.3255 3.61567C98.7111 3.47796 98.0853 3.38615 97.4141 3.27139Z" fill="#A1A1AA"/>
<path d="M64.1677 1.76837C64.3157 1.76837 64.5204 1.76837 64.7139 1.76837C73.5997 1.76837 82.497 1.76837 91.3829 1.7569C91.8493 1.7569 92.02 1.91756 92.1452 2.34216C93.0326 5.19963 93.9542 8.0571 94.8872 10.9605C94.9099 10.9146 94.8985 10.9605 94.8758 10.972C93.9883 11.4539 94.0111 11.4425 93.3967 10.6621C92.0314 8.92926 90.6319 7.20789 89.2553 5.47505C88.0834 3.99468 86.5474 3.37498 84.6929 3.39793C83.43 3.40941 82.167 3.40941 80.9041 3.38646C80.5287 3.37498 80.4149 3.51269 80.4149 3.89139C80.4263 12.3949 80.4263 20.887 80.449 29.3906C80.449 30.2742 80.5514 31.1693 80.6311 32.053C80.7221 33.0055 81.2341 33.6711 82.167 33.8776C83.1569 34.0957 84.1581 34.2334 85.1593 34.3252C85.6713 34.3711 85.8761 34.5088 85.8079 35.0367C85.7737 35.2891 85.7965 35.5416 85.7965 35.817C80.5742 35.817 75.4088 35.817 70.2092 35.817C70.2092 35.3695 70.2092 34.9219 70.2092 34.4399C71.017 34.3711 71.8021 34.3252 72.5871 34.2334C73.0536 34.176 73.5087 34.0727 73.9638 33.9465C74.8399 33.717 75.3746 33.1432 75.4429 32.2136C75.5453 30.8136 75.6818 29.425 75.6932 28.025C75.716 20.0378 75.7046 12.0507 75.7046 4.05205C75.7046 3.85697 75.7046 3.66188 75.7046 3.44384C75.5112 3.42089 75.3974 3.39793 75.2722 3.39793C73.9297 3.39793 72.5985 3.42089 71.256 3.39793C69.2649 3.36351 67.6834 4.18976 66.466 5.73899C65.2031 7.36856 63.9402 9.03254 62.6659 10.6851C62.0629 11.4654 62.0743 11.4654 61.1641 10.949C62.1539 7.90792 63.1551 4.86683 64.1677 1.76837Z" fill="#A1A1AA"/>
<path d="M0.375459 35.817C0.250306 32.3972 0.125153 29.0348 0 25.6036C0.318572 25.5692 0.682654 25.5347 1.115 25.4888C1.25153 26.0511 1.36531 26.5905 1.50184 27.1299C2.46893 30.9284 4.71031 33.5448 8.49904 34.6924C10.5811 35.3236 12.6177 35.0826 14.5291 34.0153C18.2041 31.9497 19.0119 26.9348 16.1675 23.8019C15.3369 22.8838 14.3471 22.1838 13.198 21.7592C11.4572 21.1051 9.67093 20.5657 7.94154 19.8772C6.73551 19.3952 5.52949 18.8673 4.46 18.1558C1.70663 16.3197 0.648521 13.5999 0.830562 10.3523C1.13776 4.70618 5.6774 0.930645 11.5368 1.29787C13.5734 1.4241 15.4052 2.12413 17.1346 3.15695C17.4646 3.35204 17.6921 3.36351 17.9879 3.09957C18.4544 2.69792 18.955 2.35364 19.5239 1.91756C19.8993 5.23406 20.2521 8.47024 20.6161 11.7408C20.2521 11.8212 19.9221 11.9015 19.6035 11.9818C19.3191 11.1097 19.0688 10.2719 18.7616 9.45715C18.1245 7.75874 17.2825 6.1636 15.9513 4.91274C13.7555 2.83563 11.1614 2.30774 8.36251 3.30613C3.95939 4.87831 3.68633 10.1916 6.24628 12.9802C7.2475 14.0704 8.49904 14.7245 9.86434 15.2065C11.753 15.8721 13.6531 16.5033 15.5531 17.1574C15.7352 17.2263 15.9172 17.3066 16.0992 17.3869C19.8652 19.0853 21.9132 21.9428 21.9132 26.1544C21.9132 30.3431 20.0473 33.476 16.2927 35.2432C11.9351 37.2974 7.60021 37.0449 3.47016 34.4629C3.06056 34.1989 2.77612 34.1645 2.37791 34.4629C1.75214 34.9563 1.06949 35.358 0.375459 35.817Z" fill="#A1A1AA"/>
<path d="M65.9432 48.5433C65.9204 48.7384 65.9091 48.8761 65.8863 49.0367C65.7156 49.0367 65.5564 49.0367 65.3516 49.0367C65.3516 47.0514 65.3516 45.0891 65.3516 43.0693C65.5222 43.0693 65.6815 43.0693 65.9091 43.0693C65.9091 43.9644 65.9091 44.8366 65.9091 45.8235C66.5235 45.3301 67.1492 45.0546 67.8205 45.3186C68.2073 45.4678 68.6169 45.7088 68.8672 46.0301C69.4702 46.7875 69.3223 48.0154 68.6283 48.6695C67.9229 49.3466 66.9672 49.3122 65.9432 48.5433ZM67.2516 45.7891C66.4893 45.7891 65.9091 46.3858 65.9091 47.2006C65.9091 48.0039 66.4779 48.6121 67.2402 48.6236C68.0139 48.6236 68.5714 48.0269 68.5828 47.2121C68.5828 46.3858 68.0253 45.7891 67.2516 45.7891Z" fill="#A1A1AA"/>
<path d="M15.0391 43.0586C15.2325 43.0586 15.3804 43.0586 15.5966 43.0586C15.5966 43.9652 15.5966 44.8488 15.5966 45.8243C16.211 45.3193 16.8367 45.0554 17.508 45.3193C17.8948 45.4685 18.293 45.7095 18.5547 46.0308C19.1464 46.7653 19.0098 47.9702 18.3499 48.6243C17.6445 49.3358 16.6661 49.3129 15.6307 48.5325C15.6079 48.7047 15.5852 48.8539 15.5511 49.026C15.3918 49.026 15.2325 49.026 15.0391 49.026C15.0391 47.0522 15.0391 45.0898 15.0391 43.0586ZM18.2703 47.1784C18.2589 46.3636 17.6787 45.7784 16.905 45.7898C16.1427 45.8013 15.5738 46.4095 15.5852 47.2243C15.5966 48.0276 16.1882 48.6244 16.9505 48.6129C17.7128 48.6014 18.2817 47.9932 18.2703 47.1784Z" fill="#A1A1AA"/>
<path d="M29.149 49.0375C28.9214 49.0375 28.7621 49.0375 28.5801 49.0375C28.5573 48.8768 28.5346 48.7391 28.5118 48.544C27.6699 49.267 26.7938 49.4162 25.9177 48.7162C25.1896 48.1424 25.0303 46.9604 25.5195 46.1341C26.0998 45.1472 27.3285 44.975 28.5573 45.8128C28.5573 45.3078 28.5573 44.8718 28.5573 44.4357C28.5573 43.9881 28.5573 43.5406 28.5573 43.0586C28.7735 43.0586 28.9328 43.0586 29.1603 43.0586C29.1603 44.057 29.1603 45.0554 29.1603 46.0423C29.149 47.0292 29.149 48.0047 29.149 49.0375ZM28.5459 47.2243C28.5573 46.398 28.0112 45.8013 27.2375 45.7898C26.4639 45.7784 25.895 46.3636 25.8836 47.1784C25.8722 47.9932 26.4297 48.6014 27.192 48.6129C27.9657 48.6244 28.5346 48.0391 28.5459 47.2243Z" fill="#A1A1AA"/>
<path d="M85.1172 43.0586C85.2992 43.0586 85.4471 43.0586 85.6406 43.0586C85.6406 43.9537 85.6406 44.8373 85.6406 45.9046C86.346 45.239 87.0741 45.0669 87.8137 45.4111C88.1664 45.5718 88.5191 45.8816 88.7239 46.2144C89.2359 47.0177 89.0197 48.1538 88.3143 48.7506C87.5975 49.3703 86.6532 49.3129 85.7202 48.5555C85.6861 48.7276 85.6633 48.8768 85.6292 49.049C85.4813 49.049 85.322 49.049 85.1172 49.049C85.1172 47.0522 85.1172 45.0898 85.1172 43.0586ZM88.337 47.2128C88.337 46.4095 87.7682 45.8013 87.0059 45.7898C86.2436 45.7898 85.6633 46.3866 85.6633 47.2013C85.6633 48.0047 86.2322 48.6129 86.9945 48.6243C87.7568 48.6243 88.337 48.0161 88.337 47.2128Z" fill="#A1A1AA"/>
<path d="M60.1873 48.2224C59.2089 49.4388 57.3202 49.5421 56.1711 48.4978C54.9423 47.3731 54.8968 45.2731 56.0687 44.0911C57.1495 43.0009 58.9927 43.0009 60.0394 44.1485C59.8688 44.2747 59.7095 44.4009 59.5502 44.5272C58.5376 43.632 57.3316 43.655 56.4669 44.6649C55.6591 45.6174 55.7387 47.201 56.6262 48.0502C57.4909 48.8765 58.6627 48.8191 59.7209 47.8666C59.8688 47.9584 60.0167 48.0846 60.1873 48.2224Z" fill="#A1A1AA"/>
<path d="M75.6939 47.3846C74.7041 47.3846 73.7598 47.3846 72.7699 47.3846C72.7699 47.9355 73.0202 48.2912 73.4526 48.4863C74.0897 48.7847 74.6472 48.5552 75.1592 48.0732C75.2957 48.1765 75.4323 48.2797 75.5574 48.383C74.9658 49.1748 73.8622 49.3929 73.0202 48.9339C72.201 48.4863 71.8483 47.3617 72.2352 46.3977C72.5765 45.5255 73.5208 45.0665 74.4652 45.296C75.3299 45.5141 75.8077 46.2829 75.6939 47.3846ZM75.034 46.8453C75.0227 46.2026 74.67 45.8354 74.0556 45.7895C73.3615 45.7436 72.8837 46.1338 72.7927 46.8453C73.5322 46.8453 74.2831 46.8453 75.034 46.8453Z" fill="#A1A1AA"/>
<path d="M3.49243 49.1752C3.23074 49.0145 3.02595 48.8883 2.77564 48.7276C2.42294 49.0948 1.88819 49.244 1.28518 49.1178C0.727679 49.003 0.374975 48.6473 0.329465 48.1538C0.283955 47.603 0.534261 47.1784 1.09176 46.9833C1.3762 46.88 1.68339 46.8226 1.99059 46.7882C2.27503 46.7538 2.55947 46.7767 3.03732 46.7767C2.85528 46.4325 2.7984 46.1111 2.60498 45.9849C2.01334 45.5833 1.44447 45.8242 0.841455 46.1915C0.739057 46.0882 0.625281 45.9734 0.511506 45.8587C1.14865 45.216 2.24089 45.0095 2.87804 45.4685C3.17385 45.6865 3.42416 46.1226 3.45829 46.4898C3.54931 47.3046 3.49243 48.1538 3.49243 49.1752ZM2.88942 47.2013C2.35467 47.2817 1.84268 47.2932 1.38758 47.4423C1.20554 47.4997 0.977986 47.8784 1.01212 48.062C1.05763 48.2801 1.33069 48.5555 1.54686 48.6129C2.35467 48.8309 2.92355 48.2686 2.88942 47.2013Z" fill="#A1A1AA"/>
<path d="M47.515 49.1516C46.3431 49.1631 45.5353 48.3942 45.5239 47.2467C45.5012 46.0647 46.2976 45.2499 47.4695 45.2384C48.6527 45.2269 49.4719 46.0302 49.4606 47.2008C49.4606 48.3598 48.6755 49.1402 47.515 49.1516ZM48.8234 47.1893C48.8234 46.3745 48.2659 45.7778 47.4922 45.7892C46.7186 45.7892 46.1724 46.386 46.1724 47.2122C46.1724 48.0385 46.7413 48.6238 47.5036 48.6238C48.2659 48.6123 48.8234 48.0155 48.8234 47.1893Z" fill="#A1A1AA"/>
<path d="M64.0903 49.163C63.8286 49.0023 63.6238 48.8876 63.3621 48.7269C63.0094 49.1056 62.4519 49.2548 61.8261 49.1056C61.3369 48.9908 60.9728 48.7154 60.9273 48.1531C60.8818 47.5908 61.1207 47.1547 61.6782 46.9826C62.0651 46.8563 62.486 46.8219 62.8956 46.7645C63.0891 46.7416 63.2825 46.7645 63.4759 46.7645C63.4418 45.7202 62.6908 45.5137 61.3938 46.1678C61.3028 46.076 61.189 45.9727 61.0752 45.8809C61.1662 45.7547 61.189 45.6973 61.2345 45.6743C61.6669 45.5252 62.0992 45.2956 62.5429 45.2612C63.5669 45.1924 64.0448 45.6858 64.0675 46.7072C64.0789 47.0859 64.0675 47.476 64.0675 47.8547C64.0903 48.2334 64.0903 48.6121 64.0903 49.163ZM63.4759 47.2351C63.0208 47.281 62.5543 47.281 62.1106 47.3728C61.7693 47.4416 61.5303 47.6826 61.5758 48.0728C61.6213 48.4744 61.8944 48.6121 62.2585 48.6466C63.0435 48.7154 63.5214 48.222 63.4759 47.2351Z" fill="#A1A1AA"/>
<path d="M32.3915 45.7666C33.0627 45.2272 33.7909 45.1239 34.5532 45.3649C35.1335 45.5485 35.3383 46.0305 35.3496 46.6043C35.361 47.3961 35.3496 48.1994 35.3496 49.0372C35.0538 49.106 34.7694 49.1634 34.7921 48.5896C34.2688 49.106 33.6999 49.2896 33.0627 49.1175C32.5735 48.9798 32.2208 48.7044 32.1867 48.142C32.1525 47.5797 32.4028 47.1781 32.9262 47.0059C33.3017 46.8797 33.6999 46.8453 34.0867 46.7879C34.2915 46.765 34.5077 46.7879 34.7239 46.7879C34.7352 46.1453 34.5191 45.8469 33.9729 45.8239C33.6658 45.8125 33.313 45.8698 33.04 46.019C32.7214 46.1682 32.5507 46.1338 32.3915 45.7666ZM34.7466 47.201C34.2005 47.2814 33.6999 47.2928 33.2334 47.442C33.0514 47.5109 32.8466 47.8896 32.8693 48.1191C32.8807 48.3027 33.1879 48.5666 33.3927 48.6126C34.2119 48.8191 34.7694 48.2683 34.7466 47.201Z" fill="#A1A1AA"/>
<path d="M83.3421 46.6277C83.1942 46.3982 83.0918 46.0654 82.8756 45.9392C82.3181 45.6064 81.7606 45.8244 81.2259 46.1572C81.1121 46.0539 80.9983 45.9507 80.8846 45.8474C80.9301 45.7785 80.9415 45.7211 80.9756 45.6867C81.4876 45.2621 82.0792 45.1818 82.7164 45.2621C83.3876 45.3539 83.7745 45.7211 83.82 46.4097C83.8655 47.2589 83.8314 48.1081 83.8314 49.1065C83.6152 49.0032 83.399 48.9114 83.1032 48.7737C82.7277 49.1295 82.1361 49.2901 81.4648 49.0721C81.0097 48.9229 80.7253 48.636 80.6911 48.1311C80.657 47.6261 80.8618 47.213 81.3283 47.0409C81.7151 46.9031 82.1247 46.8458 82.5343 46.7769C82.7619 46.7425 82.9894 46.7654 83.2283 46.7654C83.2625 46.7195 83.2966 46.6736 83.3421 46.6277ZM83.2397 47.2359C82.7619 47.2819 82.3181 47.2819 81.8858 47.3622C81.5217 47.431 81.26 47.6835 81.3283 48.0966C81.3852 48.4868 81.6696 48.613 82.0337 48.6475C82.8074 48.7048 83.2511 48.2343 83.2397 47.2359Z" fill="#A1A1AA"/>
<path d="M39.1827 50.4487C40.1612 50.4487 40.7301 49.5765 40.3432 48.6355C39.9109 47.5568 39.4672 46.4895 39.0234 45.3993C39.4899 45.2387 39.7402 45.3534 39.8881 45.824C40.1612 46.6043 40.4911 47.3732 40.8552 48.3027C41.2079 47.3732 41.5265 46.6043 41.7996 45.8125C41.9361 45.3993 42.1409 45.2502 42.6074 45.3993C42.414 45.9158 42.2092 46.4322 42.0157 46.9601C41.5948 48.0273 41.1852 49.0831 40.7642 50.1503C40.548 50.6897 40.184 51.0225 39.5809 50.9995C39.1145 50.9881 39.0803 50.9307 39.1827 50.4487Z" fill="#A1A1AA"/>
<path d="M13.1295 45.3764C13.3912 45.3764 13.5391 45.3764 13.7325 45.3764C13.7325 46.5928 13.7325 47.7863 13.7325 48.9913C13.2774 49.0831 13.2774 49.0831 13.1864 48.6929C12.8109 48.8421 12.4354 49.0946 12.0258 49.1405C11.1498 49.2552 10.5809 48.7618 10.5354 47.8781C10.4899 47.0633 10.524 46.2486 10.524 45.3879C10.7174 45.3764 10.8881 45.3649 11.1156 45.3535C11.1156 46.0879 11.1156 46.7765 11.1156 47.465C11.1156 48.2224 11.3659 48.5667 11.9007 48.6241C12.5265 48.6814 13.0498 48.2683 13.0953 47.5568C13.1636 46.8453 13.1295 46.1338 13.1295 45.3764Z" fill="#A1A1AA"/>
<path d="M76.9453 49.0252C76.9453 47.1547 76.9453 45.3186 76.9453 43.4365C77.1501 43.4365 77.3208 43.4365 77.5483 43.4365C77.5483 45.089 77.5483 46.7415 77.5483 48.4514C78.4244 48.4514 79.2436 48.4514 80.0969 48.4514C80.0969 48.681 80.0969 48.8301 80.0969 49.0138C79.0502 49.0252 78.0148 49.0252 76.9453 49.0252Z" fill="#A1A1AA"/>
<path d="M90.0652 48.1195C90.4861 48.4982 90.9071 48.7621 91.4191 48.5326C91.6125 48.4408 91.8287 48.1998 91.8628 48.0047C91.8856 47.8556 91.6353 47.6146 91.4532 47.5228C91.1346 47.3736 90.7592 47.3277 90.4179 47.2129C90.0424 47.0867 89.7352 46.8227 89.8035 46.4211C89.8604 46.0883 90.0424 45.6752 90.3041 45.4801C90.964 44.9981 91.8742 45.2046 92.3748 45.8817C92.2383 45.985 92.1017 46.0883 91.9766 46.203C91.9766 46.1457 91.9766 46.0998 91.9766 46.0424C91.5898 45.9735 91.2143 45.8588 90.8275 45.8588C90.6796 45.8588 90.4406 46.1112 90.4179 46.2719C90.4065 46.4096 90.6113 46.6506 90.7706 46.7194C91.055 46.8572 91.3963 46.8916 91.7035 46.9834C92.2041 47.1211 92.5227 47.4309 92.5227 47.9933C92.5341 48.5211 92.2496 48.9113 91.6921 49.0605C90.9412 49.2671 90.2244 49.2212 89.6328 48.5097C89.7807 48.3949 89.9059 48.2802 90.0652 48.1195Z" fill="#A1A1AA"/>
<path d="M19.5938 48.4636C19.753 48.3489 19.8782 48.2571 20.0033 48.1538C20.0033 48.2112 19.992 48.2571 19.992 48.3145C20.4243 48.3948 20.868 48.544 21.3004 48.544C21.471 48.544 21.7441 48.2341 21.7896 48.0276C21.8124 47.8899 21.5507 47.6144 21.3573 47.5226C21.0501 47.3734 20.6632 47.3849 20.3902 47.2128C20.1285 47.0521 19.7985 46.7538 19.7872 46.4898C19.7644 46.1685 19.9578 45.7324 20.2081 45.5258C20.8225 45.0094 21.801 45.193 22.3471 45.8816C22.2106 45.9849 22.0854 46.0996 21.9489 46.2029C21.9489 46.157 21.9489 46.1111 21.9489 46.0537C21.5507 45.9849 21.1525 45.8701 20.7543 45.8701C20.6177 45.8701 20.4016 46.1341 20.3788 46.3062C20.356 46.421 20.5608 46.6505 20.7201 46.7193C21.0273 46.857 21.38 46.9029 21.71 46.9947C22.1878 47.1439 22.4837 47.4423 22.495 47.9702C22.495 48.5095 22.2333 48.8538 21.7327 49.0374C20.9135 49.3473 20.1057 49.1407 19.5938 48.4636Z" fill="#A1A1AA"/>
<path d="M52.3493 45.376C52.4289 46.1793 51.7577 45.6514 51.4846 45.9727C51.4846 46.9137 51.4846 47.9465 51.4846 49.0253C51.2684 49.0367 51.0978 49.0482 50.8702 49.0712C50.8702 47.981 50.8702 46.9367 50.8702 45.8809C50.5744 45.8465 50.3469 45.8235 50.1193 45.8006C49.96 45.0661 50.5858 45.4907 50.8816 45.1924C50.8816 44.9284 50.8588 44.5612 50.8816 44.1825C50.9499 43.3218 51.405 42.8972 52.2014 42.9316C52.5996 42.9546 52.5996 42.9546 52.5541 43.4366C51.4505 43.5628 51.3367 43.7464 51.5187 45.3071C51.7577 45.3301 52.0194 45.353 52.3493 45.376Z" fill="#A1A1AA"/>
<path d="M6.69141 48.4748C6.81656 48.3601 6.95309 48.2568 7.08962 48.142C7.08962 48.1994 7.08962 48.2683 7.08962 48.3256C7.52197 48.406 7.95432 48.5551 8.38666 48.5437C8.55733 48.5437 8.83039 48.2223 8.8759 48.0158C8.89865 47.8781 8.62559 47.6141 8.43217 47.5108C8.14773 47.3731 7.80641 47.3387 7.49921 47.2354C7.11238 47.1092 6.83931 46.8682 6.81656 46.4207C6.7938 45.9731 6.97584 45.6518 7.36268 45.4337C8.06809 45.0436 8.89865 45.2042 9.41064 45.8698C9.26274 45.9846 9.1262 46.0993 8.98967 46.2026C8.98967 46.1567 8.98967 46.0993 8.98967 46.0534C8.59146 45.9846 8.19324 45.8813 7.79503 45.8813C7.6585 45.8813 7.44233 46.1452 7.40819 46.3174C7.38544 46.4321 7.60161 46.6502 7.7609 46.719C8.06809 46.8567 8.4208 46.9026 8.75074 47.0059C9.2286 47.1551 9.52442 47.4535 9.52442 47.9928C9.52442 48.5437 9.25136 48.8765 8.76212 49.0601C7.95432 49.347 7.14651 49.1289 6.69141 48.4748Z" fill="#A1A1AA"/>
<path d="M70.4062 43.0468C70.5769 43.0468 70.7248 43.0468 70.9069 43.0468C70.9069 45.0321 70.9069 47.006 70.9069 49.0142C70.759 49.0257 70.5997 49.0372 70.4062 49.0601C70.4062 47.0519 70.4062 45.0895 70.4062 43.0468Z" fill="#A1A1AA"/>
<path d="M37.1718 45.7203C37.6497 45.5252 38.0934 45.3416 38.6736 45.1006C38.6509 45.4678 38.6509 45.6514 38.6395 45.8236C37.5359 45.9039 37.2287 46.2482 37.2059 47.3384C37.1946 47.9007 37.2059 48.4515 37.2059 49.0368C37.0011 49.0368 36.8532 49.0368 36.6484 49.0368C36.6484 47.8203 36.6484 46.6383 36.6484 45.399C36.9329 45.3186 37.2401 45.2153 37.1718 45.7203Z" fill="#A1A1AA"/>
<path d="M31.0156 49.0371C30.8335 49.0371 30.6742 49.0371 30.4922 49.0371C30.4922 47.8207 30.4922 46.6157 30.4922 45.3763C30.6629 45.3649 30.8108 45.3649 31.0156 45.3534C31.0156 46.5813 31.0156 47.7748 31.0156 49.0371Z" fill="#A1A1AA"/>
<path d="M24.0517 49.0368C23.8811 49.0368 23.7332 49.0368 23.5625 49.0368C23.5625 47.8203 23.5625 46.6383 23.5625 45.3875C23.699 45.376 23.8469 45.353 24.0517 45.3301C24.0517 46.5695 24.0517 47.7859 24.0517 49.0368Z" fill="#A1A1AA"/>
<path d="M23.79 44.4927C23.5966 44.1714 23.4032 43.9878 23.4145 43.8271C23.4259 43.678 23.699 43.414 23.79 43.4484C23.9607 43.4943 24.1882 43.7009 24.211 43.8616C24.2337 44.0107 24.0062 44.1829 23.79 44.4927Z" fill="#A1A1AA"/>
<path d="M30.72 44.493C30.538 44.1717 30.3446 43.9881 30.3559 43.8274C30.3673 43.6782 30.6404 43.4258 30.7428 43.4487C30.9134 43.4946 31.141 43.7012 31.1638 43.8733C31.1751 44.011 30.9476 44.1832 30.72 44.493Z" fill="#A1A1AA"/>
<path d="M129.682 34.4055C129.671 35.2203 128.954 35.9318 128.146 35.9318C127.304 35.9318 126.599 35.1859 126.622 34.3481C126.644 33.5104 127.338 32.8448 128.18 32.8678C129.011 32.8678 129.694 33.5678 129.682 34.4055ZM127.555 33.3612C127.555 34.0842 127.555 34.7268 127.555 35.381C127.611 35.3924 127.668 35.4039 127.725 35.4039C127.782 35.117 127.828 34.8416 127.907 34.417C128.26 34.8186 128.522 35.1285 128.795 35.4498C128.84 35.4154 128.874 35.381 128.92 35.3465C128.783 35.0941 128.658 34.8531 128.51 34.5777C128.909 34.3826 129.091 34.0498 128.886 33.6825C128.579 33.1317 128.032 33.3957 127.555 33.3612Z" fill="#A1A1AA"/>
<path d="M127.555 33.3612C128.033 33.4072 128.579 33.1317 128.886 33.6826C129.091 34.0498 128.909 34.3826 128.51 34.5777C128.658 34.8531 128.783 35.0941 128.92 35.3466C128.874 35.381 128.84 35.4154 128.795 35.4498C128.522 35.14 128.249 34.8187 127.907 34.417C127.828 34.8416 127.771 35.1285 127.725 35.4039C127.668 35.3925 127.612 35.381 127.555 35.381C127.555 34.7269 127.555 34.0727 127.555 33.3612ZM127.805 33.5449C127.828 33.8891 127.839 34.0498 127.851 34.3023C128.135 34.2219 128.351 34.176 128.556 34.0957C128.601 34.0727 128.601 33.8318 128.567 33.8203C128.362 33.717 128.135 33.6596 127.805 33.5449Z" fill="#A1A1AA"/>
<path d="M127.805 33.5449C128.135 33.6596 128.362 33.717 128.567 33.8088C128.601 33.8203 128.59 34.0727 128.556 34.0842C128.351 34.176 128.135 34.2105 127.85 34.2908C127.839 34.0498 127.827 33.8891 127.805 33.5449Z" fill="#A1A1AA"/>
</svg>
