<svg width="192" height="32" viewBox="0 0 192 32" fill="none" xmlns="http://www.w3.org/2000/svg">
<path fill-rule="evenodd" clip-rule="evenodd" d="M22.7232 30.2839C20.1816 28.6754 18.3083 23.1247 18.3083 16.5283C18.3083 16.2863 18.3094 16.0473 18.3154 15.8093L18.3174 15.8124C11.2468 14.69 6.1385 11.615 6.00708 7.97718L5.98686 8.02007C4.25712 10.1923 3.26942 12.7036 3.26942 15.3794C3.26942 23.2534 11.8251 29.7048 22.6777 30.2757L22.7232 30.2839ZM0 15.9533C0 7.14381 10.8536 0 24.2416 0C37.6307 0 48.4842 7.14381 48.4842 15.9533C48.4842 24.7639 37.6307 31.9077 24.2416 31.9077C10.8536 31.9077 0 24.7639 0 15.9533ZM24.2426 2.30195C26.8276 2.30195 29.0265 6.26348 29.8413 11.7906L29.8433 11.7814C34.8728 10.991 38.3929 9.16696 38.3929 7.04373C38.3929 4.19539 32.0573 1.88834 24.2426 1.88834C16.429 1.88834 10.0933 4.19539 10.0933 7.04373C10.0933 9.16696 13.6135 10.9899 18.642 11.7814L18.645 11.7906C19.4598 6.26348 21.6586 2.30195 24.2426 2.30195ZM25.8076 30.2747C36.6602 29.7038 45.2168 23.2524 45.2168 15.3784C45.2168 12.7026 44.2281 10.1913 42.4994 8.01905L42.4782 7.97615C42.3478 11.6139 37.2394 14.689 30.1678 15.8114L30.1709 15.8083C30.1759 16.0463 30.1779 16.2852 30.1779 16.5273C30.1779 23.1237 28.3036 28.6743 25.7631 30.2828L25.8076 30.2747ZM24.2426 12.2001C25.3647 12.2015 26.4862 12.1531 27.604 12.0551L27.603 12.0561C27.0672 8.51436 25.7651 6.01326 24.2436 6.01326C22.7222 6.01326 21.4211 8.51436 20.8842 12.0561L20.8832 12.0551C22.0004 12.1526 23.1213 12.201 24.2426 12.2001ZM24.2426 25.3194C26.1887 25.3194 27.7769 21.2282 27.8608 16.0983L27.8709 16.1014C25.4575 16.326 23.0288 16.326 20.6153 16.1014L20.6254 16.0983C20.7094 21.2282 22.2965 25.3194 24.2426 25.3194ZM123.702 15.9533C123.702 9.22006 129.107 3.76033 135.772 3.76033C142.44 3.76033 147.844 9.22006 147.844 15.9533C147.844 22.6886 142.439 28.1463 135.772 28.1463C129.107 28.1463 123.702 22.6886 123.702 15.9533ZM135.772 23.6752C139.494 23.6752 142.513 20.2172 142.513 15.9523C142.513 11.6885 139.494 8.23045 135.772 8.23045C132.05 8.23045 129.033 11.6885 129.033 15.9523C129.033 20.2182 132.051 23.6752 135.772 23.6752ZM161.54 8.84015V27.5928H156.453V8.84015H156.471H149.359V4.60084H168.634V8.84015H161.54ZM174.787 22.42L174.782 22.4251L172.831 27.5938H166.89L176.281 4.60084H182.611L192 27.5938H186.061L184.11 22.4251L184.103 22.42H174.787ZM179.446 18.5392H182.647L182.645 18.5402L179.467 10.1249H179.424L176.246 18.5402L176.244 18.5392H179.446ZM67.7914 8.84015V27.5928H62.7053V8.84015H62.7235H55.6104V4.60084H74.8863V8.84015H67.7914ZM76.1874 15.9533C76.1874 9.22006 81.5919 3.76033 88.2591 3.76033C94.9254 3.76033 100.33 9.22006 100.33 15.9533C100.33 22.6886 94.9254 28.1463 88.2591 28.1463C81.5919 28.1463 76.1874 22.6886 76.1874 15.9533ZM88.2591 23.6752C91.9805 23.6752 94.9992 20.2172 94.9992 15.9523C94.9992 11.6885 91.9805 8.23045 88.2591 8.23045C84.5368 8.23045 81.5191 11.6885 81.5191 15.9523C81.5191 20.2182 84.5368 23.6752 88.2591 23.6752ZM112.014 27.5928H114.593V18.8629L123.467 4.60084H117.527L112.014 14.2652L106.504 4.60084H100.564L109.437 18.8629V27.5928H112.014Z" fill="#A1A1AA"/>
</svg>
