<svg width="141" height="30" viewBox="0 0 141 30" fill="none" xmlns="http://www.w3.org/2000/svg">
<path d="M12.8868 0.576172H19.3117V21.531C19.3117 22.8369 19.1142 24.0135 18.7192 25.0606C18.3365 26.0831 17.7749 26.9578 17.0343 27.6846C16.306 28.3991 15.4234 28.9472 14.3865 29.3293C13.3373 29.6988 12.1585 29.8835 10.85 29.8835H9.29471C7.99862 29.8835 6.82595 29.6988 5.77673 29.3293C4.73987 28.9472 3.8511 28.3991 3.11047 27.6846C2.38219 26.9578 1.82671 26.0831 1.44406 25.0606C1.04906 24.0135 0.851562 22.8369 0.851562 21.531V0.576172H7.2765V21.5497C7.2765 22.4735 7.474 23.1141 7.86901 23.4713C8.25166 23.804 8.8997 23.9704 9.81315 23.9704H10.3501C11.2635 23.9704 11.9054 23.804 12.2757 23.4713C12.6831 23.1141 12.8868 22.4735 12.8868 21.5497V0.576172ZM35.6774 15.0266C36.2204 15.0266 36.6524 14.9773 36.9733 14.8787C37.3066 14.7802 37.5659 14.62 37.7512 14.3983C37.9239 14.1765 38.0474 13.8871 38.1215 13.5298C38.1831 13.2095 38.214 12.7783 38.214 12.2363V9.27967C38.214 8.73763 38.1831 8.30645 38.1215 7.98616C38.0474 7.62889 37.9239 7.33941 37.7512 7.11765C37.5659 6.89592 37.3066 6.73576 36.9733 6.63721C36.6524 6.53865 36.2204 6.48938 35.6774 6.48938H32.6224V15.0266H35.6774ZM26.1974 29.477V0.576172H36.1958C38.9361 0.576172 41.0345 1.3461 42.4912 2.88601C43.923 4.40128 44.6389 6.5325 44.6389 9.27967V12.2363C44.6389 14.9835 43.923 17.1146 42.4912 18.63C41.0345 20.1697 38.9361 20.9399 36.1958 20.9399H32.6224V29.477H26.1974ZM56.5979 23.5637H66.1335V29.477H50.173V0.576172H56.5979V23.5637ZM79.4069 18.7408H82.7027L81.0548 10.0558L79.4069 18.7408ZM84.1839 24.6541H77.9257L76.7221 29.477H70.1121L78.0182 0.576172H84.1099L91.9977 29.477H85.406L84.1839 24.6541ZM108.382 14.4907V0.576172H114.807V29.477H108.623L102.772 15.5625V29.477H96.3467V0.576172H102.531L108.382 14.4907ZM121.692 0.576172H130.913C133.826 0.576172 136.06 1.22908 137.616 2.53492C139.295 3.9393 140.134 6.07052 140.134 8.92858V21.1245C140.134 23.9827 139.295 26.1138 137.616 27.5182C136.06 28.8241 133.826 29.477 130.913 29.477H121.692V0.576172ZM128.117 6.48938V23.5637H130.913C131.432 23.5637 131.845 23.5329 132.154 23.4713C132.524 23.4098 132.82 23.299 133.042 23.1387C133.265 22.954 133.431 22.7076 133.542 22.3996C133.653 22.0793 133.709 21.6605 133.709 21.143V8.91009C133.709 8.39269 133.653 7.97385 133.542 7.65354C133.431 7.34556 133.265 7.09918 133.042 6.91438C132.82 6.75425 132.524 6.64336 132.154 6.58176C131.845 6.52018 131.432 6.48938 130.913 6.48938H128.117Z" fill="#A1A1AA"/>
</svg>
