<svg width="19" height="15" viewBox="0 0 19 15" fill="none" xmlns="http://www.w3.org/2000/svg">
<path d="M4.70455 14.1598C3.95881 14.1598 3.28338 13.968 2.67827 13.5845C2.07741 13.1967 1.60014 12.6278 1.24645 11.8778C0.897017 11.1236 0.722301 10.1989 0.722301 9.10369C0.722301 7.97869 0.903409 7.04332 1.26562 6.29759C1.62784 5.54759 2.10938 4.98722 2.71023 4.61648C3.31534 4.24148 3.97798 4.05398 4.69815 4.05398C5.24787 4.05398 5.70597 4.14773 6.07244 4.33523C6.44318 4.51847 6.74148 4.74858 6.96733 5.02557C7.19744 5.2983 7.37216 5.56676 7.49148 5.83097H7.57457V0.909091H10.2912V14H7.60653V12.4276H7.49148C7.36364 12.7003 7.18253 12.9709 6.94815 13.2393C6.71804 13.5036 6.41761 13.723 6.04688 13.8977C5.6804 14.0724 5.23295 14.1598 4.70455 14.1598ZM5.56747 11.9929C6.00639 11.9929 6.37713 11.8736 6.67969 11.6349C6.98651 11.392 7.22088 11.0533 7.38281 10.6186C7.54901 10.1839 7.6321 9.67472 7.6321 9.09091C7.6321 8.5071 7.55114 8 7.3892 7.5696C7.22727 7.1392 6.9929 6.80682 6.68608 6.57244C6.37926 6.33807 6.00639 6.22088 5.56747 6.22088C5.12003 6.22088 4.7429 6.34233 4.43608 6.58523C4.12926 6.82812 3.89702 7.16477 3.73935 7.59517C3.58168 8.02557 3.50284 8.52415 3.50284 9.09091C3.50284 9.66193 3.58168 10.1669 3.73935 10.6058C3.90128 11.0405 4.13352 11.3814 4.43608 11.6286C4.7429 11.8714 5.12003 11.9929 5.56747 11.9929ZM12.53 14V4.18182H15.1699V5.89489H15.2722C15.4512 5.28551 15.7516 4.82528 16.1735 4.5142C16.5953 4.19886 17.0811 4.04119 17.6309 4.04119C17.7672 4.04119 17.9142 4.04972 18.0719 4.06676C18.2296 4.08381 18.3681 4.10724 18.4874 4.13707V6.55327C18.3596 6.51491 18.1827 6.48082 17.9569 6.45099C17.731 6.42116 17.5243 6.40625 17.3368 6.40625C16.9363 6.40625 16.5783 6.49361 16.263 6.66832C15.9519 6.83878 15.7047 7.07741 15.5215 7.38423C15.3425 7.69105 15.253 8.04474 15.253 8.44531V14H12.53Z" fill="#52525B"/>
</svg>
