<svg width="15" height="14" viewBox="0 0 15 14" fill="none" xmlns="http://www.w3.org/2000/svg">
<path d="M2.80966 0.909091V14H0.0866478V0.909091H2.80966ZM7.71396 8.32386V14H4.99094V4.18182H7.58612V5.91406H7.70117C7.9185 5.34304 8.28285 4.89133 8.79421 4.55895C9.30558 4.2223 9.9256 4.05398 10.6543 4.05398C11.3361 4.05398 11.9306 4.20312 12.4377 4.50142C12.9448 4.79972 13.339 5.22585 13.6202 5.77983C13.9015 6.32955 14.0421 6.9858 14.0421 7.74858V14H11.3191V8.23438C11.3233 7.63352 11.1699 7.16477 10.8588 6.82812C10.5478 6.48722 10.1195 6.31676 9.57404 6.31676C9.20756 6.31676 8.8837 6.3956 8.60245 6.55327C8.32546 6.71094 8.10813 6.94105 7.95046 7.24361C7.79705 7.5419 7.71822 7.90199 7.71396 8.32386Z" fill="#52525B"/>
</svg>
