<svg width="24" height="24" viewBox="0 0 24 24" fill="none" xmlns="http://www.w3.org/2000/svg">
<path d="M16.9293 8.33935L17.1 8.16845V8.41003V14C17.1 14.4955 17.4959 14.9 18 14.9C18.4948 14.9 18.9 14.4948 18.9 14V6.00003C18.9 5.50526 18.4948 5.10003 18 5.10003H10C9.50524 5.10003 9.10001 5.50526 9.10001 6.00003C9.10001 6.4948 9.50524 6.90003 10 6.90003H15.59H15.8313L15.6608 7.07071L4.78075 17.9607L4.78072 17.9607C4.42977 18.3117 4.42977 18.8784 4.78072 19.2293C5.13166 19.5803 5.69832 19.5803 6.04927 19.2294C6.04928 19.2293 6.04929 19.2293 6.0493 19.2293L16.9293 8.33935Z" fill="#4B5563" stroke="white" stroke-width="0.2"/>
</svg>
