<svg width="18" height="15" viewBox="0 0 18 15" fill="none" xmlns="http://www.w3.org/2000/svg">
<path d="M6.36648 4.18182V6.22727H0.306818V4.18182H6.36648ZM1.69389 14V3.4723C1.69389 2.76065 1.83239 2.17045 2.10938 1.7017C2.39062 1.23295 2.77415 0.881391 3.25994 0.647016C3.74574 0.412641 4.29759 0.295454 4.91548 0.295454C5.3331 0.295454 5.71449 0.327414 6.05966 0.391335C6.40909 0.455255 6.66903 0.512784 6.83949 0.56392L6.35369 2.60938C6.24716 2.57528 6.11506 2.54332 5.95739 2.51349C5.80398 2.48366 5.64631 2.46875 5.48438 2.46875C5.08381 2.46875 4.80469 2.5625 4.64702 2.75C4.48935 2.93324 4.41051 3.19105 4.41051 3.52344V14H1.69389ZM8.08114 14V0.909091H10.8042V5.83097H10.8873C11.0066 5.56676 11.1792 5.2983 11.405 5.02557C11.6351 4.74858 11.9334 4.51847 12.2999 4.33523C12.6706 4.14773 13.1309 4.05398 13.6806 4.05398C14.3965 4.05398 15.057 4.24148 15.6621 4.61648C16.2672 4.98722 16.7509 5.54759 17.1131 6.29759C17.4753 7.04332 17.6564 7.97869 17.6564 9.10369C17.6564 10.1989 17.4796 11.1236 17.1259 11.8778C16.7765 12.6278 16.2992 13.1967 15.6941 13.5845C15.0932 13.968 14.4199 14.1598 13.6742 14.1598C13.1458 14.1598 12.6962 14.0724 12.3255 13.8977C11.959 13.723 11.6586 13.5036 11.4242 13.2393C11.1898 12.9709 11.0108 12.7003 10.8873 12.4276H10.7658V14H8.08114ZM10.7466 9.09091C10.7466 9.67472 10.8276 10.1839 10.9895 10.6186C11.1515 11.0533 11.3858 11.392 11.6926 11.6349C11.9995 11.8736 12.3723 11.9929 12.8113 11.9929C13.2544 11.9929 13.6294 11.8714 13.9363 11.6286C14.2431 11.3814 14.4753 11.0405 14.633 10.6058C14.7949 10.1669 14.8759 9.66193 14.8759 9.09091C14.8759 8.52415 14.7971 8.02557 14.6394 7.59517C14.4817 7.16477 14.2495 6.82812 13.9426 6.58523C13.6358 6.34233 13.2587 6.22088 12.8113 6.22088C12.3681 6.22088 11.9931 6.33807 11.6863 6.57244C11.3837 6.80682 11.1515 7.1392 10.9895 7.5696C10.8276 8 10.7466 8.5071 10.7466 9.09091Z" fill="#4B5563"/>
</svg>
