<svg width="16" height="14" viewBox="0 0 16 14" fill="none" xmlns="http://www.w3.org/2000/svg">
<path d="M1.08665 14V4.18182H3.80966V14H1.08665ZM2.45455 2.91619C2.04972 2.91619 1.70241 2.78196 1.41264 2.51349C1.12713 2.24077 0.984375 1.91477 0.984375 1.53551C0.984375 1.16051 1.12713 0.838778 1.41264 0.570312C1.70241 0.297585 2.04972 0.161221 2.45455 0.161221C2.85938 0.161221 3.20455 0.297585 3.49006 0.570312C3.77983 0.838778 3.92472 1.16051 3.92472 1.53551C3.92472 1.91477 3.77983 2.24077 3.49006 2.51349C3.20455 2.78196 2.85938 2.91619 2.45455 2.91619ZM8.71396 8.32386V14H5.99094V4.18182H8.58612V5.91406H8.70117C8.9185 5.34304 9.28285 4.89133 9.79421 4.55895C10.3056 4.2223 10.9256 4.05398 11.6543 4.05398C12.3361 4.05398 12.9306 4.20312 13.4377 4.50142C13.9448 4.79972 14.339 5.22585 14.6202 5.77983C14.9015 6.32955 15.0421 6.9858 15.0421 7.74858V14H12.3191V8.23438C12.3233 7.63352 12.1699 7.16477 11.8588 6.82812C11.5478 6.48722 11.1195 6.31676 10.574 6.31676C10.2076 6.31676 9.8837 6.3956 9.60245 6.55327C9.32546 6.71094 9.10813 6.94105 8.95046 7.24361C8.79705 7.5419 8.71822 7.90199 8.71396 8.32386Z" fill="#4B5563"/>
</svg>
