<svg width="48" height="48" viewBox="0 0 48 48" fill="none" xmlns="http://www.w3.org/2000/svg">
<path fill-rule="evenodd" clip-rule="evenodd" d="M26.716 8.90901C25.8373 8.03033 24.4127 8.03033 23.534 8.90901C22.6553 9.78769 22.6553 11.2123 23.534 12.091L33.193 21.75H9.375C8.13236 21.75 7.125 22.7574 7.125 24C7.125 25.2426 8.13236 26.25 9.375 26.25H33.193L23.534 35.909C22.6553 36.7877 22.6553 38.2123 23.534 39.091C24.4127 39.9697 25.8373 39.9697 26.716 39.091L40.216 25.591C41.0947 24.7123 41.0947 23.2877 40.216 22.409L26.716 8.90901Z" fill="#F9FAFB"/>
<path d="M23.534 8.90901L23.8876 9.26256V9.26256L23.534 8.90901ZM26.716 8.90901L26.3624 9.26256V9.26256L26.716 8.90901ZM23.534 12.091L23.8876 11.7374V11.7374L23.534 12.091ZM33.193 21.75V22.25C33.3953 22.25 33.5776 22.1282 33.655 21.9413C33.7323 21.7545 33.6896 21.5394 33.5466 21.3964L33.193 21.75ZM33.193 26.25L33.5466 26.6036C33.6896 26.4606 33.7323 26.2455 33.655 26.0587C33.5776 25.8718 33.3953 25.75 33.193 25.75V26.25ZM23.534 35.909L23.8876 36.2626H23.8876L23.534 35.909ZM23.534 39.091L23.8876 38.7374H23.8876L23.534 39.091ZM26.716 39.091L26.3624 38.7374L26.716 39.091ZM40.216 25.591L40.5695 25.9445V25.9445L40.216 25.591ZM40.216 22.409L40.5695 22.0555V22.0555L40.216 22.409ZM23.8876 9.26256C24.571 8.57915 25.679 8.57915 26.3624 9.26256L27.0695 8.55546C25.9956 7.48151 24.2544 7.48151 23.1805 8.55546L23.8876 9.26256ZM23.8876 11.7374C23.2041 11.054 23.2041 9.94598 23.8876 9.26256L23.1805 8.55546C22.1065 9.6294 22.1065 11.3706 23.1805 12.4445L23.8876 11.7374ZM33.5466 21.3964L23.8876 11.7374L23.1805 12.4445L32.8395 22.1036L33.5466 21.3964ZM9.375 22.25H33.193V21.25H9.375V22.25ZM7.625 24C7.625 23.0335 8.4085 22.25 9.375 22.25V21.25C7.85622 21.25 6.625 22.4812 6.625 24H7.625ZM9.375 25.75C8.4085 25.75 7.625 24.9665 7.625 24H6.625C6.625 25.5188 7.85622 26.75 9.375 26.75V25.75ZM33.193 25.75H9.375V26.75H33.193V25.75ZM23.8876 36.2626L33.5466 26.6036L32.8395 25.8964L23.1805 35.5555L23.8876 36.2626ZM23.8876 38.7374C23.2041 38.054 23.2041 36.946 23.8876 36.2626L23.1805 35.5555C22.1065 36.6294 22.1065 38.3706 23.1805 39.4445L23.8876 38.7374ZM26.3624 38.7374C25.679 39.4209 24.571 39.4209 23.8876 38.7374L23.1805 39.4445C24.2544 40.5185 25.9956 40.5185 27.0695 39.4445L26.3624 38.7374ZM39.8624 25.2374L26.3624 38.7374L27.0695 39.4445L40.5695 25.9445L39.8624 25.2374ZM39.8624 22.7626C40.5459 23.446 40.5459 24.554 39.8624 25.2374L40.5695 25.9445C41.6435 24.8706 41.6435 23.1294 40.5695 22.0555L39.8624 22.7626ZM26.3624 9.26256L39.8624 22.7626L40.5695 22.0555L27.0695 8.55546L26.3624 9.26256Z" fill="#0B0D13"/>
</svg>
