<svg width="199" height="34" viewBox="0 0 199 34" fill="none" xmlns="http://www.w3.org/2000/svg">
<path d="M63.7821 24.9948C63.5256 24.2553 63.26 23.5248 62.9853 22.8033C62.7105 22.0819 62.4449 21.3424 62.1885 20.5848H54.1655C53.909 21.3424 53.6434 22.0909 53.3687 22.8304C53.1122 23.5519 52.8558 24.2733 52.5994 24.9948H49C49.7144 22.9927 50.3921 21.1439 51.0332 19.4485C51.6743 17.753 52.2971 16.1478 52.9016 14.6327C53.5244 13.1176 54.138 11.6746 54.7425 10.3038C55.347 8.93306 55.9697 7.5803 56.6108 6.24558H59.8805C60.5216 7.5803 61.1444 8.93306 61.7489 10.3038C62.3533 11.6746 62.9578 13.1176 63.5623 14.6327C64.1851 16.1478 64.817 17.753 65.4581 19.4485C66.1175 21.1439 66.8044 22.9927 67.5188 24.9948H63.7821ZM58.177 9.87097C57.7557 10.8269 57.2703 11.9903 56.7208 13.3611C56.1895 14.7319 55.6309 16.2199 55.0447 17.8252H61.3092C60.7231 16.2199 60.1553 14.7229 59.6057 13.334C59.0562 11.9452 58.58 10.7908 58.177 9.87097Z" fill="#111827"/>
<path d="M74.7613 25.2653C73.7722 25.2473 72.9479 25.1391 72.2885 24.9407C71.6474 24.7423 71.1345 24.4627 70.7498 24.102C70.3652 23.7232 70.0904 23.2633 69.9255 22.7222C69.779 22.163 69.7057 21.5317 69.7057 20.8283V4.5411L73.0303 4V20.206C73.0303 20.6028 73.0578 20.9365 73.1128 21.2071C73.186 21.4776 73.3051 21.7121 73.4699 21.9105C73.6348 22.0909 73.8546 22.2352 74.1294 22.3434C74.4224 22.4336 74.7888 22.5057 75.2284 22.5598L74.7613 25.2653Z" fill="#111827"/>
<path d="M87.4518 17.9875C87.4518 16.5265 87.1129 15.3902 86.4352 14.5786C85.7757 13.7669 84.7042 13.3611 83.2205 13.3611C82.9091 13.3611 82.5794 13.3791 82.2313 13.4152C81.9016 13.4332 81.5719 13.4873 81.2422 13.5775V21.667C81.5353 21.8654 81.92 22.0548 82.3962 22.2352C82.8908 22.3975 83.4128 22.4787 83.9623 22.4787C85.1713 22.4787 86.0505 22.0728 86.6 21.2612C87.1679 20.4495 87.4518 19.3583 87.4518 17.9875ZM90.8588 17.9334C90.8588 19.0156 90.7123 20.0076 90.4192 20.9095C90.1444 21.8113 89.7415 22.5869 89.2102 23.2362C88.679 23.8855 88.0105 24.3906 87.2045 24.7513C86.4169 25.112 85.5193 25.2924 84.5119 25.2924C83.8341 25.2924 83.2113 25.2112 82.6435 25.0489C82.0756 24.8866 81.6086 24.7062 81.2422 24.5078V30H77.9176V11.3049C78.5954 11.1245 79.4288 10.9532 80.4179 10.7908C81.4071 10.6285 82.4512 10.5473 83.5502 10.5473C84.6859 10.5473 85.7025 10.7187 86.6 11.0614C87.4976 11.4041 88.2577 11.9001 88.8805 12.5494C89.5216 13.1807 90.0071 13.9563 90.3368 14.8762C90.6848 15.778 90.8588 16.7971 90.8588 17.9334Z" fill="#111827"/>
<path d="M94.2851 24.9948V4.5411L97.6097 4V11.0073C97.9761 10.881 98.3974 10.7728 98.8736 10.6826C99.3682 10.5924 99.8536 10.5473 100.33 10.5473C101.484 10.5473 102.436 10.7097 103.187 11.0343C103.957 11.341 104.57 11.7829 105.028 12.36C105.486 12.9192 105.807 13.5956 105.99 14.3892C106.191 15.1828 106.292 16.0666 106.292 17.0406V24.9948H102.968V17.5546C102.968 16.7971 102.913 16.1568 102.803 15.6337C102.711 15.0926 102.546 14.6597 102.308 14.3351C102.088 13.9924 101.786 13.7489 101.401 13.6046C101.017 13.4422 100.541 13.3611 99.9727 13.3611C99.5331 13.3611 99.0843 13.4062 98.6264 13.4964C98.1684 13.5865 97.8296 13.6677 97.6097 13.7399V24.9948H94.2851Z" fill="#111827"/>
<path d="M115.333 22.6951C116.358 22.6951 117.137 22.641 117.668 22.5328V18.9074C117.485 18.8533 117.219 18.7992 116.871 18.7451C116.523 18.6909 116.139 18.6639 115.717 18.6639C115.351 18.6639 114.975 18.6909 114.591 18.7451C114.224 18.7992 113.886 18.8984 113.574 19.0427C113.281 19.187 113.043 19.3944 112.86 19.6649C112.677 19.9174 112.585 20.2421 112.585 20.6389C112.585 21.4145 112.832 21.9556 113.327 22.2622C113.821 22.5508 114.49 22.6951 115.333 22.6951ZM115.058 10.4932C116.157 10.4932 117.082 10.6285 117.833 10.8991C118.584 11.1696 119.179 11.5484 119.619 12.0354C120.077 12.5224 120.397 13.1176 120.581 13.821C120.782 14.5064 120.883 15.264 120.883 16.0937V24.6701C120.37 24.7784 119.591 24.9046 118.547 25.0489C117.522 25.2112 116.358 25.2924 115.058 25.2924C114.197 25.2924 113.409 25.2112 112.695 25.0489C111.981 24.8866 111.367 24.625 110.854 24.2643C110.359 23.9036 109.966 23.4346 109.673 22.8574C109.398 22.2803 109.26 21.5678 109.26 20.7201C109.26 19.9084 109.416 19.223 109.728 18.6639C110.057 18.1048 110.497 17.6538 111.046 17.3111C111.596 16.9504 112.228 16.6979 112.942 16.5536C113.675 16.3913 114.435 16.3101 115.223 16.3101C115.589 16.3101 115.974 16.3371 116.377 16.3913C116.78 16.4273 117.21 16.4995 117.668 16.6077V16.0666C117.668 15.6878 117.622 15.3271 117.531 14.9844C117.439 14.6417 117.274 14.3441 117.036 14.0916C116.816 13.821 116.514 13.6136 116.129 13.4693C115.763 13.325 115.296 13.2529 114.728 13.2529C113.959 13.2529 113.254 13.307 112.612 13.4152C111.971 13.5234 111.449 13.6497 111.046 13.794L110.634 11.1426C111.056 10.9983 111.669 10.854 112.475 10.7097C113.281 10.5654 114.142 10.4932 115.058 10.4932Z" fill="#111827"/>
<path d="M129.735 22.4516C130.981 22.4516 131.887 22.2442 132.455 21.8293C133.023 21.4145 133.307 20.8283 133.307 20.0708C133.307 19.6198 133.206 19.232 133.005 18.9074C132.821 18.5827 132.547 18.2941 132.18 18.0416C131.832 17.7711 131.402 17.5276 130.889 17.3111C130.376 17.0767 129.79 16.8512 129.13 16.6348C128.471 16.4003 127.83 16.1478 127.207 15.8772C126.603 15.5886 126.062 15.2369 125.586 14.8221C125.128 14.4072 124.753 13.9112 124.46 13.334C124.185 12.7569 124.047 12.0624 124.047 11.2508C124.047 9.55532 124.643 8.22962 125.833 7.27367C127.024 6.29969 128.645 5.81269 130.697 5.81269C131.887 5.81269 132.94 5.94797 133.856 6.21852C134.791 6.47104 135.523 6.75061 136.054 7.05723L134.983 9.81686C134.36 9.47416 133.673 9.21263 132.922 9.03226C132.189 8.85189 131.429 8.76171 130.642 8.76171C129.707 8.76171 128.975 8.95109 128.444 9.32986C127.931 9.70864 127.674 10.2407 127.674 10.9261C127.674 11.341 127.757 11.7017 127.922 12.0083C128.105 12.2969 128.352 12.5584 128.663 12.7929C128.993 13.0274 129.369 13.2438 129.79 13.4422C130.23 13.6407 130.706 13.83 131.219 14.0104C132.116 14.3351 132.913 14.6687 133.609 15.0114C134.323 15.3361 134.919 15.7329 135.395 16.2019C135.89 16.6528 136.265 17.1939 136.522 17.8252C136.778 18.4384 136.906 19.187 136.906 20.0708C136.906 21.7662 136.293 23.0829 135.065 24.0208C133.856 24.9407 132.08 25.4006 129.735 25.4006C128.947 25.4006 128.224 25.3465 127.564 25.2383C126.923 25.1481 126.346 25.0309 125.833 24.8866C125.339 24.7423 124.908 24.598 124.542 24.4537C124.176 24.2914 123.883 24.1471 123.663 24.0208L124.679 21.2341C125.174 21.5047 125.843 21.7752 126.685 22.0458C127.528 22.3163 128.544 22.4516 129.735 22.4516Z" fill="#111827"/>
<path d="M142.402 17.9875C142.402 19.3583 142.677 20.4495 143.227 21.2612C143.795 22.0728 144.683 22.4787 145.892 22.4787C146.441 22.4787 146.954 22.3975 147.431 22.2352C147.925 22.0548 148.319 21.8654 148.612 21.667V13.5775C148.374 13.5234 148.072 13.4783 147.705 13.4422C147.357 13.3881 146.899 13.3611 146.332 13.3611C145.104 13.3611 144.143 13.7759 143.447 14.6056C142.75 15.4173 142.402 16.5446 142.402 17.9875ZM138.995 17.9334C138.995 16.8151 139.16 15.8051 139.49 14.9032C139.838 13.9833 140.323 13.2078 140.946 12.5765C141.587 11.9272 142.357 11.4311 143.254 11.0884C144.152 10.7277 145.168 10.5473 146.304 10.5473C147.44 10.5473 148.502 10.6285 149.491 10.7908C150.48 10.9532 151.296 11.1245 151.937 11.3049V30H148.612V24.5078C148.227 24.7062 147.751 24.8866 147.183 25.0489C146.634 25.2112 146.02 25.2924 145.342 25.2924C144.317 25.2924 143.41 25.1211 142.622 24.7784C141.835 24.4176 141.175 23.9126 140.644 23.2633C140.113 22.6139 139.701 21.8384 139.408 20.9365C139.133 20.0347 138.995 19.0336 138.995 17.9334Z" fill="#111827"/>
<path d="M167.947 24.5619C167.306 24.7242 166.472 24.8866 165.447 25.0489C164.421 25.2293 163.294 25.3195 162.067 25.3195C160.913 25.3195 159.942 25.1571 159.155 24.8325C158.385 24.5078 157.763 24.0569 157.286 23.4797C156.828 22.9025 156.499 22.2171 156.297 21.4235C156.096 20.6119 155.995 19.7281 155.995 18.7721V10.845H159.32V18.2581C159.32 19.7732 159.539 20.8554 159.979 21.5047C160.437 22.154 161.225 22.4787 162.342 22.4787C162.745 22.4787 163.166 22.4606 163.606 22.4246C164.064 22.3885 164.403 22.3434 164.622 22.2893V10.845H167.947V24.5619Z" fill="#111827"/>
<path d="M177.234 22.6951C178.26 22.6951 179.038 22.641 179.57 22.5328V18.9074C179.386 18.8533 179.121 18.7992 178.773 18.7451C178.425 18.6909 178.04 18.6639 177.619 18.6639C177.252 18.6639 176.877 18.6909 176.492 18.7451C176.126 18.7992 175.787 18.8984 175.476 19.0427C175.183 19.187 174.944 19.3944 174.761 19.6649C174.578 19.9174 174.486 20.2421 174.486 20.6389C174.486 21.4145 174.734 21.9556 175.228 22.2622C175.723 22.5508 176.391 22.6951 177.234 22.6951ZM176.959 10.4932C178.058 10.4932 178.983 10.6285 179.734 10.8991C180.485 11.1696 181.081 11.5484 181.52 12.0354C181.978 12.5224 182.299 13.1176 182.482 13.821C182.683 14.5064 182.784 15.264 182.784 16.0937V24.6701C182.271 24.7784 181.493 24.9046 180.449 25.0489C179.423 25.2112 178.26 25.2924 176.959 25.2924C176.098 25.2924 175.311 25.2112 174.596 25.0489C173.882 24.8866 173.268 24.625 172.755 24.2643C172.261 23.9036 171.867 23.4346 171.574 22.8574C171.299 22.2803 171.162 21.5678 171.162 20.7201C171.162 19.9084 171.318 19.223 171.629 18.6639C171.959 18.1048 172.398 17.6538 172.948 17.3111C173.497 16.9504 174.129 16.6979 174.844 16.5536C175.576 16.3913 176.337 16.3101 177.124 16.3101C177.491 16.3101 177.875 16.3371 178.278 16.3913C178.681 16.4273 179.112 16.4995 179.57 16.6077V16.0666C179.57 15.6878 179.524 15.3271 179.432 14.9844C179.341 14.6417 179.176 14.3441 178.938 14.0916C178.718 13.821 178.416 13.6136 178.031 13.4693C177.665 13.325 177.197 13.2529 176.63 13.2529C175.86 13.2529 175.155 13.307 174.514 13.4152C173.873 13.5234 173.351 13.6497 172.948 13.794L172.536 11.1426C172.957 10.9983 173.571 10.854 174.377 10.7097C175.183 10.5654 176.043 10.4932 176.959 10.4932Z" fill="#111827"/>
<path d="M189.466 17.8793C189.466 19.3222 189.814 20.4585 190.51 21.2882C191.206 22.0999 192.168 22.5057 193.395 22.5057C193.926 22.5057 194.375 22.4877 194.741 22.4516C195.126 22.3975 195.437 22.3434 195.675 22.2893V14.1727C195.382 13.9743 194.989 13.794 194.494 13.6316C194.018 13.4513 193.505 13.3611 192.955 13.3611C191.746 13.3611 190.858 13.7669 190.29 14.5786C189.741 15.3902 189.466 16.4905 189.466 17.8793ZM199 24.5619C198.341 24.7603 197.507 24.9407 196.5 25.103C195.511 25.2653 194.466 25.3465 193.367 25.3465C192.232 25.3465 191.215 25.1752 190.318 24.8325C189.42 24.4898 188.651 24.0028 188.01 23.3715C187.387 22.7222 186.901 21.9466 186.553 21.0447C186.224 20.1249 186.059 19.0968 186.059 17.9605C186.059 16.8422 186.196 15.8321 186.471 14.9303C186.764 14.0104 187.185 13.2258 187.735 12.5765C188.284 11.9272 188.953 11.4311 189.741 11.0884C190.528 10.7277 191.435 10.5473 192.461 10.5473C193.157 10.5473 193.77 10.6285 194.302 10.7908C194.833 10.9532 195.291 11.1335 195.675 11.3319V4.5411L199 4V24.5619Z" fill="#111827"/>
<path fill-rule="evenodd" clip-rule="evenodd" d="M19.5 10.056L8.50392 29.0984H14.3886L11.5951 34H0L19.3069 0.336634L19.5 0L19.6931 0.336634L39 34H27.4049L24.6114 29.0984H30.4961L19.5 10.056Z" fill="#111827"/>
</svg>
