<svg width="18" height="18" viewBox="0 0 18 18" fill="none" xmlns="http://www.w3.org/2000/svg">
<path d="M12.6793 6.23678L12.85 6.06588V6.30746V10.5C12.85 10.8579 13.1359 11.15 13.5 11.15C13.8573 11.15 14.15 10.8572 14.15 10.5V4.49996C14.15 4.14269 13.8573 3.84996 13.5 3.84996H7.5C7.14273 3.84996 6.85 4.14269 6.85 4.49996C6.85 4.85723 7.14273 5.14996 7.5 5.14996H11.6925H11.9338L11.7632 5.32064L3.60324 13.4881L3.60321 13.4882C3.34976 13.7416 3.34976 14.1508 3.60321 14.4043C3.85665 14.6577 4.26581 14.6577 4.51926 14.4043C4.51927 14.4043 4.51928 14.4043 4.51929 14.4043L12.6793 6.23678Z" fill="#1F2937" stroke="#0B0D13" stroke-width="0.2"/>
</svg>
