<svg width="18" height="18" viewBox="0 0 18 18" fill="none" xmlns="http://www.w3.org/2000/svg">
<path fill-rule="evenodd" clip-rule="evenodd" d="M9.17475 14.6591C8.84524 14.9886 8.31101 14.9886 7.9815 14.6591L2.919 9.59662C2.5895 9.26712 2.5895 8.73288 2.919 8.40338L7.9815 3.34088C8.31101 3.01137 8.84524 3.01137 9.17475 3.34088C9.50425 3.67038 9.50425 4.20462 9.17475 4.53412L4.70887 9L9.17475 13.4659C9.50425 13.7954 9.50425 14.3296 9.17475 14.6591Z" fill="#27272A"/>
<path fill-rule="evenodd" clip-rule="evenodd" d="M15.3281 9C15.3281 9.46599 14.9504 9.84375 14.4844 9.84375L4.21875 9.84375C3.75276 9.84375 3.375 9.46599 3.375 9C3.375 8.53401 3.75276 8.15625 4.21875 8.15625L14.4844 8.15625C14.9504 8.15625 15.3281 8.53401 15.3281 9Z" fill="#27272A"/>
</svg>
