<svg width="12" height="12" viewBox="0 0 12 12" fill="none" xmlns="http://www.w3.org/2000/svg">
<path d="M9.67926 3.23678L9.85 3.06588V3.30746V7.49996C9.85 7.85789 10.1359 8.14996 10.5 8.14996C10.8573 8.14996 11.15 7.85723 11.15 7.49996V1.49996C11.15 1.14269 10.8573 0.849961 10.5 0.849961H4.5C4.14273 0.849961 3.85 1.14269 3.85 1.49996C3.85 1.85723 4.14273 2.14996 4.5 2.14996H8.6925H8.93377L8.76324 2.32064L0.603244 10.4881L0.603211 10.4882C0.349764 10.7416 0.349764 11.1508 0.603211 11.4043C0.856648 11.6577 1.26581 11.6577 1.51926 11.4043C1.51927 11.4043 1.51928 11.4043 1.51929 11.4043L9.67926 3.23678Z" fill="#1F2937" stroke="#0B0D13" stroke-width="0.2"/>
</svg>
