<svg width="317" height="33" viewBox="0 0 317 33" fill="none" xmlns="http://www.w3.org/2000/svg">
<path d="M73.1599 10.1608C72.9152 10.1737 72.6963 10.1995 72.4709 10.1995C68.3757 10.1995 64.2869 10.1995 60.1917 10.2059C59.7796 10.2059 59.5156 10.1414 59.271 9.72196C59.0456 9.33479 58.6142 8.93471 58.1956 8.81855C56.3734 8.31523 54.5383 8.29587 52.7547 9.04441C52.2975 9.23799 51.6407 9.47675 51.8404 10.0898C51.9498 10.4382 52.5164 10.7996 52.9221 10.8641C54.6478 11.1287 56.3927 11.2707 58.1248 11.4901C60.8227 11.8321 63.5207 12.1805 66.2186 12.5677C66.7981 12.6516 67.3583 12.871 67.9121 13.0775C71.0865 14.2519 73.1663 16.3556 73.5204 19.8595C73.8875 23.5183 72.78 26.5705 69.7343 28.7774C67.6223 30.3068 65.2013 31.0811 62.6579 31.4618C57.1912 32.2813 51.7373 32.2233 46.3415 30.9262C43.5727 30.2616 41.1323 28.9968 39.529 26.4931C38.6275 25.0864 38.1575 23.5312 37.9064 21.776C38.2476 21.776 38.5245 21.776 38.795 21.776C43.0962 21.776 47.391 21.7825 51.6923 21.7696C52.2009 21.7696 52.568 21.847 52.9414 22.2987C53.6368 23.1247 54.6799 23.3634 55.7166 23.4925C57.0624 23.6603 58.4081 23.5764 59.6187 22.8988C59.9599 22.7117 60.1724 22.2922 60.4428 21.976C60.1145 21.7179 59.8247 21.292 59.4641 21.2211C57.9767 20.95 56.47 20.7371 54.9633 20.6016C51.8146 20.3112 48.6402 20.2338 45.5752 19.3562C43.6757 18.8077 41.8728 18.0591 40.5206 16.5427C38.0931 13.8196 37.9836 8.93471 40.263 5.66308C42.0531 3.10127 44.6609 1.77843 47.5713 0.952452C51.19 -0.0671079 54.886 -0.112278 58.5949 0.107121C61.4087 0.274897 64.171 0.674977 66.7595 1.88813C70.1979 3.50135 72.1489 6.30837 73.147 9.87683C73.1792 9.95427 73.1599 10.0317 73.1599 10.1608Z" fill="#6B7280"/>
<path d="M89.2185 17.6781C89.2185 22.137 89.2185 26.5573 89.2185 31.0227C84.7755 31.0227 80.4099 31.0227 75.9863 31.0227C75.9863 21.0336 75.9863 11.0509 75.9863 1.00373C80.3455 1.00373 84.7305 1.00373 89.1863 1.00373C89.1863 5.353 89.1863 9.69581 89.1863 14.1161C91.6331 14.1161 94.0026 14.1161 96.4623 14.1161C96.4623 9.75389 96.4623 5.39172 96.4623 0.984375C100.912 0.984375 105.277 0.984375 109.701 0.984375C109.701 10.9799 109.701 20.9626 109.701 31.0098C105.329 31.0098 100.944 31.0098 96.4881 31.0098C96.4881 26.5702 96.4881 22.1499 96.4881 17.6781C94.0477 17.6781 91.6717 17.6781 89.2185 17.6781Z" fill="#6B7280"/>
<path d="M39.1941 31.0743C36.4189 31.0743 33.7661 31.0743 31.1196 31.0743C29.5228 31.0743 27.9259 31.0549 26.3355 31.0872C25.859 31.0937 25.6723 30.9323 25.537 30.4871C24.906 28.3963 24.217 26.3185 23.5925 24.2278C23.4508 23.7438 23.2383 23.5825 22.7425 23.5825C20.682 23.6083 18.628 23.6083 16.5675 23.5825C16.0524 23.576 15.8013 23.718 15.6468 24.2407C15.0222 26.3314 14.3525 28.4157 13.6571 30.4871C13.5798 30.7259 13.245 31.042 13.0261 31.0485C8.78278 31.0808 4.53305 31.0679 0.289755 31.0679C0.218926 31.0679 0.148097 31.0291 0 30.9904C0.0965849 30.7129 0.173853 30.4548 0.276877 30.1967C4.07588 20.6916 7.87489 11.1864 11.661 1.67483C11.8671 1.1586 12.1053 0.926295 12.7041 0.932748C17.411 0.95856 22.1244 0.952107 26.8313 0.939201C27.3271 0.939201 27.5975 1.04245 27.7971 1.55223C31.506 11.1477 35.2342 20.7303 38.9559 30.3129C39.0396 30.5194 39.0911 30.7388 39.1941 31.0743ZM19.6647 12.0834C18.7825 14.7678 17.9133 17.4264 17.0311 20.1366C18.8212 20.1366 20.5082 20.1366 22.2854 20.1366C21.4032 17.4135 20.5339 14.7549 19.6647 12.0834Z" fill="#6B7280"/>
<path d="M262.312 31.2104C260.258 31.2104 258.378 31.2104 256.491 31.2104C256.498 31.1136 256.485 31.0491 256.511 31.0233C258.223 29.281 258.481 27.1128 258.468 24.8027C258.429 18.2852 258.449 11.7613 258.468 5.24389C258.468 4.60505 258.326 4.08236 257.882 3.64356C257.058 2.81759 256.221 2.00452 255.352 1.14628C256.395 1.14628 257.464 1.10757 258.526 1.1721C258.79 1.185 259.093 1.48184 259.279 1.72705C263.761 7.34108 268.23 12.968 272.705 18.5885C274.772 21.189 276.838 23.7896 278.912 26.3836C279.066 26.5772 279.234 26.7644 279.53 27.1064C279.53 25.8803 279.536 24.8414 279.53 23.8025C279.511 19.6791 279.491 15.5556 279.459 11.4387C279.446 9.63832 279.401 7.8315 279.388 6.03114C279.375 4.3921 278.738 3.03699 277.598 1.89482C277.437 1.7335 277.27 1.56572 277.115 1.39795C277.083 1.36568 277.083 1.30761 277.057 1.20436C278.809 1.20436 280.541 1.20436 282.318 1.20436C282.292 1.2818 282.292 1.39795 282.234 1.45602C280.663 3.04344 280.341 5.02449 280.341 7.14749C280.361 14.8007 280.348 22.4538 280.348 30.107C280.348 30.3135 280.367 30.52 280.341 30.7264C280.316 30.9136 280.238 31.0943 280.18 31.2749C280 31.1652 279.775 31.0943 279.646 30.9394C278.319 29.2939 277.012 27.642 275.692 25.99C270.367 19.2983 265.049 12.6131 259.724 5.92144C259.621 5.78593 259.498 5.66978 259.286 5.43102C259.266 5.81819 259.241 6.06341 259.241 6.30862C259.273 11.458 259.299 16.6139 259.337 21.7633C259.344 23.0733 259.421 24.3897 259.382 25.6996C259.331 27.6355 260.013 29.2165 261.488 30.4619C261.733 30.6619 261.952 30.8813 262.312 31.2104Z" fill="#6B7280"/>
<path d="M238.636 8.48933C238.475 8.17959 238.301 7.86985 238.147 7.55365C236.183 3.5593 232.905 1.63633 228.533 1.41048C224.708 1.21689 221.141 1.86218 218.199 4.54659C216.022 6.53409 214.844 9.07009 214.271 11.9158C213.537 15.594 213.646 19.2463 214.792 22.8277C216.383 27.7835 220.266 30.7132 225.468 30.9713C227.87 31.0874 230.252 30.9713 232.558 30.184C235.925 29.0354 237.31 27.1189 237.284 23.5633C237.277 22.8406 237.239 22.1179 237.161 21.4016C236.994 19.8013 236.672 19.1108 235.507 17.6654C237.316 17.6654 239.067 17.6654 240.819 17.6654C240.825 17.6976 240.864 17.7686 240.851 17.788C239.589 19.1302 239.376 20.795 239.37 22.5244C239.364 24.0215 239.37 25.5121 239.331 27.0092C239.325 27.2673 239.164 27.6093 238.964 27.7577C235.107 30.6099 230.806 32.0554 225.99 31.836C215.662 31.3714 210.369 23.2213 211.193 14.4776C211.927 6.68896 217.709 1.23625 225.687 0.610317C229.757 0.287672 233.684 0.920057 237.516 2.26226C237.928 2.40423 238.121 2.60427 238.179 3.06242C238.378 4.64339 238.642 6.2179 238.868 7.79886C238.9 8.00536 238.874 8.2183 238.874 8.43125C238.797 8.45706 238.713 8.46997 238.636 8.48933Z" fill="#6B7280"/>
<path d="M313.746 8.47626C313.418 7.86969 313.115 7.24376 312.767 6.65009C311.177 3.94632 308.878 2.2492 305.768 1.68134C303.147 1.20383 300.54 1.20383 297.977 1.95237C293.65 3.22359 291.01 6.20484 289.774 10.4379C288.544 14.6452 288.608 18.8977 290.018 23.0598C291.667 27.9253 295.202 30.4742 300.237 30.9259C302.89 31.1647 305.543 31.0163 308.067 30.029C310.263 29.1643 312.117 27.8286 312.31 25.3055C312.452 23.4857 312.194 21.6144 311.917 19.7947C311.801 19.0461 311.17 18.3815 310.758 17.6523C312.452 17.6523 314.21 17.6523 315.967 17.6523C315.98 17.691 316.019 17.762 316 17.7814C314.699 19.1042 314.519 20.782 314.499 22.5114C314.48 23.9568 314.48 25.3958 314.506 26.8413C314.512 27.2994 314.377 27.5833 313.991 27.8608C309.747 30.9259 305.053 32.2423 299.818 31.7455C293.019 31.1066 287.584 26.0992 286.496 19.343C285.859 15.3551 286.284 11.5156 288.364 7.99875C291.029 3.48816 295.176 1.25545 300.256 0.668237C304.442 0.177815 308.505 0.855371 312.484 2.19758C313.051 2.39116 313.282 2.70736 313.353 3.28812C313.534 4.7981 313.778 6.29518 313.984 7.79871C314.016 8.01811 313.991 8.2375 313.991 8.4569C313.907 8.46981 313.823 8.47626 313.746 8.47626Z" fill="#6B7280"/>
<path d="M139.951 24.3568C140.203 24.8859 140.46 25.4086 140.711 25.9377C143.28 31.384 148.889 31.7389 152.797 30.3838C155.006 29.6159 156.133 27.88 156.403 25.6022C156.77 22.4854 155.688 19.9946 152.926 18.433C151.162 17.4392 149.288 16.6391 147.446 15.7873C145.579 14.9226 143.731 14.0579 142.205 12.5931C139.43 9.92803 139.179 3.16538 144.665 1.26177C148.283 0.00990433 151.857 0.435797 155.405 1.61668C155.566 1.6683 155.772 1.86189 155.798 2.01031C156.075 3.7655 156.313 5.52069 156.558 7.28234C156.57 7.36623 156.5 7.45657 156.39 7.79212C156.197 7.33396 156.081 7.07585 155.978 6.81773C155.128 4.70117 153.956 2.79756 151.722 1.9845C148.902 0.958483 146.062 0.900406 143.66 3.01696C141.432 4.97865 141.439 8.68262 143.647 10.754C144.607 11.651 145.785 12.3608 146.964 12.9609C148.934 13.9547 151.014 14.7355 152.997 15.7034C154.961 16.6584 156.744 17.8845 157.787 19.9042C160.163 24.4923 158.026 29.6804 153.061 31.1839C148.94 32.4293 144.871 31.9389 140.892 30.4548C140.692 30.3838 140.454 30.1321 140.428 29.9321C140.164 28.2027 139.939 26.4669 139.707 24.731C139.694 24.6213 139.758 24.5052 139.79 24.389C139.836 24.3826 139.893 24.3697 139.951 24.3568Z" fill="#6B7280"/>
<path d="M209.86 31.2106C207.986 31.2106 206.357 31.2106 204.638 31.2106C205.681 29.3908 205.082 27.6356 204.451 25.8804C203.801 24.0607 203.138 22.2539 202.507 20.4277C202.365 20.0147 202.172 19.8663 201.741 19.8663C198.238 19.8792 194.735 19.8663 191.239 19.8921C191.013 19.8921 190.646 20.0599 190.582 20.2341C189.712 22.6282 188.824 25.0158 188.077 27.4485C187.613 28.952 187.884 29.636 189.049 31.1976C187.543 31.1976 186.081 31.1976 184.51 31.1976C186.841 28.9972 187.343 25.9901 188.367 23.2541C191.065 16.0268 193.666 8.76087 196.306 1.51424C196.441 1.13997 196.506 0.759253 197.104 0.765706C197.697 0.772159 197.819 1.08835 197.974 1.5207C201.116 10.1741 204.258 18.8274 207.407 27.4872C207.896 28.8552 208.405 30.2233 209.86 31.2106ZM202.011 19.0275C200.195 13.9103 198.405 8.85766 196.615 3.80503C196.557 3.81793 196.499 3.83084 196.441 3.84375C194.645 8.88993 192.842 13.9297 191.026 19.0275C194.741 19.0275 198.328 19.0275 202.011 19.0275Z" fill="#6B7280"/>
<path d="M174.336 2.03681C174.336 2.3272 174.336 2.63694 174.336 2.94022C174.336 10.645 174.349 18.3498 174.323 26.0546C174.317 27.8097 174.632 29.4294 175.752 30.8297C175.823 30.9201 175.862 31.0427 175.952 31.2169C174.11 31.2169 172.346 31.2169 170.518 31.2169C170.601 31.062 170.659 30.9007 170.756 30.7716C171.734 29.5779 172.101 28.1905 172.101 26.674C172.101 18.6853 172.101 10.6966 172.095 2.70792C172.095 2.45625 172.069 2.20459 172.063 2.06263C169.906 2.06263 167.826 1.9981 165.759 2.11425C165.283 2.14006 164.729 2.70792 164.413 3.16607C163.402 4.62443 162.488 6.14732 161.535 7.63794C161.393 7.85734 161.245 8.07029 161.104 8.28969C161.033 8.26388 160.956 8.23161 160.885 8.2058C160.904 7.99931 160.904 7.79281 160.943 7.59923C161.387 5.64399 161.844 3.68876 162.269 1.72707C162.359 1.30763 162.507 1.12695 162.971 1.12695C169.867 1.13986 176.77 1.13986 183.666 1.13986C183.769 1.13986 183.866 1.16567 184.033 1.18503C184.561 3.50808 185.089 5.84403 185.617 8.17999C185.54 8.21871 185.462 8.25742 185.385 8.28969C185.231 8.0961 185.05 7.91542 184.915 7.70893C183.969 6.21185 183.035 4.69541 182.075 3.20479C181.535 2.36591 180.788 1.97228 179.738 2.011C177.987 2.08198 176.216 2.03681 174.336 2.03681Z" fill="#6B7280"/>
<path d="M251.153 31.2162C249.132 31.2162 247.374 31.2162 245.616 31.2162C245.609 31.1452 245.584 31.0807 245.603 31.0549C246.846 29.532 247.123 27.7639 247.11 25.8474C247.058 19.3041 247.071 12.7544 247.103 6.21118C247.11 4.53342 246.794 2.99118 245.751 1.64897C245.687 1.57153 245.635 1.48119 245.59 1.3844C245.571 1.34568 245.597 1.28761 245.603 1.19727C247.354 1.19727 249.106 1.19727 250.87 1.19727C250.87 1.28761 250.889 1.35214 250.87 1.37795C249.473 3.06216 249.331 5.04966 249.35 7.13395C249.402 13.0319 249.389 18.9363 249.357 24.8343C249.331 27.0799 249.325 29.2868 251.153 31.2162Z" fill="#6B7280"/>
</svg>
