<svg width="137" height="42" viewBox="0 0 137 42" fill="none" xmlns="http://www.w3.org/2000/svg">
<g clip-path="url(#clip0_1_278)">
<path d="M4.61393 28.539C4.97859 28.5006 5.05323 28.2103 5.20464 28.0139C9.41852 22.5663 13.6324 17.1208 17.8271 11.6583C18.1896 11.1865 18.5564 10.9795 19.1578 11.0072C20.2475 11.0585 21.3394 11.0158 22.4312 11.0264C22.6594 11.0286 22.9643 10.9048 23.1008 11.1268C23.2608 11.3872 22.9409 11.543 22.8108 11.7181C19.3838 16.2627 15.9569 20.8052 12.5 25.3264C12.0948 25.8558 12.1076 26.1589 12.5363 26.6648C16.2938 31.1134 20.0193 35.5876 23.747 40.0597C23.8899 40.2304 24.1948 40.3841 24.0775 40.6381C23.9602 40.8964 23.6489 40.762 23.4271 40.7641C22.2286 40.7748 21.0301 40.7449 19.8338 40.7812C19.3007 40.7982 18.9467 40.6253 18.6097 40.2155C15.7393 36.7232 12.8434 33.2544 9.97937 29.7579C9.56993 29.2584 9.3716 29.1965 8.94936 29.7579C7.76794 31.329 6.5332 32.8638 5.28567 34.3858C4.8741 34.8874 4.67151 35.3848 4.69496 36.0444C4.74401 37.3721 4.6907 38.7042 4.71842 40.034C4.72908 40.5592 4.61393 40.8068 4.02108 40.7833C2.98467 40.7406 1.94613 40.7598 0.907589 40.7748C0.502408 40.7812 0.308348 40.6381 0.350999 40.2176C0.363794 40.0853 0.353131 39.9529 0.353131 39.8184C0.355264 27.0512 0.363794 14.2839 0.333939 1.51663C0.331806 0.690523 0.553589 0.445039 1.35329 0.511213C2.17218 0.579521 3.00387 0.55604 3.82702 0.515482C4.41134 0.485597 4.62032 0.667042 4.60966 1.27755C4.57554 3.24355 4.599 5.21382 4.59687 7.18196C4.5862 14.2028 4.57341 21.2236 4.56488 28.2466C4.56488 28.3405 4.59687 28.4366 4.61393 28.539Z" fill="#6B7280"/>
<path d="M125.3 40.7684C121.893 40.7684 118.485 40.7513 115.077 40.7834C114.399 40.7898 114.29 40.5614 114.226 39.9274C114.032 37.9784 114.614 36.4074 115.794 34.8042C120.442 28.4836 124.944 22.054 129.495 15.6608C129.655 15.4367 130.007 15.2061 129.86 14.9265C129.713 14.649 129.327 14.8069 129.049 14.8069C124.603 14.7984 120.157 14.7835 115.713 14.8176C114.994 14.824 114.781 14.617 114.836 13.9211C114.896 13.1547 114.868 12.3777 114.842 11.6071C114.828 11.1524 115.002 11.0116 115.446 11.0137C121.782 11.0244 128.117 11.0244 134.455 11.0137C134.899 11.0137 135.074 11.1589 135.061 11.6135C135.035 12.5442 135.031 13.4771 135.061 14.4056C135.076 14.8539 134.837 15.1549 134.609 15.4794C129.721 22.3849 124.831 29.2862 119.952 36.196C119.794 36.418 119.436 36.6294 119.598 36.9239C119.726 37.1545 120.088 37.0179 120.344 37.0179C125.375 37.0243 130.408 37.0371 135.438 37.0072C136.134 37.0029 136.396 37.1694 136.328 37.8909C136.264 38.5761 136.274 39.2763 136.326 39.9637C136.372 40.5934 136.166 40.7855 135.526 40.7812C132.116 40.7535 128.708 40.7684 125.3 40.7684Z" fill="#6B7280"/>
<path d="M30.5791 14.7426C31.0078 14.6679 31.0632 14.3349 31.2317 14.1171C32.942 11.9163 35.1812 10.7039 37.9641 10.4797C38.6401 10.4242 38.9984 10.5587 38.9173 11.3635C38.8363 12.1789 38.8854 13.0114 38.9067 13.8354C38.9173 14.2431 38.832 14.48 38.3565 14.5056C35.9872 14.6252 34.2045 15.859 32.6925 17.5624C31.413 19.0033 31.0824 20.7687 31.076 22.6109C31.0568 28.3552 31.0568 34.0974 31.0846 39.8417C31.0888 40.5568 30.9267 40.845 30.1654 40.783C29.3188 40.7147 28.4615 40.7339 27.6128 40.7788C27.0093 40.8108 26.8387 40.5995 26.8451 40.006C26.8728 37.3996 26.8579 34.7954 26.8579 32.189C26.8579 25.435 26.8707 18.681 26.8408 11.927C26.8366 11.1777 27.0498 10.9408 27.7791 11.007C28.4381 11.0667 29.112 11.0561 29.7731 11.0091C30.3915 10.9643 30.6346 11.1479 30.5962 11.8053C30.5365 12.7745 30.5791 13.7479 30.5791 14.7426Z" fill="#6B7280"/>
<path d="M45.846 25.9452C45.846 30.571 45.8268 35.1989 45.8652 39.8246C45.8716 40.6123 45.6306 40.8407 44.8779 40.7809C44.0846 40.719 43.2806 40.7468 42.4852 40.7745C41.9925 40.7916 41.8049 40.6016 41.8497 40.1213C41.8731 39.8566 41.8539 39.5898 41.8539 39.3251C41.8539 30.2059 41.8646 21.0846 41.8369 11.9655C41.8347 11.1799 42.0672 10.9451 42.8221 11.0091C43.5621 11.0711 44.3127 11.0604 45.0549 11.0113C45.6946 10.9686 45.8674 11.197 45.8631 11.8288C45.8375 16.3479 45.8482 20.869 45.8482 25.3902C45.8439 25.5738 45.8439 25.7595 45.846 25.9452Z" fill="#6B7280"/>
<path d="M76.9472 15.6605C70.6669 8.25328 60.0597 9.06872 54.7838 14.7127C54.6132 14.8963 54.4768 15.1524 54.1611 15.1738C53.9458 14.9155 54.0545 14.6124 54.0524 14.337C54.0439 10.0016 54.0353 5.66824 54.0609 1.33279C54.0652 0.700933 53.8818 0.476796 53.2506 0.515219C52.5084 0.560047 51.7557 0.577124 51.0178 0.51095C50.2416 0.442642 50.039 0.715875 50.0411 1.48648C50.0688 9.51699 50.1093 17.5496 50.039 25.5801C49.9984 30.1867 51.5957 34.0034 54.8947 37.2033C59.4349 41.607 66.2761 42.7597 71.9678 39.9804C81.1867 35.4806 83.5943 23.501 76.9472 15.6605ZM65.1202 37.5042C59.0788 37.4914 54.0353 32.1634 54.0481 25.8064C54.0609 19.3299 59.0276 14.1918 65.2524 14.2132C71.5434 14.2345 76.6807 19.4879 76.6508 25.8683C76.621 32.2658 71.4176 37.517 65.1202 37.5042Z" fill="#6B7280"/>
<path d="M111.259 16.1319C106.372 9.86674 97.7561 8.43012 91.0749 12.757C89.9788 13.4679 89.0724 14.3943 87.987 15.4104C87.987 15.071 87.987 14.9408 87.987 14.8127C87.9891 10.2894 87.9827 5.76609 88.0062 1.24493C88.0083 0.681386 87.827 0.491403 87.2726 0.514884C86.475 0.551173 85.6732 0.56825 84.8777 0.510615C84.1697 0.459383 83.9842 0.696328 83.9863 1.40289C84.0119 9.51665 84.0546 17.6325 83.9821 25.7463C83.9416 30.4084 85.6647 34.208 89.0213 37.3715C93.9623 42.0315 101.025 42.6953 106.553 39.6151C115.149 34.8292 117.305 23.8828 111.259 16.1319ZM98.9802 37.5167C92.9835 37.4249 87.9571 32.1182 87.9955 25.8125C88.0339 19.2399 93.0027 14.1638 99.3512 14.215C105.591 14.2641 110.598 19.5537 110.57 26.0324C110.547 31.7937 105.681 37.6192 98.9802 37.5167Z" fill="#6B7280"/>
<path d="M45.5116 8.87906H42.0995V6.95788L43.8056 4.82324L45.5116 6.95788V8.87906Z" fill="#6B7280"/>
</g>
<defs>
<clipPath id="clip0_1_278">
<rect width="136" height="41" fill="white" transform="translate(0.333923 0.5)"/>
</clipPath>
</defs>
</svg>
