<svg width="162" height="56" viewBox="0 0 162 56" fill="none" xmlns="http://www.w3.org/2000/svg">
<path d="M33.8184 46.081L38.0152 49.497L42.456 45.6906L40.6992 44.0313V17.24L40.26 17.3376C40.016 18.6552 37.0392 21.8272 35.0872 22.3152V45.1049C35.0384 45.1049 34.2576 45.6418 33.8184 46.081Z" fill="#6B7280"/>
<path d="M43.4312 31.4899H43.6264L46.2128 33.6859L46.3592 47.5452C46.3592 47.5452 47.0424 55.3045 39.2344 53.5964L39.2832 54.2308C39.2832 54.2308 40.9424 55.1092 42.9432 55.0116C47.3352 54.7676 51.0928 52.6204 51.4344 48.6676C51.9712 41.8356 51.6784 31.1971 51.6784 31.1971L46.9448 27.7323L40.6496 32.7587V33.6859C40.6496 33.7347 43.48 31.4411 43.4312 31.4899Z" fill="#6B7280"/>
<path d="M29.8166 34.2222C29.8166 34.271 29.7678 34.3198 29.7678 34.3686C28.987 36.9062 27.035 39.395 25.3758 40.8102C22.5942 43.2015 19.1294 44.1775 16.1525 44.0311C9.80851 43.7383 5.66049 39.4438 5.66049 33.1974C5.66049 29.4398 7.8565 25.2918 10.4429 23.1933C9.56451 23.0957 9.0765 23.2421 9.0765 23.2421C4.14768 25.487 0.731659 30.123 0.731659 35.5398C0.731659 43.1038 7.4173 49.2527 15.6645 49.2527C21.7158 49.2527 26.9374 45.9343 29.2798 41.2006C30.2558 38.7118 29.8654 34.6614 29.8166 34.2222Z" fill="#6B7280"/>
<path d="M25.6207 24.072H25.0352V41.5913H25.6207V24.072Z" fill="#6B7280"/>
<path d="M15.372 21.6805L15.2256 41.2495L11.956 43.2991L12.4928 43.8847L21.2769 38.2726V27.439C21.2769 27.439 21.2281 23.9742 21.5697 23.9254" fill="#6B7280"/>
<path d="M13.0785 22.2173C15.0793 22.803 15.6161 23.3398 17.3241 23.6326C20.2033 24.1206 23.9121 24.0718 25.4738 24.1206C31.4274 24.1694 33.8674 18.4109 33.8674 18.4109C31.8666 19.2405 25.0345 19.8261 20.4961 18.8501C17.2265 18.1669 15.8601 17.9229 13.6641 17.4837C0.292802 14.7509 0 25.3406 0 25.3406C1.36641 24.8038 3.95282 19.6309 13.0785 22.2173Z" fill="#6B7280"/>
<path d="M24.4492 32.3187L25.2788 31.3427L26.206 32.3187L25.3764 33.3435L24.4492 32.3187Z" fill="#6B7280"/>
<path d="M72.1271 41.7865L71.6878 41.3473L66.4174 45.5929L61.9278 42.3233L61.879 40.4689L70.7606 33.5392L67.1006 27.1952C67.1006 27.1952 63.2454 29.4888 61.1958 30.2208C60.171 30.6112 56.3158 32.124 56.3158 32.124L56.3646 43.9337L53.4854 46.2273L53.8757 46.7641L56.4622 44.7633L62.7574 49.3505L72.1271 41.7865ZM61.7814 30.7088L63.2454 30.0256L66.6614 35.8816L61.7814 39.6881V30.7088Z" fill="#6B7280"/>
<path d="M115.901 33.2953L115.071 34.1249L114.583 33.6857L115.901 32.3681L117.462 30.7577L118.926 29.2448C121.366 31.0505 123.66 32.6121 123.66 32.6121V43.2993L126.929 45.6905C126.929 45.6905 129.174 43.4457 129.272 43.2993C129.272 41.6401 129.272 34.9057 129.272 34.9057L126.978 33.1489L126.051 33.9785L125.612 33.5393L129.906 29.196L134.347 32.6609L135.762 31.2457L136.202 31.7337L134.786 33.1977V45.0073L135.958 45.7393L137.275 44.4217L137.714 44.8609L132.834 49.7898L129.321 47.2522V44.2753L124.001 49.6922L118.389 45.7393L116.925 47.1546L116.437 46.7153L118.243 44.9097L118.194 34.9545L115.901 33.2953Z" fill="#6B7280"/>
<path d="M115.901 33.2953L115.071 34.1249L114.583 33.6857L115.901 32.3681L117.462 30.7577L118.926 29.2448C121.366 31.0505 123.66 32.6121 123.66 32.6121V43.2993L126.929 45.6905C126.929 45.6905 129.174 43.4457 129.272 43.2993C129.272 41.6401 129.272 34.9057 129.272 34.9057L126.978 33.1489L126.051 33.9785L125.612 33.5393L129.906 29.196L134.347 32.6609L135.762 31.2457L136.202 31.7337L134.786 33.1977V45.0073L135.958 45.7393L137.275 44.4217L137.714 44.8609L132.834 49.7898L129.321 47.2522V44.2753L124.001 49.6922L118.389 45.7393L116.925 47.1546L116.437 46.7153L118.243 44.9097L118.194 34.9545L115.901 33.2953Z" fill="#6B7280"/>
<path d="M147.621 32.368V34.9056L152.696 29.0495L157.82 32.7096L159.04 31.4408L159.528 31.88L159.333 32.0264L158.113 33.4416V44.3728L159.772 45.6904L160.895 44.4216L161.334 44.8608L156.991 49.7897L152.989 46.6176V35.54L149.817 33.344L147.572 35.9304V45.6904L148.743 46.9592C148.695 46.9592 148.743 47.0568 148.695 47.0568C146.938 47.9841 144.693 49.8873 144.693 49.8873C144.693 49.8873 142.399 47.9353 141.228 47.1056L142.155 45.8856V34.6128L140.008 33.0512L139.227 33.8808L138.739 33.4416L141.082 30.7576L142.741 28.8055L147.621 32.368Z" fill="#6B7280"/>
<path d="M109.018 32.319C108.335 31.9774 107.603 31.6358 106.676 31.4406C106.92 31.1478 108.14 29.6838 108.482 29.2445L109.214 28.5125C109.214 28.6101 109.214 28.7077 109.214 28.7565C109.262 29.6838 109.994 30.2694 110.824 30.123C111.654 29.9766 112.337 29.0981 112.288 28.1709C112.239 27.2437 111.507 26.6581 110.678 26.8045C110.629 26.8045 110.629 26.8045 110.629 26.8045C110.629 26.8045 110.629 26.8045 110.58 26.8045C110.531 26.8045 110.482 26.8533 110.482 26.8533C110.434 26.8533 110.385 26.9021 110.336 26.9021C109.262 27.3901 108.286 28.5613 107.506 29.5374C106.822 30.367 106.188 31.099 106.09 31.2454C104.382 30.9038 101.991 30.611 100.185 30.4646C103.406 26.8045 106.188 23.7789 110.141 19.3869L109.75 18.9477C109.067 19.7285 108.921 19.8261 107.994 20.8021C106.188 19.7285 104.09 18.8501 101.991 18.4109C99.6975 17.9717 97.2575 17.8253 94.8663 18.1669C93.207 18.4109 90.7182 19.4845 89.059 21.2413C87.6926 22.5589 86.9118 23.8765 86.4238 25.1453C85.9358 26.4141 85.7406 27.6829 85.9846 29.1469C86.2774 30.367 86.7166 31.1966 87.351 31.8798C87.6438 32.2702 89.1078 33.8806 95.2567 35.1006C94.5735 35.8814 94.0855 36.4182 93.3047 37.199C93.0119 37.4918 92.5239 38.1262 92.1334 38.3214C92.1334 38.2726 92.1822 38.2238 92.1822 38.175C92.2798 37.2478 91.6942 36.467 90.8646 36.467C90.035 36.467 89.2542 37.199 89.1078 38.175C89.0102 39.1022 89.5958 39.883 90.4254 39.883C90.5718 39.883 90.6694 39.883 90.8158 39.8342C90.8646 39.8342 90.8646 39.8342 90.9134 39.8342C91.6454 39.5414 92.2798 39.2486 94.0367 37.2478C94.3783 36.8574 95.2567 35.8814 95.8911 35.247C96.8671 35.4422 97.9407 35.5886 99.1607 35.735C100.332 35.8814 101.357 36.0278 102.186 36.223C100.82 37.9798 99.6487 39.4438 97.9407 41.4934C93.7927 40.9566 88.7174 41.7862 84.667 43.9822C82.2758 45.2998 79.787 47.1543 78.9574 50.0823C78.4206 51.9367 79.1038 53.8399 80.4214 54.7671C82.1294 55.9383 84.3254 54.9623 86.2286 54.0351C89.0102 52.6687 91.1574 50.5703 93.1582 48.3743C93.939 47.4959 95.5007 45.5926 95.5495 45.5438C96.8183 45.8854 97.9407 46.227 99.0143 46.8126C100.478 47.5447 100.869 47.8863 102.333 49.0087C102.382 49.0575 103.602 50.2775 103.602 50.3263L104.236 49.7407C108.091 46.5198 111.8 42.7134 112.434 37.8334C112.727 35.1494 110.678 33.0998 109.018 32.319ZM89.059 28.7565C88.0342 28.1221 87.2046 27.3901 87.2534 26.2189C87.2534 24.5597 88.327 22.8029 89.8886 22.0709C93.4511 20.4117 97.0135 21.2901 99.7951 22.4613C101.552 23.1933 102.87 24.1693 104.09 25.0477C101.991 27.5365 101.454 28.1221 99.4047 30.4646C94.9639 30.1718 90.1326 29.5861 89.059 28.7565ZM93.9391 46.5198C91.6942 49.2527 90.1814 50.4727 87.2046 52.4247C85.5942 53.4983 83.9838 54.0839 82.227 54.0351C81.739 54.0351 81.1534 53.9375 80.7142 53.6447C79.787 53.0591 79.543 51.7415 79.9822 50.5215C81.2022 47.6423 85.2526 45.6414 89.5958 45.0558C90.8158 44.9094 92.0358 44.8118 94.7687 45.3974C94.7199 45.5926 94.0855 46.3734 93.9391 46.5198ZM98.6239 41.6886C100.039 39.7854 101.405 38.175 102.772 36.4182C103.016 36.467 103.26 36.5158 103.504 36.6134C103.797 36.711 104.138 36.8086 104.431 36.9062C105.554 37.3454 106.725 37.8822 107.652 38.6142C108.774 39.5414 109.604 41.103 109.409 42.567C109.262 43.543 108.774 44.4214 108.091 45.1046C108.042 45.1534 107.945 45.251 107.847 45.3486C107.798 45.3974 107.75 45.4462 107.652 45.495C104.724 43.4942 101.991 42.4694 98.6239 41.6886Z" fill="#6B7280"/>
<path d="M60.9025 9.48021L55.5344 10.6514L55.4856 10.505C55.4856 10.505 56.2176 10.3098 56.4128 10.0658C56.608 9.82182 56.5592 9.48022 56.5104 9.04101C56.4616 8.60181 56.3152 7.86981 56.12 7.0402C55.9248 6.1618 55.876 5.8202 55.632 4.94179C55.4856 4.30739 55.388 4.06339 55.0952 3.96579C54.8024 3.86819 54.168 3.91699 54.168 3.91699L54.1192 3.77058C54.1192 3.77058 56.364 3.28258 58.2673 2.84338C58.9505 2.69698 59.1945 2.64818 59.2433 2.40417H59.3409L59.5849 4.01459L59.4385 4.06339C59.4385 4.06339 59.2921 3.47778 58.9993 3.38018C58.7553 3.28258 58.3649 3.33138 57.9745 3.38018C57.7305 3.42898 57.3888 3.47778 57.096 3.52658C56.7056 3.62418 56.4128 3.67298 56.4128 3.67298C56.5592 4.55139 56.7544 5.5274 56.9496 6.357L58.6577 5.9666C58.7553 5.9178 58.9993 5.869 59.0969 5.72259C59.1945 5.52739 59.1945 5.3322 59.1945 5.03939L59.3409 4.99059L59.8289 7.089L59.6825 7.13781C59.6825 7.13781 59.4385 6.5522 59.1945 6.4058L57.096 6.89381C57.096 6.89381 57.34 8.01621 57.5352 8.74821C57.7304 9.48021 57.9257 9.72422 58.9017 9.52902C59.5849 9.38262 60.2193 9.08982 60.5609 8.60182C60.7561 8.30901 60.8537 7.82101 60.8537 7.82101H61.0001L60.9025 9.48021Z" fill="#6B7280"/>
<path d="M50.3619 5.08835C50.1667 5.28355 50.1179 5.52756 50.3131 6.16196C50.7523 7.82117 51.0939 8.99237 51.6795 10.8956C51.7283 11.1396 51.9235 11.6764 51.9235 11.6764L51.6795 11.774L45.1403 7.77236C45.1403 7.77236 45.8723 10.2612 46.2139 11.3348C46.5067 12.3108 46.7019 12.506 46.9459 12.5548C47.3363 12.6036 47.8731 12.506 47.8731 12.506L47.9219 12.6524L44.9451 13.5308L44.8963 13.3844C44.8963 13.3844 45.3843 13.1892 45.6771 12.9452C45.8723 12.7988 45.8723 12.4084 45.6771 11.6764C45.2867 10.1636 44.5059 7.38197 44.5059 7.38197C44.5059 7.38197 44.0667 7.08917 43.7251 6.99157C43.3835 6.89396 43.1395 6.94276 42.8467 6.99157L42.7979 6.84516L45.8235 5.96676L45.8723 6.11316C45.8723 6.11316 45.3843 6.30836 45.3355 6.60116C47.5315 8.01637 50.9475 9.96837 50.9475 9.96837C50.9475 9.96837 50.3131 7.86997 49.8251 6.40596C49.5323 5.52756 49.3859 5.38115 49.0443 5.33235C48.6539 5.33235 48.2147 5.38116 48.2147 5.38116L48.1659 5.23475L51.0939 4.40515L51.1427 4.55155C51.0939 4.64915 50.6059 4.84435 50.3619 5.08835Z" fill="#6B7280"/>
<path d="M73.3463 1.23293C73.0535 1.42813 72.8095 1.72093 72.4191 2.89214C71.7359 5.08815 70.9063 8.26017 70.9063 8.26017L70.6135 8.30897C70.6135 8.30897 70.4671 7.91857 70.3207 7.67457C69.4911 5.91776 68.1735 3.33135 68.1735 3.33135C68.1735 3.33135 67.3439 6.01536 66.6119 8.69938L66.3191 8.74817C66.3191 8.74817 66.1727 8.40658 66.0263 8.11377C65.2943 6.45457 64.5623 4.89295 63.8303 3.33135C63.5863 2.79454 63.3423 2.50174 63.0983 2.40414C62.6591 2.20894 62.1711 2.20894 62.1711 2.20894V2.06254L65.5383 1.72094V1.86734C65.2943 1.96494 64.7575 2.01374 64.8063 2.50174C64.8063 2.69694 64.9039 2.94094 65.0503 3.28254C65.3919 4.06335 65.8799 5.13695 66.6607 6.79616C67.0999 5.23455 67.8319 2.69694 67.8319 2.69694C67.5879 2.20894 67.4415 2.11134 67.1975 1.96494C66.8559 1.76974 66.4167 1.81853 66.4167 1.81853V1.67214L69.8327 1.28173V1.42813C69.5887 1.47694 68.8567 1.62334 68.9055 2.20894C68.9055 2.40414 69.0031 2.64814 69.1495 2.98975C69.7351 4.20975 70.2719 5.23456 70.9063 6.40576C70.9063 6.40576 71.4431 4.40495 71.7847 2.98975C71.9311 2.40414 71.9799 2.01374 71.9311 1.76974C71.8823 1.28174 71.3455 1.33053 71.0527 1.33053V1.18413L74.1271 0.842529V0.988932C74.1271 0.940131 73.6391 1.03773 73.3463 1.23293Z" fill="#6B7280"/>
<path d="M87.6457 1.47697C87.4017 1.57457 87.1577 1.76978 86.8161 2.25778C86.1329 3.23378 85.0593 4.89299 85.0593 4.89299C85.0105 5.13699 85.0105 5.5274 84.9617 5.869C84.9617 6.2106 84.9129 6.5034 84.9129 6.7474C84.9129 7.18661 84.9129 7.52821 85.2057 7.72341C85.4497 7.86981 86.0841 7.96741 86.0841 7.96741V8.11381L82.424 7.86981V7.72341C82.424 7.72341 83.0585 7.72341 83.3513 7.62581C83.6441 7.52821 83.7417 7.2354 83.7905 6.6986C83.8393 6.0642 83.8881 5.1858 83.8881 5.1858C83.8881 5.1858 82.9609 3.08738 82.2776 1.86737C82.0336 1.42817 81.8384 1.18417 81.692 1.08657C81.448 0.940166 81.1064 0.842566 81.1064 0.842566V0.696167L84.1321 0.891369V1.03777C83.9369 1.03777 83.4488 1.08657 83.4 1.42817C83.4 1.57457 83.4489 1.76977 83.5953 2.16017C83.7905 2.55057 84.7665 4.50259 84.7665 4.50259C84.7665 4.50259 85.4985 3.42898 86.0353 2.35538C86.1817 2.06258 86.2793 1.81857 86.2793 1.67217C86.3281 1.18417 85.7913 1.13537 85.5473 1.13537V0.988968L88.1825 1.18417V1.33057C88.2801 1.37937 87.9385 1.33057 87.6457 1.47697Z" fill="#6B7280"/>
<path d="M93.0624 9.04072C91.1592 8.69912 89.5487 6.94231 89.9879 4.6975C90.3784 2.59909 92.3792 1.37908 94.5264 1.76949C96.5272 2.15989 98.04 3.86789 97.6008 6.0639C97.2104 8.25992 95.1608 9.43112 93.0624 9.04072ZM94.3312 2.15988C92.7208 1.86708 91.696 3.28229 91.4032 4.8927C91.0128 6.89351 91.8424 8.40632 93.3064 8.69912C94.9168 8.99192 95.9416 7.72312 96.2832 5.91751C96.576 4.1607 95.9416 2.45268 94.3312 2.15988Z" fill="#6B7280"/>
<path d="M106.531 11.3349C105.409 11.0909 104.53 10.5541 104.042 9.38289C103.701 8.60209 103.652 7.91889 103.554 7.47969C103.213 7.43089 102.383 7.43088 102.383 7.43088C102.383 7.43088 102.188 8.35809 102.09 8.99249C102.042 9.38289 101.895 9.9197 102.334 10.1637C102.578 10.2613 102.969 10.4077 102.969 10.4077L102.92 10.5541L99.5527 9.8221L99.6015 9.6757C99.6015 9.6757 100.187 9.7733 100.431 9.62689C100.773 9.48049 100.822 9.09009 100.919 8.74849C101.017 8.35809 101.212 7.52848 101.407 6.69888C101.554 6.01567 101.7 5.18607 101.798 4.55167C101.895 3.86847 101.895 3.62446 101.749 3.42926C101.505 3.18526 101.017 3.03886 101.017 3.03886L101.066 2.89246C101.066 2.89246 102.822 3.23406 103.701 3.42926C105.311 3.77086 106.482 4.60047 106.19 5.82047C105.994 6.79648 105.067 7.08928 104.482 7.23568C104.482 7.23568 104.628 8.26049 105.36 9.5293C105.506 9.8221 105.946 10.4077 106.336 10.7493C106.824 11.1397 107.361 11.2861 107.507 11.3349L107.458 11.4813C107.312 11.4813 106.873 11.4325 106.531 11.3349ZM103.164 3.72207L102.481 6.84528L103.554 7.18688C104.091 7.08928 104.774 6.65008 104.97 5.77168C105.262 4.50287 103.945 3.86847 103.164 3.72207Z" fill="#6B7280"/>
<path d="M109.46 12.1641L109.509 12.0177C109.509 12.0177 110.046 12.1153 110.338 12.1153C110.582 12.1153 110.778 11.9689 111.022 11.2369C111.266 10.6024 111.51 9.96804 111.754 9.13844C111.998 8.40643 112.193 7.82084 112.388 7.13763C112.486 6.79603 112.632 6.40563 112.437 6.16163C112.242 5.91763 111.705 5.67362 111.705 5.67362L111.754 5.52722L114.828 6.60083L114.779 6.74723C114.779 6.74723 114.34 6.60083 114.047 6.64963C113.754 6.69843 113.608 7.08883 113.413 7.47923C113.169 8.16244 112.974 8.65043 112.73 9.48004C112.437 10.3584 112.29 10.8464 112.046 11.6761C111.851 12.2617 111.851 12.5057 112.095 12.7497C112.29 12.9449 112.778 13.1889 112.778 13.1889L112.73 13.3353L109.46 12.1641ZM113.559 13.5305L113.608 13.3841C113.608 13.3841 114.096 13.5305 114.291 13.3353C114.291 13.1401 114.194 12.7985 114.096 12.7009C113.559 11.1881 112.925 9.82165 112.925 9.82165C113.754 9.33364 114.486 8.84564 115.267 8.26003C115.706 7.91843 115.902 7.72323 115.999 7.52803C116.097 7.23523 115.755 7.04003 115.462 6.89363L115.511 6.74723L118.439 7.72323L118.39 7.86964C118.146 7.82084 117.414 7.52803 115.999 8.30884C115.462 8.60164 114.389 9.28484 113.998 9.57765C114.486 10.8953 114.877 11.9689 115.218 12.7497C115.511 13.4817 115.755 13.8233 116.048 14.0673C116.243 14.2137 116.39 14.3113 116.634 14.4089L116.585 14.5553L113.559 13.5305Z" fill="#6B7280"/>
</svg>
