<svg width="131" height="51" viewBox="0 0 131 51" fill="none" xmlns="http://www.w3.org/2000/svg">
<path d="M46.0831 0.999514C47.0729 1.17165 48.0855 1.28641 49.064 1.50445C51.3168 2.00938 53.3306 3.05368 55.1965 4.4193C55.9702 4.98161 55.9702 4.98161 56.7211 4.35044C57.2445 3.90289 57.7678 3.46681 58.4164 2.91597C58.4164 6.33575 58.4164 9.61783 58.4164 12.9229C57.6427 13.1868 57.5972 13.1638 57.3241 12.3261C56.4139 9.45717 54.9348 6.94397 52.5797 5.03899C47.6418 1.05689 40.4626 2.10119 36.5373 7.33415C34.8989 9.52602 34.0343 12.0392 33.7384 14.736C33.2492 19.1542 33.9091 23.3773 36.0139 27.3135C37.732 30.5152 40.1781 32.9252 43.7621 33.8432C48.2903 35.0023 52.2839 33.9465 55.572 30.5382C56.4139 29.666 57.1307 28.6791 57.9385 27.7037C58.3253 27.9447 58.7577 28.2086 59.2128 28.4955C59.1218 28.6562 59.0535 28.8053 58.9625 28.9316C56.6187 32.535 53.5581 35.2433 49.2916 36.1498C42.4878 37.6073 36.4577 36.1498 31.7474 30.7218C29.1305 27.7037 28.0041 24.0429 27.8562 20.0723C27.6742 15.4131 28.7437 11.1097 31.6791 7.403C34.66 3.63894 38.5853 1.59625 43.3297 1.09132C43.5231 1.06837 43.7166 1.01099 43.91 0.976562C44.6381 0.999514 45.3549 0.999514 46.0831 0.999514Z" fill="#6B7280"/>
<path d="M130.334 34.6353C130.265 34.7845 130.208 34.9337 130.14 35.0829C129.787 35.8977 129.002 36.3223 128.104 36.1501C127.296 36.0009 126.681 35.2435 126.67 34.3943C126.659 33.5566 127.25 32.7992 128.069 32.6156C128.911 32.4205 129.765 32.8566 130.117 33.6599C130.186 33.8091 130.254 33.9468 130.322 34.096C130.334 34.2681 130.334 34.4517 130.334 34.6353ZM130.015 34.4058C130.026 33.5796 129.344 32.8795 128.513 32.8566C127.671 32.8451 126.977 33.5107 126.954 34.337C126.932 35.1862 127.648 35.9206 128.479 35.9206C129.287 35.9321 130.004 35.2206 130.015 34.4058Z" fill="#6B7280"/>
<path d="M97.749 3.27139C97.749 2.77793 97.749 2.33038 97.749 1.82544C97.9651 1.81397 98.1586 1.80249 98.352 1.80249C106.248 1.80249 114.144 1.80249 122.04 1.79102C122.461 1.79102 122.666 1.8943 122.836 2.30743C123.951 4.93538 125.101 7.54038 126.273 10.2142C126.056 10.3749 125.795 10.5815 125.533 10.788C125.487 10.8225 125.442 10.8569 125.396 10.8913C125.294 10.7307 125.203 10.547 125.078 10.3979C123.633 8.83715 122.211 7.27644 120.743 5.73869C119.378 4.30421 117.626 3.60419 115.691 3.51238C112.71 3.37467 109.73 3.35172 106.76 3.28287C106.703 3.28287 106.658 3.30582 106.544 3.32877C106.532 3.52386 106.51 3.7419 106.51 3.94846C106.51 8.1486 106.521 12.3602 106.498 16.5604C106.498 17.0997 106.658 17.2259 107.17 17.2145C109.081 17.1686 111.004 17.203 112.915 17.1456C115.259 17.0768 116.329 16.262 117.068 14.0357C117.341 13.2094 117.546 12.3602 117.785 11.511C118.149 11.511 118.513 11.511 118.877 11.511C118.877 15.998 118.877 20.4621 118.877 24.9492C118.524 24.9492 118.172 24.9492 117.773 24.9492C117.626 24.3524 117.489 23.7557 117.33 23.1704C116.545 20.2211 115.464 19.326 112.437 19.2227C110.492 19.1654 108.535 19.2113 106.544 19.2113C106.532 19.3834 106.498 19.5441 106.498 19.7047C106.51 23.1245 106.521 26.5443 106.555 29.9641C106.567 30.6297 106.658 31.3067 106.76 31.9723C106.942 33.1773 107.693 33.9117 108.865 34.0609C110.116 34.2216 111.379 34.3019 112.642 34.3363C114.269 34.3708 115.896 34.3478 117.523 34.2904C119.071 34.2445 120.379 33.5445 121.369 32.3969C122.905 30.6182 124.35 28.7476 125.829 26.9115C126.011 26.682 126.17 26.441 126.375 26.1656C126.716 26.3492 127.046 26.5213 127.399 26.7049C127.137 27.5083 126.876 28.2771 126.648 29.0575C126.022 31.169 125.408 33.2806 124.816 35.3921C124.714 35.7479 124.566 35.8511 124.225 35.8397C115.566 35.8282 106.908 35.8397 98.2496 35.8282C98.0903 35.8282 97.931 35.8052 97.749 35.7938C97.749 35.3118 97.749 34.8642 97.749 34.3708C98.2041 34.3019 98.6478 34.2445 99.0801 34.1757C100.946 33.8658 101.56 33.1658 101.606 31.2608C101.663 28.7821 101.742 26.3148 101.742 23.836C101.754 18.6489 101.731 13.4619 101.697 8.27483C101.697 7.3912 101.606 6.49609 101.504 5.61245C101.378 4.44192 100.844 3.86813 99.6604 3.61567C99.046 3.47796 98.4202 3.38615 97.749 3.27139Z" fill="#6B7280"/>
<path d="M64.5036 1.76843C64.6515 1.76843 64.8563 1.76843 65.0497 1.76843C73.9356 1.76843 82.8329 1.76843 91.7187 1.75696C92.1852 1.75696 92.3559 1.91762 92.481 2.34222C93.3685 5.19969 94.2901 8.05716 95.223 10.9605C95.2458 10.9146 95.2344 10.9605 95.2117 10.972C94.3242 11.454 94.347 11.4425 93.7326 10.6622C92.3673 8.92932 90.9678 7.20796 89.5911 5.47511C88.4192 3.99474 86.8833 3.37504 85.0287 3.39799C83.7658 3.40947 82.5029 3.40947 81.24 3.38652C80.8645 3.37504 80.7508 3.51275 80.7508 3.89145C80.7621 12.395 80.7621 20.8871 80.7849 29.3906C80.7849 30.2743 80.8873 31.1694 80.9669 32.053C81.058 33.0055 81.57 33.6711 82.5029 33.8777C83.4928 34.0957 84.494 34.2334 85.4952 34.3252C86.0072 34.3711 86.212 34.5088 86.1437 35.0367C86.1096 35.2892 86.1324 35.5417 86.1324 35.8171C80.9101 35.8171 75.7446 35.8171 70.5451 35.8171C70.5451 35.3695 70.5451 34.922 70.5451 34.44C71.3529 34.3711 72.138 34.3252 72.923 34.2334C73.3895 34.176 73.8446 34.0728 74.2997 33.9465C75.1758 33.717 75.7105 33.1432 75.7788 32.2137C75.8812 30.8136 76.0177 29.4251 76.0291 28.025C76.0518 20.0379 76.0405 12.0507 76.0405 4.05211C76.0405 3.85703 76.0405 3.66194 76.0405 3.4439C75.847 3.42095 75.7333 3.39799 75.6081 3.39799C74.2656 3.39799 72.9344 3.42095 71.5918 3.39799C69.6008 3.36357 68.0193 4.18982 66.8019 5.73906C65.539 7.36862 64.2761 9.03261 63.0018 10.6851C62.3988 11.4655 62.4101 11.4655 61.4999 10.9491C62.4898 7.90798 63.491 4.8669 64.5036 1.76843Z" fill="#6B7280"/>
<path d="M0.709383 35.8171C0.58423 32.3973 0.459076 29.0349 0.333923 25.6036C0.652495 25.5692 1.01658 25.5348 1.44892 25.4889C1.58545 26.0512 1.69923 26.5906 1.83576 27.1299C2.80285 30.9284 5.04423 33.5449 8.83296 34.6925C10.9151 35.3236 12.9516 35.0826 14.8631 34.0154C18.538 31.9498 19.3458 26.9348 16.5014 23.8019C15.6709 22.8839 14.681 22.1839 13.5319 21.7593C11.7911 21.1051 10.0048 20.5658 8.27546 19.8772C7.06944 19.3952 5.86342 18.8674 4.79393 18.1559C2.04056 16.3197 0.982444 13.6 1.16449 10.3523C1.47168 4.70624 6.01133 0.930706 11.8708 1.29793C13.9074 1.42416 15.7391 2.12419 17.4685 3.15701C17.7985 3.3521 18.026 3.36357 18.3218 3.09963C18.7883 2.69798 19.2889 2.3537 19.8578 1.91762C20.2333 5.23413 20.586 8.4703 20.9501 11.7409C20.586 11.8212 20.256 11.9016 19.9375 11.9819C19.653 11.1097 19.4027 10.272 19.0955 9.45721C18.4584 7.7588 17.6164 6.16366 16.2853 4.9128C14.0894 2.83569 11.4953 2.3078 8.69643 3.30619C4.29331 4.87838 4.02025 10.1917 6.5802 12.9803C7.58143 14.0705 8.83296 14.7246 10.1983 15.2066C12.0869 15.8722 13.987 16.5033 15.887 17.1575C16.0691 17.2263 16.2511 17.3067 16.4332 17.387C20.1991 19.0854 22.2471 21.9429 22.2471 26.1545C22.2471 30.3431 20.3812 33.476 16.6266 35.2433C12.269 37.2975 7.93413 37.045 3.80408 34.463C3.39449 34.199 3.11005 34.1646 2.71183 34.463C2.08607 34.9564 1.40341 35.3581 0.709383 35.8171Z" fill="#6B7280"/>
<path d="M66.2781 48.5433C66.2553 48.7384 66.244 48.8761 66.2212 49.0367C66.0505 49.0367 65.8913 49.0367 65.6865 49.0367C65.6865 47.0514 65.6865 45.0891 65.6865 43.0693C65.8571 43.0693 66.0164 43.0693 66.244 43.0693C66.244 43.9644 66.244 44.8366 66.244 45.8235C66.8584 45.3301 67.4841 45.0546 68.1554 45.3186C68.5422 45.4678 68.9518 45.7088 69.2021 46.0301C69.8051 46.7875 69.6572 48.0154 68.9632 48.6695C68.2578 49.3466 67.3021 49.3122 66.2781 48.5433ZM67.5865 45.7891C66.8242 45.7891 66.244 46.3858 66.244 47.2006C66.244 48.0039 66.8128 48.6121 67.5751 48.6236C68.3488 48.6236 68.9063 48.0269 68.9177 47.2121C68.9177 46.3858 68.3602 45.7891 67.5865 45.7891Z" fill="#6B7280"/>
<path d="M15.3749 43.0586C15.5684 43.0586 15.7163 43.0586 15.9324 43.0586C15.9324 43.9652 15.9324 44.8488 15.9324 45.8243C16.5468 45.3193 17.1726 45.0554 17.8439 45.3193C18.2307 45.4685 18.6289 45.7095 18.8906 46.0308C19.4822 46.7653 19.3457 47.9702 18.6858 48.6243C17.9804 49.3358 17.0019 49.3129 15.9666 48.5325C15.9438 48.7047 15.9211 48.8539 15.8869 49.026C15.7276 49.026 15.5684 49.026 15.3749 49.026C15.3749 47.0522 15.3749 45.0898 15.3749 43.0586ZM18.6062 47.1784C18.5948 46.3636 18.0145 45.7784 17.2409 45.7898C16.4786 45.8013 15.9097 46.4095 15.9211 47.2243C15.9324 48.0276 16.5241 48.6244 17.2864 48.6129C18.0487 48.6014 18.6175 47.9932 18.6062 47.1784Z" fill="#6B7280"/>
<path d="M29.4829 49.0375C29.2553 49.0375 29.096 49.0375 28.914 49.0375C28.8912 48.8768 28.8685 48.7391 28.8457 48.544C28.0038 49.267 27.1277 49.4162 26.2517 48.7162C25.5235 48.1424 25.3642 46.9604 25.8534 46.1341C26.4337 45.1472 27.6625 44.975 28.8912 45.8128C28.8912 45.3078 28.8912 44.8718 28.8912 44.4357C28.8912 43.9881 28.8912 43.5406 28.8912 43.0586C29.1074 43.0586 29.2667 43.0586 29.4943 43.0586C29.4943 44.057 29.4943 45.0554 29.4943 46.0423C29.4829 47.0292 29.4829 48.0047 29.4829 49.0375ZM28.8799 47.2243C28.8912 46.398 28.3451 45.8013 27.5715 45.7898C26.7978 45.7784 26.2289 46.3636 26.2175 47.1784C26.2061 47.9932 26.7636 48.6014 27.5259 48.6129C28.2996 48.6244 28.8685 48.0391 28.8799 47.2243Z" fill="#6B7280"/>
<path d="M85.4492 43.0586C85.6312 43.0586 85.7791 43.0586 85.9725 43.0586C85.9725 43.9537 85.9725 44.8373 85.9725 45.9046C86.6779 45.239 87.4061 45.0669 88.1456 45.4111C88.4983 45.5718 88.8511 45.8816 89.0559 46.2144C89.5678 47.0177 89.3517 48.1538 88.6463 48.7506C87.9295 49.3703 86.9851 49.3129 86.0522 48.5555C86.018 48.7276 85.9953 48.8768 85.9612 49.049C85.8132 49.049 85.654 49.049 85.4492 49.049C85.4492 47.0522 85.4492 45.0898 85.4492 43.0586ZM88.669 47.2128C88.669 46.4095 88.1001 45.8013 87.3378 45.7898C86.5755 45.7898 85.9953 46.3866 85.9953 47.2013C85.9953 48.0047 86.5642 48.6129 87.3265 48.6243C88.0888 48.6243 88.669 48.0161 88.669 47.2128Z" fill="#6B7280"/>
<path d="M60.5212 48.2224C59.5428 49.4389 57.6541 49.5421 56.5049 48.4978C55.2762 47.3732 55.2307 45.2731 56.4025 44.0911C57.4834 43.0009 59.3266 43.0009 60.3733 44.1485C60.2027 44.2747 60.0434 44.401 59.8841 44.5272C58.8715 43.6321 57.6655 43.6551 56.8008 44.6649C55.993 45.6174 56.0726 47.2011 56.96 48.0503C57.8247 48.8765 58.9966 48.8192 60.0547 47.8667C60.2027 47.9585 60.3506 48.0847 60.5212 48.2224Z" fill="#6B7280"/>
<path d="M76.0288 47.3846C75.039 47.3846 74.0947 47.3846 73.1048 47.3846C73.1048 47.9355 73.3551 48.2912 73.7875 48.4863C74.4246 48.7847 74.9821 48.5552 75.4941 48.0732C75.6306 48.1765 75.7672 48.2797 75.8923 48.383C75.3007 49.1748 74.1971 49.3929 73.3551 48.9339C72.5359 48.4863 72.1832 47.3617 72.5701 46.3977C72.9114 45.5255 73.8557 45.0665 74.8001 45.296C75.6648 45.5141 76.1426 46.2829 76.0288 47.3846ZM75.3689 46.8453C75.3576 46.2026 75.0049 45.8354 74.3905 45.7895C73.6964 45.7436 73.2186 46.1338 73.1276 46.8453C73.8671 46.8453 74.618 46.8453 75.3689 46.8453Z" fill="#6B7280"/>
<path d="M3.82635 49.1752C3.56467 49.0145 3.35987 48.8883 3.10956 48.7276C2.75686 49.0948 2.22211 49.244 1.6191 49.1178C1.0616 49.003 0.708898 48.6473 0.663388 48.1538C0.617878 47.603 0.868184 47.1784 1.42568 46.9833C1.71012 46.88 2.01732 46.8226 2.32451 46.7882C2.60895 46.7538 2.89339 46.7767 3.37125 46.7767C3.18921 46.4325 3.13232 46.1111 2.9389 45.9849C2.34727 45.5833 1.77839 45.8242 1.17538 46.1915C1.07298 46.0882 0.959205 45.9734 0.845429 45.8587C1.48257 45.216 2.57482 45.0095 3.21196 45.4685C3.50778 45.6865 3.75808 46.1226 3.79222 46.4898C3.88324 47.3046 3.82635 48.1538 3.82635 49.1752ZM3.22334 47.2013C2.68859 47.2817 2.1766 47.2932 1.7215 47.4423C1.53946 47.4997 1.31191 47.8784 1.34604 48.062C1.39155 48.2801 1.66461 48.5555 1.88079 48.6129C2.68859 48.8309 3.25747 48.2686 3.22334 47.2013Z" fill="#6B7280"/>
<path d="M47.847 49.1516C46.6751 49.1631 45.8673 48.3942 45.8559 47.2467C45.8331 46.0647 46.6296 45.2499 47.8014 45.2384C48.9847 45.2269 49.8039 46.0302 49.7925 47.2008C49.7925 48.3598 49.0075 49.1402 47.847 49.1516ZM49.1554 47.1893C49.1554 46.3745 48.5979 45.7778 47.8242 45.7892C47.0505 45.7892 46.5044 46.386 46.5044 47.2122C46.5044 48.0385 47.0733 48.6238 47.8356 48.6238C48.5979 48.6123 49.1554 48.0155 49.1554 47.1893Z" fill="#6B7280"/>
<path d="M64.4242 49.163C64.1625 49.0023 63.9577 48.8876 63.696 48.7269C63.3433 49.1056 62.7858 49.2548 62.1601 49.1056C61.6708 48.9908 61.3068 48.7154 61.2612 48.1531C61.2157 47.5908 61.4547 47.1547 62.0122 46.9826C62.399 46.8563 62.82 46.8219 63.2296 46.7645C63.423 46.7416 63.6164 46.7645 63.8098 46.7645C63.7757 45.7202 63.0248 45.5137 61.7277 46.1678C61.6367 46.076 61.5229 45.9727 61.4092 45.8809C61.5002 45.7547 61.5229 45.6973 61.5684 45.6743C62.0008 45.5252 62.4331 45.2956 62.8769 45.2612C63.9008 45.1924 64.3787 45.6858 64.4015 46.7072C64.4128 47.0859 64.4015 47.476 64.4015 47.8547C64.4242 48.2334 64.4242 48.6121 64.4242 49.163ZM63.8098 47.2351C63.3547 47.281 62.8882 47.281 62.4445 47.3728C62.1032 47.4416 61.8643 47.6826 61.9098 48.0728C61.9553 48.4744 62.2283 48.6121 62.5924 48.6466C63.3775 48.7154 63.8553 48.222 63.8098 47.2351Z" fill="#6B7280"/>
<path d="M32.7254 45.7666C33.3967 45.2272 34.1248 45.1239 34.8871 45.3649C35.4674 45.5485 35.6722 46.0305 35.6836 46.6043C35.6949 47.3961 35.6836 48.1994 35.6836 49.0372C35.3877 49.106 35.1033 49.1634 35.1261 48.5896C34.6027 49.106 34.0338 49.2896 33.3967 49.1175C32.9074 48.9798 32.5547 48.7044 32.5206 48.142C32.4865 47.5797 32.7368 47.1781 33.2601 47.0059C33.6356 46.8797 34.0338 46.8453 34.4206 46.7879C34.6254 46.765 34.8416 46.7879 35.0578 46.7879C35.0692 46.1453 34.853 45.8469 34.3069 45.8239C33.9997 45.8125 33.647 45.8698 33.3739 46.019C33.0553 46.1682 32.8847 46.1338 32.7254 45.7666ZM35.0805 47.201C34.5344 47.2814 34.0338 47.2928 33.5673 47.442C33.3853 47.5109 33.1805 47.8896 33.2032 48.1191C33.2146 48.3027 33.5218 48.5666 33.7266 48.6126C34.5458 48.8191 35.1033 48.2683 35.0805 47.201Z" fill="#6B7280"/>
<path d="M83.6741 46.6277C83.5262 46.3982 83.4238 46.0654 83.2076 45.9392C82.6501 45.6064 82.0926 45.8244 81.5579 46.1572C81.4441 46.0539 81.3303 45.9507 81.2165 45.8474C81.262 45.7785 81.2734 45.7211 81.3076 45.6867C81.8195 45.2621 82.4112 45.1818 83.0483 45.2621C83.7196 45.3539 84.1064 45.7211 84.1519 46.4097C84.1975 47.2589 84.1633 48.1081 84.1633 49.1065C83.9472 49.0032 83.731 48.9114 83.4352 48.7737C83.0597 49.1295 82.4681 49.2901 81.7968 49.0721C81.3417 48.9229 81.0573 48.636 81.0231 48.1311C80.989 47.6261 81.1938 47.213 81.6603 47.0409C82.0471 46.9031 82.4567 46.8458 82.8663 46.7769C83.0938 46.7425 83.3214 46.7654 83.5603 46.7654C83.5945 46.7195 83.6286 46.6736 83.6741 46.6277ZM83.5717 47.2359C83.0938 47.2819 82.6501 47.2819 82.2178 47.3622C81.8537 47.431 81.592 47.6835 81.6603 48.0966C81.7172 48.4868 82.0016 48.613 82.3657 48.6475C83.1393 48.7048 83.5831 48.2343 83.5717 47.2359Z" fill="#6B7280"/>
<path d="M39.5186 50.4487C40.4971 50.4487 41.0659 49.5765 40.6791 48.6355C40.2468 47.5568 39.803 46.4895 39.3593 45.3993C39.8258 45.2387 40.0761 45.3534 40.224 45.824C40.4971 46.6043 40.827 47.3732 41.1911 48.3027C41.5438 47.3732 41.8624 46.6043 42.1354 45.8125C42.272 45.3993 42.4768 45.2502 42.9432 45.3993C42.7498 45.9158 42.545 46.4322 42.3516 46.9601C41.9306 48.0273 41.5211 49.0831 41.1001 50.1503C40.8839 50.6897 40.5198 51.0225 39.9168 50.9995C39.4503 50.9881 39.4162 50.9307 39.5186 50.4487Z" fill="#6B7280"/>
<path d="M13.4636 45.3763C13.7253 45.3763 13.8732 45.3763 14.0666 45.3763C14.0666 46.5928 14.0666 47.7863 14.0666 48.9912C13.6115 49.083 13.6115 49.083 13.5205 48.6928C13.1451 48.842 12.7696 49.0945 12.36 49.1404C11.4839 49.2552 10.9151 48.7617 10.8696 47.8781C10.824 47.0633 10.8582 46.2485 10.8582 45.3878C11.0516 45.3763 11.2223 45.3649 11.4498 45.3534C11.4498 46.0878 11.4498 46.7764 11.4498 47.4649C11.4498 48.2223 11.7001 48.5666 12.2349 48.624C12.8606 48.6814 13.384 48.2682 13.4295 47.5567C13.4978 46.8452 13.4636 46.1337 13.4636 45.3763Z" fill="#6B7280"/>
<path d="M77.2802 49.0252C77.2802 47.1547 77.2802 45.3186 77.2802 43.4365C77.485 43.4365 77.6557 43.4365 77.8832 43.4365C77.8832 45.089 77.8832 46.7415 77.8832 48.4514C78.7593 48.4514 79.5785 48.4514 80.4318 48.4514C80.4318 48.681 80.4318 48.8301 80.4318 49.0138C79.3851 49.0252 78.3497 49.0252 77.2802 49.0252Z" fill="#6B7280"/>
<path d="M90.3991 48.1195C90.8201 48.4982 91.241 48.7621 91.753 48.5326C91.9464 48.4408 92.1626 48.1998 92.1967 48.0047C92.2195 47.8556 91.9692 47.6146 91.7871 47.5228C91.4686 47.3736 91.0931 47.3277 90.7518 47.2129C90.3763 47.0867 90.0691 46.8227 90.1374 46.4211C90.1943 46.0883 90.3763 45.6752 90.638 45.4801C91.2979 44.9981 92.2081 45.2046 92.7087 45.8817C92.5722 45.985 92.4357 46.0883 92.3105 46.203C92.3105 46.1457 92.3105 46.0998 92.3105 46.0424C91.9237 45.9735 91.5482 45.8588 91.1614 45.8588C91.0135 45.8588 90.7745 46.1112 90.7518 46.2719C90.7404 46.4096 90.9452 46.6506 91.1045 46.7194C91.3889 46.8572 91.7303 46.8916 92.0375 46.9834C92.5381 47.1211 92.8566 47.4309 92.8566 47.9933C92.868 48.5211 92.5836 48.9113 92.0261 49.0605C91.2752 49.2671 90.5584 49.2212 89.9667 48.5097C90.1146 48.3949 90.2398 48.2802 90.3991 48.1195Z" fill="#6B7280"/>
<path d="M19.9257 48.4636C20.085 48.3489 20.2102 48.2571 20.3353 48.1538C20.3353 48.2112 20.3239 48.2571 20.3239 48.3145C20.7563 48.3948 21.2 48.544 21.6324 48.544C21.803 48.544 22.0761 48.2341 22.1216 48.0276C22.1443 47.8899 21.8827 47.6144 21.6892 47.5226C21.382 47.3734 20.9952 47.3849 20.7222 47.2128C20.4605 47.0521 20.1305 46.7538 20.1191 46.4898C20.0964 46.1685 20.2898 45.7324 20.5401 45.5258C21.1545 45.0094 22.133 45.193 22.6791 45.8816C22.5426 45.9849 22.4174 46.0996 22.2809 46.2029C22.2809 46.157 22.2809 46.1111 22.2809 46.0537C21.8827 45.9849 21.4844 45.8701 21.0862 45.8701C20.9497 45.8701 20.7335 46.1341 20.7108 46.3062C20.688 46.421 20.8928 46.6505 21.0521 46.7193C21.3593 46.857 21.712 46.9029 22.0419 46.9947C22.5198 47.1439 22.8156 47.4423 22.827 47.9702C22.827 48.5095 22.5653 48.8538 22.0647 49.0374C21.2455 49.3473 20.4377 49.1407 19.9257 48.4636Z" fill="#6B7280"/>
<path d="M52.6822 45.376C52.7619 46.1793 52.0906 45.6514 51.8176 45.9727C51.8176 46.9137 51.8176 47.9465 51.8176 49.0253C51.6014 49.0367 51.4307 49.0482 51.2032 49.0712C51.2032 47.981 51.2032 46.9367 51.2032 45.8809C50.9073 45.8465 50.6798 45.8235 50.4522 45.8006C50.293 45.0661 50.9187 45.4907 51.2145 45.1924C51.2145 44.9284 51.1918 44.5612 51.2145 44.1825C51.2828 43.3218 51.7379 42.8972 52.5343 42.9316C52.9326 42.9546 52.9326 42.9546 52.887 43.4366C51.7834 43.5628 51.6696 43.7464 51.8517 45.3071C52.0906 45.3301 52.3523 45.353 52.6822 45.376Z" fill="#6B7280"/>
<path d="M7.02435 48.4748C7.14951 48.3601 7.28604 48.2568 7.42257 48.142C7.42257 48.1994 7.42257 48.2683 7.42257 48.3256C7.85491 48.406 8.28726 48.5551 8.71961 48.5437C8.89027 48.5437 9.16333 48.2223 9.20884 48.0158C9.2316 47.8781 8.95854 47.6141 8.76512 47.5108C8.48068 47.3731 8.13935 47.3387 7.83216 47.2354C7.44532 47.1092 7.17226 46.8682 7.14951 46.4207C7.12675 45.9731 7.30879 45.6518 7.69563 45.4337C8.40104 45.0436 9.2316 45.2042 9.74359 45.8698C9.59568 45.9846 9.45915 46.0993 9.32262 46.2026C9.32262 46.1567 9.32262 46.0993 9.32262 46.0534C8.92441 45.9846 8.52619 45.8813 8.12798 45.8813C7.99145 45.8813 7.77527 46.1452 7.74114 46.3174C7.71838 46.4321 7.93456 46.6502 8.09384 46.719C8.40104 46.8567 8.75374 46.9026 9.08369 47.0059C9.56155 47.1551 9.85737 47.4535 9.85737 47.9928C9.85737 48.5437 9.5843 48.8765 9.09507 49.0601C8.28726 49.347 7.47946 49.1289 7.02435 48.4748Z" fill="#6B7280"/>
<path d="M70.7383 43.0468C70.9089 43.0468 71.0569 43.0468 71.2389 43.0468C71.2389 45.0321 71.2389 47.0059 71.2389 49.0142C71.091 49.0256 70.9317 49.0371 70.7383 49.0601C70.7383 47.0518 70.7383 45.0894 70.7383 43.0468Z" fill="#6B7280"/>
<path d="M37.5048 45.7203C37.9826 45.5252 38.4263 45.3416 39.0066 45.1006C38.9838 45.4678 38.9838 45.6514 38.9725 45.8236C37.8688 45.9039 37.5616 46.2482 37.5389 47.3384C37.5275 47.9007 37.5389 48.4515 37.5389 49.0368C37.3341 49.0368 37.1862 49.0368 36.9814 49.0368C36.9814 47.8203 36.9814 46.6383 36.9814 45.399C37.2658 45.3186 37.573 45.2153 37.5048 45.7203Z" fill="#6B7280"/>
<path d="M31.3495 49.0371C31.1674 49.0371 31.0082 49.0371 30.8261 49.0371C30.8261 47.8207 30.8261 46.6157 30.8261 45.3763C30.9968 45.3649 31.1447 45.3649 31.3495 45.3534C31.3495 46.5813 31.3495 47.7748 31.3495 49.0371Z" fill="#6B7280"/>
<path d="M24.3857 49.0368C24.215 49.0368 24.0671 49.0368 23.8964 49.0368C23.8964 47.8203 23.8964 46.6383 23.8964 45.3875C24.033 45.376 24.1809 45.353 24.3857 45.3301C24.3857 46.5695 24.3857 47.7859 24.3857 49.0368Z" fill="#6B7280"/>
<path d="M24.1239 44.4928C23.9305 44.1715 23.7371 43.9879 23.7485 43.8272C23.7598 43.678 24.0329 43.4141 24.1239 43.4485C24.2946 43.4944 24.5221 43.701 24.5449 43.8616C24.5676 44.0108 24.3401 44.1829 24.1239 44.4928Z" fill="#6B7280"/>
<path d="M31.053 44.493C30.8709 44.1717 30.6775 43.9881 30.6889 43.8274C30.7003 43.6782 30.9733 43.4258 31.0757 43.4487C31.2464 43.4946 31.4739 43.7012 31.4967 43.8733C31.5081 44.011 31.2805 44.1832 31.053 44.493Z" fill="#6B7280"/>
<path d="M130.015 34.4055C130.004 35.2203 129.287 35.9318 128.479 35.9318C127.637 35.9318 126.932 35.1859 126.955 34.3481C126.978 33.5104 127.672 32.8448 128.514 32.8678C129.344 32.8678 130.027 33.5678 130.015 34.4055ZM127.888 33.3612C127.888 34.0842 127.888 34.7268 127.888 35.381C127.945 35.3924 128.002 35.4039 128.058 35.4039C128.115 35.117 128.161 34.8416 128.24 34.417C128.593 34.8186 128.855 35.1285 129.128 35.4498C129.173 35.4154 129.208 35.381 129.253 35.3465C129.117 35.0941 128.991 34.8531 128.843 34.5777C129.242 34.3826 129.424 34.0498 129.219 33.6825C128.912 33.1317 128.366 33.3957 127.888 33.3612Z" fill="#6B7280"/>
<path d="M127.888 33.3612C128.366 33.4072 128.912 33.1317 129.219 33.6826C129.424 34.0498 129.242 34.3826 128.843 34.5777C128.991 34.8531 129.117 35.0941 129.253 35.3466C129.208 35.381 129.173 35.4154 129.128 35.4498C128.855 35.14 128.582 34.8187 128.24 34.417C128.161 34.8416 128.104 35.1285 128.058 35.4039C128.002 35.3925 127.945 35.381 127.888 35.381C127.888 34.7269 127.888 34.0727 127.888 33.3612ZM128.138 33.5449C128.161 33.8891 128.172 34.0498 128.184 34.3023C128.468 34.2219 128.684 34.176 128.889 34.0957C128.934 34.0727 128.934 33.8318 128.9 33.8203C128.696 33.717 128.468 33.6596 128.138 33.5449Z" fill="#6B7280"/>
<path d="M128.138 33.5448C128.468 33.6596 128.695 33.7169 128.9 33.8087C128.934 33.8202 128.923 34.0727 128.889 34.0842C128.684 34.176 128.468 34.2104 128.183 34.2907C128.172 34.0497 128.16 33.8891 128.138 33.5448Z" fill="#6B7280"/>
</svg>
