<svg width="133" height="48" viewBox="0 0 133 48" fill="none" xmlns="http://www.w3.org/2000/svg">
<path d="M37.2678 25.92C35.0245 25.92 33.0385 27.0168 31.8146 28.7016L25.6979 25.0368C25.871 24.5208 25.9672 23.9712 25.9672 23.3976C25.9672 20.5512 23.6518 18.24 20.7978 18.24C19.2422 18.24 17.8501 18.9288 16.9027 20.0136L7.83104 14.6256C7.89596 14.3616 7.93443 14.0856 7.93443 13.8C7.93443 13.4784 7.88634 13.1688 7.80459 12.8712L17.5495 7.4664C18.3622 8.3352 19.5139 8.88 20.7978 8.88C22.1154 8.88 23.296 8.304 24.111 7.3968L24.1086 7.4064L31.6343 11.8296C31.3891 12.48 31.2568 13.1832 31.2568 13.92C31.2568 17.2344 33.9473 19.92 37.2678 19.92C40.5882 19.92 43.2787 17.2344 43.2787 13.92C43.2787 10.6056 40.5882 7.92 37.2678 7.92C35.301 7.92 33.5554 8.8632 32.459 10.32L25.2459 6.2256V6.24L24.943 6.0384C25.1353 5.5416 25.2459 5.004 25.2459 4.44C25.2459 1.9872 23.2551 0 20.7978 0C18.3405 0 16.3497 1.9872 16.3497 4.44C16.3497 5.0064 16.4603 5.544 16.6527 6.0408L16.6479 6.036L7.15541 11.6112C6.51585 10.824 5.54208 10.32 4.44809 10.32C2.52219 10.32 0.961749 11.8776 0.961749 13.8C0.961749 15.7224 2.52219 17.28 4.44809 17.28C5.37617 17.28 6.2177 16.9152 6.84284 16.3248L15.9458 21.636C15.7438 22.188 15.6284 22.7784 15.6284 23.4C15.6284 26.2488 17.9438 28.56 20.7978 28.56C22.44 28.56 23.8995 27.7944 24.8468 26.6016L30.9563 30.3C30.6846 31.0296 30.5355 31.8168 30.5355 32.64C30.5355 33.4176 30.6702 34.164 30.913 34.86L25.4118 38.4672C24.3322 37.1112 22.6684 36.24 20.7978 36.24C18.9008 36.24 17.2153 37.1352 16.1381 38.5248L8.67978 34.1256C8.81923 33.696 8.89618 33.2352 8.89618 32.76C8.89618 30.3072 6.90536 28.32 4.44809 28.32C1.99082 28.32 0 30.3072 0 32.76C0 35.2128 1.99082 37.2 4.44809 37.2C5.84262 37.2 7.08568 36.5592 7.90077 35.5584L15.2557 40.1256C15.0297 40.7496 14.9071 41.4192 14.9071 42.12C14.9071 45.3672 17.5447 48 20.7978 48C24.0509 48 26.6885 45.3672 26.6885 42.12C26.6885 41.352 26.5395 40.62 26.2726 39.948L31.7377 36.4704C32.9543 38.2152 34.9764 39.36 37.2678 39.36C40.9849 39.36 44 36.3504 44 32.64C44 28.9296 40.9849 25.92 37.2678 25.92Z" fill="#1F2937"/>
<path d="M66.78 20.24C65.8333 20.24 64.9667 20.0667 64.18 19.72C63.3933 19.36 62.7267 18.8733 62.18 18.26C61.6333 17.6467 61.24 16.96 61 16.2L62.7 15.5C63.06 16.46 63.5933 17.2 64.3 17.72C65.02 18.2267 65.86 18.48 66.82 18.48C67.4067 18.48 67.92 18.3867 68.36 18.2C68.8 18.0133 69.14 17.7533 69.38 17.42C69.6333 17.0733 69.76 16.6733 69.76 16.22C69.76 15.5933 69.58 15.1 69.22 14.74C68.8733 14.3667 68.36 14.0867 67.68 13.9L64.94 13.06C63.86 12.7267 63.0333 12.2 62.46 11.48C61.8867 10.76 61.6 9.93333 61.6 9C61.6 8.18667 61.7933 7.47333 62.18 6.86C62.58 6.23333 63.1267 5.74667 63.82 5.4C64.5267 5.04 65.3267 4.86 66.22 4.86C67.1133 4.86 67.92 5.02 68.64 5.34C69.3733 5.66 69.9933 6.09333 70.5 6.64C71.0067 7.17333 71.38 7.78667 71.62 8.48L69.94 9.18C69.62 8.34 69.14 7.70667 68.5 7.28C67.86 6.84 67.1067 6.62 66.24 6.62C65.7067 6.62 65.2333 6.71333 64.82 6.9C64.42 7.07333 64.1067 7.33333 63.88 7.68C63.6667 8.01333 63.56 8.41333 63.56 8.88C63.56 9.42667 63.7333 9.91333 64.08 10.34C64.4267 10.7667 64.9533 11.0933 65.66 11.32L68.16 12.06C69.3333 12.42 70.22 12.9333 70.82 13.6C71.42 14.2667 71.72 15.0933 71.72 16.08C71.72 16.8933 71.5067 17.6133 71.08 18.24C70.6667 18.8667 70.0867 19.36 69.34 19.72C68.6067 20.0667 67.7533 20.24 66.78 20.24ZM74.3697 24V9.22H76.1897V11.54L75.9497 11.08C76.3497 10.44 76.8964 9.93333 77.5897 9.56C78.283 9.17333 79.0764 8.98 79.9697 8.98C80.983 8.98 81.8897 9.22667 82.6897 9.72C83.503 10.2133 84.143 10.8867 84.6097 11.74C85.0764 12.58 85.3097 13.54 85.3097 14.62C85.3097 15.6733 85.0764 16.6267 84.6097 17.48C84.143 18.3333 83.503 19.0067 82.6897 19.5C81.8897 19.9933 80.9764 20.24 79.9497 20.24C79.083 20.24 78.2897 20.0467 77.5697 19.66C76.863 19.2733 76.3164 18.7267 75.9297 18.02L76.2297 17.7V24H74.3697ZM79.8097 18.44C80.4897 18.44 81.0964 18.2733 81.6297 17.94C82.163 17.6067 82.5764 17.1533 82.8697 16.58C83.1764 15.9933 83.3297 15.34 83.3297 14.62C83.3297 13.8733 83.1764 13.22 82.8697 12.66C82.5764 12.0867 82.163 11.6333 81.6297 11.3C81.0964 10.9533 80.4897 10.78 79.8097 10.78C79.1297 10.78 78.5164 10.9467 77.9697 11.28C77.4364 11.6133 77.0097 12.0733 76.6897 12.66C76.383 13.2333 76.2297 13.8867 76.2297 14.62C76.2297 15.34 76.383 15.9933 76.6897 16.58C77.0097 17.1533 77.4364 17.6067 77.9697 17.94C78.5164 18.2733 79.1297 18.44 79.8097 18.44ZM92.8686 20.24C91.8286 20.24 90.8886 20 90.0486 19.52C89.2086 19.0267 88.5419 18.3533 88.0486 17.5C87.5553 16.6467 87.3086 15.68 87.3086 14.6C87.3086 13.52 87.5486 12.56 88.0286 11.72C88.5219 10.88 89.1886 10.2133 90.0286 9.72C90.8686 9.22667 91.8153 8.98 92.8686 8.98C93.9086 8.98 94.8486 9.22667 95.6886 9.72C96.5286 10.2 97.1886 10.86 97.6686 11.7C98.1619 12.54 98.4086 13.5067 98.4086 14.6C98.4086 15.6933 98.1553 16.6667 97.6486 17.52C97.1419 18.36 96.4686 19.0267 95.6286 19.52C94.8019 20 93.8819 20.24 92.8686 20.24ZM92.8686 18.44C93.5353 18.44 94.1353 18.2733 94.6686 17.94C95.2153 17.6067 95.6419 17.1467 95.9486 16.56C96.2686 15.9733 96.4286 15.32 96.4286 14.6C96.4286 13.8667 96.2686 13.22 95.9486 12.66C95.6419 12.0867 95.2153 11.6333 94.6686 11.3C94.1353 10.9533 93.5353 10.78 92.8686 10.78C92.1886 10.78 91.5753 10.9533 91.0286 11.3C90.4953 11.6333 90.0686 12.0867 89.7486 12.66C89.4286 13.22 89.2686 13.8667 89.2686 14.6C89.2686 15.32 89.4286 15.9733 89.7486 16.56C90.0686 17.1467 90.4953 17.6067 91.0286 17.94C91.5753 18.2733 92.1886 18.44 92.8686 18.44ZM105.019 20.12C103.966 20.12 103.153 19.82 102.579 19.22C102.019 18.62 101.739 17.7733 101.739 16.68V11H99.7792V9.22H100.179C100.659 9.22 101.039 9.07333 101.319 8.78C101.599 8.48667 101.739 8.1 101.739 7.62V6.74H103.599V9.22H106.019V11H103.599V16.62C103.599 16.98 103.653 17.2933 103.759 17.56C103.879 17.8267 104.073 18.04 104.339 18.2C104.606 18.3467 104.959 18.42 105.399 18.42C105.493 18.42 105.606 18.4133 105.739 18.4C105.886 18.3867 106.019 18.3733 106.139 18.36V20C105.966 20.04 105.773 20.0667 105.559 20.08C105.346 20.1067 105.166 20.12 105.019 20.12ZM64.26 44V30.9H60.22V29.1H70.22V30.9H66.24V44H64.26ZM70.6978 44V33.22H72.5178V35.2L72.3178 34.92C72.5711 34.3067 72.9578 33.8533 73.4778 33.56C73.9978 33.2533 74.6311 33.1 75.3778 33.1H76.0378V34.86H75.0978C74.3378 34.86 73.7245 35.1 73.2578 35.58C72.7911 36.0467 72.5578 36.7133 72.5578 37.58V44H70.6978ZM82.65 44.24C81.61 44.24 80.6833 43.9933 79.87 43.5C79.0567 43.0067 78.4167 42.3333 77.95 41.48C77.4833 40.6133 77.25 39.6467 77.25 38.58C77.25 37.5 77.4767 36.54 77.93 35.7C78.3967 34.86 79.0233 34.2 79.81 33.72C80.61 33.2267 81.5033 32.98 82.49 32.98C83.29 32.98 83.9967 33.1267 84.61 33.42C85.2367 33.7 85.7633 34.0867 86.19 34.58C86.63 35.06 86.9633 35.6133 87.19 36.24C87.43 36.8533 87.55 37.4933 87.55 38.16C87.55 38.3067 87.5367 38.4733 87.51 38.66C87.4967 38.8333 87.4767 39 87.45 39.16H78.61V37.56H86.37L85.49 38.28C85.61 37.5867 85.5433 36.9667 85.29 36.42C85.0367 35.8733 84.6633 35.44 84.17 35.12C83.6767 34.8 83.1167 34.64 82.49 34.64C81.8633 34.64 81.29 34.8 80.77 35.12C80.25 35.44 79.8433 35.9 79.55 36.5C79.27 37.0867 79.1567 37.7867 79.21 38.6C79.1567 39.3867 79.2767 40.08 79.57 40.68C79.8767 41.2667 80.3033 41.7267 80.85 42.06C81.41 42.38 82.0167 42.54 82.67 42.54C83.39 42.54 83.9967 42.3733 84.49 42.04C84.9833 41.7067 85.3833 41.28 85.69 40.76L87.25 41.56C87.0367 42.0533 86.7033 42.5067 86.25 42.92C85.81 43.32 85.2833 43.64 84.67 43.88C84.07 44.12 83.3967 44.24 82.65 44.24ZM89.9752 44V33.22H91.7952V35.32L91.4952 35.14C91.7618 34.46 92.1885 33.9333 92.7752 33.56C93.3752 33.1733 94.0752 32.98 94.8752 32.98C95.6485 32.98 96.3352 33.1533 96.9352 33.5C97.5485 33.8467 98.0285 34.3267 98.3752 34.94C98.7352 35.5533 98.9152 36.2467 98.9152 37.02V44H97.0352V37.62C97.0352 37.02 96.9285 36.5133 96.7152 36.1C96.5018 35.6867 96.1952 35.3667 95.7952 35.14C95.4085 34.9 94.9618 34.78 94.4552 34.78C93.9485 34.78 93.4952 34.9 93.0952 35.14C92.7085 35.3667 92.4018 35.6933 92.1752 36.12C91.9485 36.5333 91.8352 37.0333 91.8352 37.62V44H89.9752ZM106.477 44.24C105.463 44.24 104.55 43.9933 103.737 43.5C102.937 43.0067 102.303 42.3333 101.837 41.48C101.37 40.6267 101.137 39.6733 101.137 38.62C101.137 37.54 101.37 36.58 101.837 35.74C102.303 34.8867 102.937 34.2133 103.737 33.72C104.55 33.2267 105.463 32.98 106.477 32.98C107.37 32.98 108.163 33.1733 108.857 33.56C109.55 33.9333 110.097 34.44 110.497 35.08L110.197 35.54V28.86H112.077V44H110.257V41.7L110.497 42.02C110.123 42.7267 109.577 43.2733 108.857 43.66C108.15 44.0467 107.357 44.24 106.477 44.24ZM106.637 42.44C107.317 42.44 107.923 42.2733 108.457 41.94C108.99 41.6067 109.41 41.1533 109.717 40.58C110.037 39.9933 110.197 39.34 110.197 38.62C110.197 37.8867 110.037 37.2333 109.717 36.66C109.41 36.0733 108.99 35.6133 108.457 35.28C107.923 34.9467 107.317 34.78 106.637 34.78C105.97 34.78 105.363 34.9533 104.817 35.3C104.283 35.6333 103.863 36.0867 103.557 36.66C103.25 37.22 103.097 37.8733 103.097 38.62C103.097 39.34 103.25 39.9933 103.557 40.58C103.863 41.1533 104.283 41.6067 104.817 41.94C105.35 42.2733 105.957 42.44 106.637 42.44ZM119.916 44.24C118.876 44.24 117.949 43.9933 117.136 43.5C116.322 43.0067 115.682 42.3333 115.216 41.48C114.749 40.6133 114.516 39.6467 114.516 38.58C114.516 37.5 114.742 36.54 115.196 35.7C115.662 34.86 116.289 34.2 117.076 33.72C117.876 33.2267 118.769 32.98 119.756 32.98C120.556 32.98 121.262 33.1267 121.876 33.42C122.502 33.7 123.029 34.0867 123.456 34.58C123.896 35.06 124.229 35.6133 124.456 36.24C124.696 36.8533 124.816 37.4933 124.816 38.16C124.816 38.3067 124.802 38.4733 124.776 38.66C124.762 38.8333 124.742 39 124.716 39.16H115.876V37.56H123.636L122.756 38.28C122.876 37.5867 122.809 36.9667 122.556 36.42C122.302 35.8733 121.929 35.44 121.436 35.12C120.942 34.8 120.382 34.64 119.756 34.64C119.129 34.64 118.556 34.8 118.036 35.12C117.516 35.44 117.109 35.9 116.816 36.5C116.536 37.0867 116.422 37.7867 116.476 38.6C116.422 39.3867 116.542 40.08 116.836 40.68C117.142 41.2667 117.569 41.7267 118.116 42.06C118.676 42.38 119.282 42.54 119.936 42.54C120.656 42.54 121.262 42.3733 121.756 42.04C122.249 41.7067 122.649 41.28 122.956 40.76L124.516 41.56C124.302 42.0533 123.969 42.5067 123.516 42.92C123.076 43.32 122.549 43.64 121.936 43.88C121.336 44.12 120.662 44.24 119.916 44.24ZM127.241 44V33.22H129.061V35.2L128.861 34.92C129.114 34.3067 129.501 33.8533 130.021 33.56C130.541 33.2533 131.174 33.1 131.921 33.1H132.581V34.86H131.641C130.881 34.86 130.267 35.1 129.801 35.58C129.334 36.0467 129.101 36.7133 129.101 37.58V44H127.241Z" fill="#1F2937"/>
</svg>
