<svg width="192" height="32" viewBox="0 0 192 32" fill="none" xmlns="http://www.w3.org/2000/svg">
<path fill-rule="evenodd" clip-rule="evenodd" d="M22.7232 30.3715C20.1816 28.7583 18.3083 23.1916 18.3083 16.5761C18.3083 16.3334 18.3094 16.0937 18.3154 15.8551L18.3174 15.8581C11.2468 14.7325 6.1385 11.6486 6.00708 8.00025L5.98686 8.04327C4.25712 10.2218 3.26942 12.7404 3.26942 15.4239C3.26942 23.3207 11.8251 29.7907 22.6777 30.3633L22.7232 30.3715ZM0 15.9995C0 7.16448 10.8536 0 24.2416 0C37.6307 0 48.4842 7.16448 48.4842 15.9995C48.4842 24.8355 37.6307 32 24.2416 32C10.8536 32 0 24.8355 0 15.9995ZM24.2426 2.30861C26.8276 2.30861 29.0265 6.2816 29.8413 11.8247L29.8433 11.8155C34.8728 11.0228 38.3929 9.19348 38.3929 7.06411C38.3929 4.20753 32.0573 1.8938 24.2426 1.8938C16.429 1.8938 10.0933 4.20753 10.0933 7.06411C10.0933 9.19348 13.6135 11.0217 18.642 11.8155L18.645 11.8247C19.4598 6.2816 21.6586 2.30861 24.2426 2.30861ZM25.8076 30.3623C36.6602 29.7897 45.2168 23.3197 45.2168 15.4228C45.2168 12.7394 44.2281 10.2208 42.4994 8.04225L42.4782 7.99923C42.3478 11.6475 37.2394 14.7315 30.1678 15.8571L30.1709 15.854C30.1759 16.0927 30.1779 16.3324 30.1779 16.5751C30.1779 23.1906 28.3036 28.7573 25.7631 30.3704L25.8076 30.3623ZM24.2426 12.2354C25.3647 12.2368 26.4862 12.1883 27.604 12.09L27.603 12.091C27.0672 8.53899 25.7651 6.03066 24.2436 6.03066C22.7222 6.03066 21.4211 8.53899 20.8842 12.091L20.8832 12.09C22.0004 12.1878 23.1213 12.2363 24.2426 12.2354ZM24.2426 25.3927C26.1887 25.3927 27.7769 21.2896 27.8608 16.1449L27.8709 16.148C25.4575 16.3733 23.0288 16.3733 20.6153 16.148L20.6254 16.1449C20.7094 21.2896 22.2965 25.3927 24.2426 25.3927ZM123.702 15.9995C123.702 9.24674 129.107 3.77121 135.772 3.77121C142.44 3.77121 147.844 9.24674 147.844 15.9995C147.844 22.7543 142.439 28.2278 135.772 28.2278C129.107 28.2278 123.702 22.7543 123.702 15.9995ZM135.772 23.7437C139.494 23.7437 142.513 20.2756 142.513 15.9985C142.513 11.7223 139.494 8.25426 135.772 8.25426C132.05 8.25426 129.033 11.7223 129.033 15.9985C129.033 20.2767 132.051 23.7437 135.772 23.7437ZM161.54 8.86573V27.6726H156.453V8.86573H156.471H149.359V4.61415H168.634V8.86573H161.54ZM174.787 22.4849L174.782 22.49L172.831 27.6737H166.89L176.281 4.61415H182.611L192 27.6737H186.061L184.11 22.49L184.103 22.4849H174.787ZM179.446 18.5928H182.647L182.645 18.5939L179.467 10.1542H179.424L176.246 18.5939L176.244 18.5928H179.446ZM67.7914 8.86573V27.6726H62.7053V8.86573H62.7235H55.6104V4.61415H74.8863V8.86573H67.7914ZM76.1874 15.9995C76.1874 9.24674 81.5919 3.77121 88.2591 3.77121C94.9254 3.77121 100.33 9.24674 100.33 15.9995C100.33 22.7543 94.9254 28.2278 88.2591 28.2278C81.5919 28.2278 76.1874 22.7543 76.1874 15.9995ZM88.2591 23.7437C91.9805 23.7437 94.9992 20.2756 94.9992 15.9985C94.9992 11.7223 91.9805 8.25426 88.2591 8.25426C84.5368 8.25426 81.5191 11.7223 81.5191 15.9985C81.5191 20.2767 84.5368 23.7437 88.2591 23.7437ZM112.014 27.6726H114.593V18.9175L123.467 4.61415H117.527L112.014 14.3064L106.504 4.61415H100.564L109.437 18.9175V27.6726H112.014Z" fill="#6B7280"/>
</svg>
