<svg width="25" height="19" viewBox="0 0 25 19" fill="none" xmlns="http://www.w3.org/2000/svg">
<path d="M6.27273 18.2131C5.27841 18.2131 4.37784 17.9574 3.57102 17.446C2.76989 16.929 2.13352 16.1705 1.66193 15.1705C1.19602 14.1648 0.963068 12.9318 0.963068 11.4716C0.963068 9.97159 1.20455 8.72443 1.6875 7.73011C2.17045 6.73011 2.8125 5.98295 3.61364 5.48864C4.42045 4.98864 5.30398 4.73864 6.2642 4.73864C6.99716 4.73864 7.60795 4.86364 8.09659 5.11364C8.59091 5.35795 8.98864 5.66477 9.28977 6.03409C9.59659 6.39773 9.82955 6.75568 9.98864 7.10795H10.0994V0.545454H13.7216V18H10.142V15.9034H9.98864C9.81818 16.267 9.5767 16.6278 9.2642 16.9858C8.95739 17.3381 8.55682 17.6307 8.0625 17.8636C7.57386 18.0966 6.97727 18.2131 6.27273 18.2131ZM7.4233 15.3239C8.00852 15.3239 8.50284 15.1648 8.90625 14.8466C9.31534 14.5227 9.62784 14.071 9.84375 13.4915C10.0653 12.9119 10.1761 12.233 10.1761 11.4545C10.1761 10.6761 10.0682 10 9.85227 9.42614C9.63636 8.85227 9.32386 8.40909 8.91477 8.09659C8.50568 7.78409 8.00852 7.62784 7.4233 7.62784C6.8267 7.62784 6.32386 7.78977 5.91477 8.11364C5.50568 8.4375 5.19602 8.88636 4.9858 9.46023C4.77557 10.0341 4.67045 10.6989 4.67045 11.4545C4.67045 12.2159 4.77557 12.8892 4.9858 13.4744C5.2017 14.054 5.51136 14.5085 5.91477 14.8381C6.32386 15.1619 6.8267 15.3239 7.4233 15.3239ZM16.7067 18V4.90909H20.2266V7.19318H20.3629C20.6016 6.38068 21.0021 5.76705 21.5646 5.35227C22.1271 4.93182 22.7749 4.72159 23.5078 4.72159C23.6896 4.72159 23.8857 4.73295 24.0959 4.75568C24.3061 4.77841 24.4908 4.80966 24.6499 4.84943V8.07102C24.4794 8.01989 24.2436 7.97443 23.9425 7.93466C23.6413 7.89489 23.3658 7.875 23.1158 7.875C22.5817 7.875 22.1044 7.99148 21.6839 8.22443C21.2692 8.4517 20.9396 8.76989 20.6953 9.17898C20.4567 9.58807 20.3374 10.0597 20.3374 10.5938V18H16.7067Z" fill="#A1A1AA"/>
</svg>
