<svg width="24" height="20" viewBox="0 0 24 20" fill="none" xmlns="http://www.w3.org/2000/svg">
<path d="M8.48864 5.90909V8.63636H0.409091V5.90909H8.48864ZM2.25852 19V4.96307C2.25852 4.0142 2.44318 3.22727 2.8125 2.60227C3.1875 1.97727 3.69886 1.50852 4.34659 1.19602C4.99432 0.883522 5.73011 0.727272 6.55398 0.727272C7.1108 0.727272 7.61932 0.769886 8.07955 0.855114C8.54545 0.940341 8.89205 1.01705 9.11932 1.08523L8.47159 3.8125C8.32955 3.76705 8.15341 3.72443 7.94318 3.68466C7.73864 3.64489 7.52841 3.625 7.3125 3.625C6.77841 3.625 6.40625 3.75 6.19602 4C5.9858 4.24432 5.88068 4.58807 5.88068 5.03125V19H2.25852ZM10.7749 19V1.54545H14.4055V8.10795H14.5163C14.6754 7.75568 14.9055 7.39773 15.2067 7.03409C15.5135 6.66477 15.9112 6.35795 16.3999 6.11364C16.8942 5.86364 17.5078 5.73864 18.2408 5.73864C19.1953 5.73864 20.076 5.98864 20.8828 6.48864C21.6896 6.98295 22.3345 7.73011 22.8175 8.73011C23.3004 9.72443 23.5419 10.9716 23.5419 12.4716C23.5419 13.9318 23.3061 15.1648 22.8345 16.1705C22.3686 17.1705 21.7322 17.929 20.9254 18.446C20.1243 18.9574 19.2266 19.2131 18.2322 19.2131C17.5277 19.2131 16.9283 19.0966 16.4339 18.8636C15.9453 18.6307 15.5447 18.3381 15.2322 17.9858C14.9197 17.6278 14.6811 17.267 14.5163 16.9034H14.3544V19H10.7749ZM14.3288 12.4545C14.3288 13.233 14.4368 13.9119 14.6527 14.4915C14.8686 15.071 15.1811 15.5227 15.5902 15.8466C15.9993 16.1648 16.4964 16.3239 17.0817 16.3239C17.6726 16.3239 18.1726 16.1619 18.5817 15.8381C18.9908 15.5085 19.3004 15.054 19.5107 14.4744C19.7266 13.8892 19.8345 13.2159 19.8345 12.4545C19.8345 11.6989 19.7294 11.0341 19.5192 10.4602C19.3089 9.88636 18.9993 9.4375 18.5902 9.11364C18.1811 8.78977 17.6783 8.62784 17.0817 8.62784C16.4908 8.62784 15.9908 8.78409 15.5817 9.09659C15.1783 9.40909 14.8686 9.85227 14.6527 10.4261C14.4368 11 14.3288 11.6761 14.3288 12.4545Z" fill="#A1A1AA"/>
</svg>
