<svg width="20" height="18" viewBox="0 0 20 18" fill="none" xmlns="http://www.w3.org/2000/svg">
<path d="M4.07955 0.545454V18H0.448864V0.545454H4.07955ZM10.6186 10.4318V18H6.98793V4.90909H10.4482V7.21875H10.6016C10.8913 6.45739 11.3771 5.85511 12.0589 5.41193C12.7408 4.96307 13.5675 4.73864 14.5391 4.73864C15.4482 4.73864 16.2408 4.9375 16.9169 5.33523C17.593 5.73295 18.1186 6.30114 18.4936 7.03977C18.8686 7.77273 19.0561 8.64773 19.0561 9.66477V18H15.4254V10.3125C15.4311 9.51136 15.2266 8.88636 14.8118 8.4375C14.397 7.98295 13.826 7.75568 13.0987 7.75568C12.6101 7.75568 12.1783 7.8608 11.8033 8.07102C11.4339 8.28125 11.1442 8.58807 10.9339 8.99148C10.7294 9.3892 10.6243 9.86932 10.6186 10.4318Z" fill="#A1A1AA"/>
</svg>
