<svg width="24" height="24" viewBox="0 0 24 24" fill="none" xmlns="http://www.w3.org/2000/svg">
<path d="M16.9297 8.33935L17.1005 8.16845V8.41003V14C17.1005 14.4955 17.4963 14.9 18.0005 14.9C18.4952 14.9 18.9005 14.4948 18.9005 14V6.00003C18.9005 5.50526 18.4952 5.10003 18.0005 5.10003H10.0005C9.5057 5.10003 9.10047 5.50526 9.10047 6.00003C9.10047 6.4948 9.5057 6.90003 10.0005 6.90003H15.5905H15.8317L15.6612 7.07071L4.78121 17.9607L4.78118 17.9607C4.43023 18.3117 4.43023 18.8784 4.78118 19.2293C5.13212 19.5803 5.69878 19.5803 6.04973 19.2294C6.04974 19.2293 6.04975 19.2293 6.04976 19.2293L16.9297 8.33935Z" fill="#27272A" stroke="white" stroke-width="0.2"/>
</svg>
