<svg width="131" height="69" viewBox="0 0 131 69" fill="none" xmlns="http://www.w3.org/2000/svg">
<rect width="69" height="69" rx="1.38" fill="url(#paint0_linear_421_2341)"/>
<path d="M36.1176 27.4383C32.1824 27.4383 28.8941 28.8398 26.8457 31.2656V16.9805H20.377V57.1406H26.4684V53.6906C28.5707 56.332 32.0746 57.7875 36.0637 57.7875C44.3652 57.7875 50.7801 51.2109 50.7801 42.6398C50.7801 34.0148 44.3113 27.4383 36.1176 27.4383ZM35.4168 51.8039C30.4035 51.8039 26.8457 48.0305 26.8457 42.6398C26.8457 37.3031 30.4035 33.4219 35.4168 33.4219C40.3762 33.4219 44.0418 37.3031 44.0418 42.6398C44.0418 47.9766 40.3762 51.8039 35.4168 51.8039Z" fill="white"/>
<path d="M85.9981 45.378C87.2733 45.378 88.4076 45.0717 89.4012 44.459C90.4114 43.8462 91.2063 43.0182 91.7859 41.975C92.3655 40.9151 92.6553 39.7228 92.6553 38.398C92.6553 37.0566 92.3655 35.8643 91.7859 34.821C91.2063 33.7612 90.4197 32.9249 89.4261 32.3122C88.4325 31.6995 87.2981 31.3931 86.023 31.3931C85.0294 31.3931 84.1351 31.5836 83.3403 31.9644C82.5454 32.3288 81.8913 32.8421 81.3779 33.5045V26.2761H79.0678V45.08H81.3282V43.1424C81.8416 43.8545 82.504 44.4093 83.3154 44.8067C84.1434 45.1876 85.0377 45.378 85.9981 45.378ZM85.8243 43.1424C84.9963 43.1424 84.2428 42.9354 83.5638 42.5214C82.8849 42.1074 82.3467 41.5444 81.9492 40.8323C81.5683 40.1037 81.3779 39.2922 81.3779 38.398C81.3779 37.4872 81.5683 36.6758 81.9492 35.9637C82.3467 35.2516 82.8849 34.6886 83.5638 34.2746C84.2428 33.844 84.9963 33.6287 85.8243 33.6287C86.6688 33.6287 87.414 33.8357 88.0599 34.2497C88.7223 34.6637 89.2439 35.235 89.6248 35.9637C90.0057 36.6758 90.1961 37.4872 90.1961 38.398C90.1961 39.2922 90.0057 40.1037 89.6248 40.8323C89.2439 41.5444 88.7223 42.1074 88.0599 42.5214C87.414 42.9354 86.6688 43.1424 85.8243 43.1424ZM95.6844 45.08H97.9945V26.2761H95.6844V45.08ZM107.938 45.378C109.197 45.378 110.348 45.08 111.391 44.4838C112.434 43.8876 113.262 43.0596 113.875 41.9998C114.504 40.94 114.819 39.7311 114.819 38.3732C114.819 37.0318 114.512 35.8395 113.9 34.7962C113.304 33.7364 112.484 32.9084 111.441 32.3122C110.397 31.6995 109.23 31.3931 107.938 31.3931C106.63 31.3931 105.454 31.6995 104.411 32.3122C103.368 32.9084 102.54 33.7364 101.927 34.7962C101.331 35.8395 101.033 37.0318 101.033 38.3732C101.033 39.7145 101.339 40.9151 101.952 41.975C102.564 43.0348 103.392 43.8711 104.436 44.4838C105.479 45.08 106.646 45.378 107.938 45.378ZM107.938 43.1424C107.094 43.1424 106.332 42.9354 105.653 42.5214C104.99 42.1074 104.46 41.5444 104.063 40.8323C103.666 40.1037 103.467 39.284 103.467 38.3732C103.467 37.4624 103.666 36.6509 104.063 35.9388C104.46 35.2268 104.99 34.6637 105.653 34.2497C106.332 33.8357 107.094 33.6287 107.938 33.6287C108.766 33.6287 109.511 33.8357 110.174 34.2497C110.853 34.6637 111.383 35.2268 111.763 35.9388C112.161 36.6509 112.36 37.4624 112.36 38.3732C112.36 39.284 112.161 40.1037 111.763 40.8323C111.383 41.5444 110.853 42.1074 110.174 42.5214C109.511 42.9354 108.766 43.1424 107.938 43.1424ZM115.831 45.08H118.663L121.917 40.2858L125.171 45.08H127.953L123.308 38.3732L127.978 31.6912H125.171L121.917 36.4605L118.638 31.6912H115.856L120.526 38.3732L115.831 45.08Z" fill="white"/>
<defs>
<linearGradient id="paint0_linear_421_2341" x1="68.1914" y1="68.1914" x2="-21.5625" y2="-22.6406" gradientUnits="userSpaceOnUse">
<stop stop-color="#21BDB8"/>
<stop offset="1" stop-color="#280684"/>
</linearGradient>
</defs>
</svg>
