<svg width="127" height="68" viewBox="0 0 127 68" fill="none" xmlns="http://www.w3.org/2000/svg">
<path d="M60.8917 28.27H70.9478L67.621 42.6737H71.2314L70.0216 47.853H59.9655L63.2923 33.4493H59.682L60.8917 28.27ZM65.1826 21.9566C65.1826 21.4903 65.2645 21.0556 65.4283 20.6523C65.6047 20.2365 65.8442 19.8773 66.1466 19.5749C66.4491 19.2724 66.8019 19.033 67.2052 18.8566C67.621 18.6802 68.0684 18.5919 68.5472 18.5919C69.0009 18.5919 69.4293 18.6802 69.8326 18.8566C70.2358 19.033 70.5887 19.2724 70.8911 19.5749C71.1936 19.8773 71.433 20.2365 71.6094 20.6523C71.7858 21.0556 71.8741 21.4903 71.8741 21.9566C71.8741 22.4228 71.7858 22.8639 71.6094 23.2798C71.433 23.683 71.1936 24.0359 70.8911 24.3383C70.5887 24.6407 70.2358 24.8802 69.8326 25.0566C69.4293 25.233 69.0009 25.3212 68.5472 25.3212C68.0684 25.3212 67.621 25.233 67.2052 25.0566C66.8019 24.8802 66.4491 24.6407 66.1466 24.3383C65.8442 24.0359 65.6047 23.683 65.4283 23.2798C65.2645 22.8639 65.1826 22.4228 65.1826 21.9566ZM85.9851 46.3597C85.5189 46.7629 84.8825 47.1095 84.076 47.3993C83.2317 47.7017 82.2865 47.853 81.2406 47.853C80.2451 47.853 79.2559 47.6765 78.2729 47.3237C77.3026 46.9709 76.4331 46.4479 75.6644 45.7548C74.8957 45.0617 74.2719 44.1985 73.793 43.1652C73.3142 42.1318 73.0747 40.9347 73.0747 39.5737C73.0747 37.8851 73.3835 36.3225 74.001 34.8859C74.631 33.4493 75.488 32.208 76.5717 31.1621C77.668 30.1036 78.9534 29.2781 80.4278 28.6859C81.9148 28.0936 83.5152 27.7975 85.229 27.7975C85.7205 27.7975 86.2057 27.8416 86.6845 27.9298C87.176 28.0054 87.6359 28.1125 88.0644 28.2511C88.4929 28.3771 89.1229 28.6796 89.9546 29.1584L90.276 27.7975H96.6839L92.2418 47.0402C91.8008 48.9682 91.1833 50.556 90.3894 51.8036C89.6081 53.0637 88.6819 54.0593 87.6107 54.7902C86.5522 55.5211 85.3613 56.0314 84.0382 56.3213C82.715 56.6111 81.2973 56.756 79.7851 56.756C77.7815 56.756 76.0424 56.5229 74.568 56.0566C73.1062 55.603 71.8902 54.9981 70.9199 54.242L74.2467 49.2517C75.0028 49.7936 75.8723 50.241 76.8552 50.5938C77.8382 50.9593 78.903 51.142 80.0498 51.142C80.6924 51.142 81.3162 51.0853 81.9211 50.9719C82.526 50.8585 83.0868 50.6442 83.6034 50.3292C84.1201 50.0141 84.5737 49.5794 84.9644 49.0249C85.355 48.483 85.6512 47.7837 85.8528 46.9267L85.9851 46.3597ZM86.7412 40.7078C87.0185 40.4432 87.2705 40.1345 87.4973 39.7816L88.5181 35.3962C88.077 34.7158 87.6485 34.2684 87.2327 34.0542C86.8168 33.8273 86.401 33.6635 85.9851 33.5627C85.5693 33.4619 85.1282 33.4115 84.662 33.4115C83.9815 33.4115 83.3325 33.5501 82.715 33.8273C82.0975 34.092 81.5557 34.4574 81.0894 34.9237C80.6357 35.3773 80.2703 35.9192 79.993 36.5493C79.7158 37.1668 79.5772 37.8347 79.5772 38.553C79.5772 39.1578 79.6717 39.6871 79.8607 40.1408C80.0498 40.5944 80.3081 40.9725 80.6357 41.2749C80.9634 41.5773 81.3414 41.8105 81.7699 41.9743C82.1983 42.1255 82.6583 42.2011 83.1498 42.2011C83.5656 42.2011 83.9815 42.1507 84.3973 42.0499C84.8258 41.9365 85.2353 41.7727 85.626 41.5584C86.0292 41.3316 86.401 41.0481 86.7412 40.7078ZM99.8595 28.27H109.916L106.589 42.6737H110.199L108.989 47.853H98.9333L102.26 33.4493H98.6498L99.8595 28.27ZM104.15 21.9566C104.15 21.4903 104.232 21.0556 104.396 20.6523C104.573 20.2365 104.812 19.8773 105.114 19.5749C105.417 19.2724 105.77 19.033 106.173 18.8566C106.589 18.6802 107.036 18.5919 107.515 18.5919C107.969 18.5919 108.397 18.6802 108.8 18.8566C109.204 19.033 109.557 19.2724 109.859 19.5749C110.161 19.8773 110.401 20.2365 110.577 20.6523C110.754 21.0556 110.842 21.4903 110.842 21.9566C110.842 22.4228 110.754 22.8639 110.577 23.2798C110.401 23.683 110.161 24.0359 109.859 24.3383C109.557 24.6407 109.204 24.8802 108.8 25.0566C108.397 25.233 107.969 25.3212 107.515 25.3212C107.036 25.3212 106.589 25.233 106.173 25.0566C105.77 24.8802 105.417 24.6407 105.114 24.3383C104.812 24.0359 104.573 23.683 104.396 23.2798C104.232 22.8639 104.15 22.4228 104.15 21.9566ZM113.007 28.27H116.655L117.77 23.5822L125.01 20.4822L123.157 28.27H126.749L125.558 33.4493H121.929L120.284 40.4621C120.095 41.1678 120.013 41.7286 120.038 42.1444C120.064 42.5603 120.196 42.8627 120.435 43.0517C120.687 43.2282 120.977 43.3164 121.305 43.3164C121.569 43.3164 121.853 43.2912 122.155 43.2408C122.47 43.1904 122.804 43.1147 123.157 43.0139L123.233 47.3426C122.83 47.4938 122.433 47.6324 122.042 47.7585C121.651 47.8845 121.235 47.9853 120.794 48.0609C120.366 48.1491 119.906 48.2121 119.415 48.2499C118.936 48.3003 118.413 48.3255 117.846 48.3255C116.938 48.3255 116.138 48.2184 115.445 48.0042C114.765 47.8026 114.223 47.456 113.819 46.9646C113.429 46.4731 113.189 45.8178 113.101 44.9987C113.025 44.167 113.139 43.1337 113.441 41.8987L115.426 33.4493H111.816L113.007 28.27Z" fill="white"/>
<path d="M32.5807 5.87939H61.7188C59.661 10.3704 53.3231 19.5974 41.5685 20.0873H27.1481L22.1922 32.3355H50.3599C48.5491 36.4999 42.458 45.4655 32.5807 47.0333H16.2831L9.86279 62.2211C-0.80474 61.8291 -0.59073 52.4225 0.973182 48.0132L12.3321 20.0873H27.1481L32.5807 5.87939Z" fill="white"/>
<path opacity="0.2" d="M16.2832 47.0331L22.2096 32.3353V47.0331H16.2832Z" fill="white"/>
<path opacity="0.2" d="M27.1484 20.0873L32.581 5.87939V20.0873H27.1484Z" fill="white"/>
</svg>
