<svg width="150" height="100" viewBox="0 0 150 100" fill="none" xmlns="http://www.w3.org/2000/svg">
<g clip-path="url(#clip0_421_2202)">
<path d="M73.6875 7.74912H82.92V0H73.6875V7.74912Z" fill="#E2E2E2"/>
<path d="M82.918 7.74912H92.1504V0H82.918V7.74912Z" fill="#FF3565"/>
<path d="M73.6875 15.4982H82.92V7.74902H73.6875V15.4982Z" fill="#FF3565"/>
<path d="M82.918 15.498H92.1504V7.7489H82.918V15.498Z" fill="#E2E2E2"/>
<path d="M130.299 40.8831L149.219 15.4982H127.121L113.801 36.0248V0H95.4707V67.4964H113.801V56.4657L117.365 51.71L125.819 67.4964H148.326L130.299 40.8831Z" fill="white"/>
<path d="M73.8259 48.7757C73.816 48.7855 73.8047 48.7967 73.7962 48.8079C73.7185 52.8498 70.4105 56.1074 66.3231 56.1074C62.1877 56.1074 58.8358 52.7767 58.8358 48.6674V0H40.627V50.2807C40.627 62.4019 51.8649 67.4879 60.3505 67.4879C69.0075 67.4879 71.3369 65.4769 73.8259 63.2803V67.4964H92.1565V18.6195H73.8259V48.7757Z" fill="#FF3565"/>
<path d="M73.6916 49.6779C73.1924 53.3022 70.1093 56.1074 66.3231 56.1074C62.1877 56.1074 58.8358 52.7767 58.8358 48.6674V0H40.627V50.2807C40.627 62.4019 51.8649 67.4879 60.3505 67.4879C68.8518 67.4879 71.252 65.5471 73.6916 63.3969V49.6779Z" fill="white"/>
<path d="M73.8242 67.4964H92.1547V65.564H73.8242V67.4964Z" fill="#FF3565"/>
<path d="M73.6875 67.4964H92.1525V18.6195H73.6875V67.4964Z" fill="#FF3565"/>
<path d="M0 0V16.8446H18.2288V67.4964H37.6259V16.8685H40.6255V17.81H58.8345V0H0Z" fill="white"/>
<path fill-rule="evenodd" clip-rule="evenodd" d="M28.8262 84.6363C28.8262 85.5806 28.0568 86.3451 27.1065 86.3451C26.1786 86.3451 25.4092 85.5806 25.4092 84.6363C25.4092 83.6918 26.1786 82.9497 27.1065 82.9497C28.0568 82.9497 28.8262 83.6918 28.8262 84.6363ZM8.2188 86.1876V98.3749H4.9829V86.1876H0.570312V83.3769H12.6088V86.1876H8.2188ZM19.914 96.9809C19.0541 98.0602 17.8773 98.6447 16.5423 98.6447C13.8043 98.6447 11.6998 96.5761 11.6998 92.9335C11.6998 89.4032 13.759 87.2445 16.5423 87.2445C17.8322 87.2445 19.0315 87.7842 19.914 88.9085V87.5144H22.8104V98.3749H19.914V96.9809ZM17.4479 96.1038C15.796 96.1038 14.6645 94.8223 14.6645 92.9333C14.6645 91.0671 15.796 89.7854 17.4479 89.7854C18.3982 89.7854 19.4391 90.3251 19.9144 91.0445V94.8671C19.4391 95.5868 18.3982 96.1038 17.4479 96.1038ZM28.555 98.3749V87.5144H25.6811V98.3749H28.555ZM36.9015 97.9476C36.4716 98.3301 35.6797 98.6447 34.5029 98.6447C32.489 98.6447 31.4254 97.6104 31.4254 95.6542V83.3769H34.2992V94.8897C34.2992 95.5868 34.6613 96.1038 35.295 96.1038C35.7249 96.1038 36.1322 95.9464 36.2906 95.7666L36.9015 97.9476ZM43.1656 98.3749L45.4738 90.9771L47.7818 98.3749H50.8594L54.1857 87.5144H51.1762L49.1395 94.8223L46.7409 87.5144H44.1839L41.7853 94.8223L39.7486 87.5144H36.7617L40.0882 98.3749H43.1656ZM58.7756 84.6363C58.7756 85.5806 58.0063 86.3451 57.0559 86.3451C56.1282 86.3451 55.3587 85.5806 55.3587 84.6363C55.3587 83.6918 56.1282 82.9497 57.0559 82.9497C58.0063 82.9497 58.7756 83.6918 58.7756 84.6363ZM58.5044 98.3749V87.5144H55.6306V98.3749H58.5044ZM64.2479 91.0447V98.3749H61.3741V87.5144H64.2479V88.9085C64.9494 88.099 66.3072 87.2445 68.0723 87.2445C70.4934 87.2445 71.6476 88.5937 71.6476 90.7073V98.3749H68.751V91.8092C68.751 90.3026 67.9591 89.7854 66.7371 89.7854C65.6057 89.7854 64.7457 90.415 64.2479 91.0447ZM78.6364 98.6447C79.9716 98.6447 81.1484 98.0602 82.0083 96.9809V98.3749H84.9047V83.3769H82.0083V88.9085C81.1484 87.7842 79.9263 87.2445 78.6364 87.2445C75.8532 87.2445 73.7939 89.4032 73.7939 92.9335C73.7939 96.5761 75.8985 98.6447 78.6364 98.6447ZM76.758 92.9333C76.758 94.8223 77.8895 96.1038 79.5413 96.1038C80.4918 96.1038 81.5327 95.5868 82.0077 94.8671V91.0221C81.5327 90.3026 80.4918 89.7854 79.5413 89.7854C77.8895 89.7854 76.758 91.0671 76.758 92.9333ZM100.489 98.6447C105.083 98.6447 107.3 96.0814 107.3 92.3713V83.3769H104.019V92.2813C104.019 94.3725 102.82 95.8116 100.489 95.8116C98.1582 95.8116 96.9362 94.3725 96.9362 92.2813V83.3769H93.6777V92.3713C93.6777 96.0814 95.8953 98.6447 100.489 98.6447ZM113.519 83.3769V98.3749H110.306V83.3769H113.519ZM125.165 98.3749V95.5868L126.478 94.1926L129.374 98.3749H132.972L128.515 92.4387L132.837 87.5144H129.306L125.165 92.3488V83.3769H122.292V98.3749H125.165ZM137.585 84.6363C137.585 85.5806 136.815 86.3451 135.865 86.3451C134.937 86.3451 134.168 85.5806 134.168 84.6363C134.168 83.6918 134.937 82.9497 135.865 82.9497C136.815 82.9497 137.585 83.6918 137.585 84.6363ZM137.314 98.3749V87.5144H134.44V98.3749H137.314ZM146.249 97.9476C145.819 98.3299 145.049 98.6447 143.85 98.6447C141.836 98.6447 140.773 97.6104 140.773 95.6542V90.0102H138.962V87.5144H140.773V84.5463H143.646V87.5144H145.864V90.0102H143.646V94.8897C143.646 95.5868 144.008 96.1038 144.642 96.1038C145.072 96.1038 145.479 95.9464 145.638 95.7666L146.249 97.9476Z" fill="white"/>
</g>
<defs>
<clipPath id="clip0_421_2202">
<rect width="149.219" height="100" fill="white"/>
</clipPath>
</defs>
</svg>
